<?xml version="1.0" standalone="no"?>
<!DOCTYPE svg PUBLIC "-//W3C//DTD SVG 1.1//EN" "http://www.w3.org/Graphics/SVG/1.1/DTD/svg11.dtd" >
<svg xmlns="http://www.w3.org/2000/svg" xmlns:xlink="http://www.w3.org/1999/xlink" version="1.1">
<metadata>
Created by FontForge 20170731 at Sat Sep 19 01:42:01 2020
 By Aleksey,,,
Copyright (c) 2008 by NORM, Dimitri Bruni, Manuel Krebs. www.lineto.com. All rights reserved.
</metadata>
<defs>
<font id="Replica-Regular" horiz-adv-x="1187" >
  <font-face 
    font-family="Replica-Regular"
    font-weight="400"
    font-stretch="normal"
    units-per-em="2048"
    panose-1="2 0 5 3 3 0 0 2 0 4"
    ascent="1618"
    descent="-430"
    x-height="1024"
    cap-height="1434"
    bbox="-102 -430 3195 1843"
    underline-thickness="40"
    underline-position="-347"
    unicode-range="U+000D-FB04"
  />
<missing-glyph horiz-adv-x="1351" 
d="M1188 20l-21 -20h-983l-20 20v1393l20 21h983l21 -21v-1393zM225 1352v-1270l21 -21h860l20 21v1270l-20 20h-860z" />
    <glyph glyph-name="uniFB00" unicode="ff" horiz-adv-x="1392" 
d="M1331 860l-20 -20h-205l-21 -21v-799l-20 -20h-164l-20 20v799l-21 21h-389l-20 -21v-799l-21 -20h-164l-20 20v799l-21 21h-143l-21 20v144l21 20h143l21 20v82q0 88 42.5 150t105.5 89.5t138 27.5h164l21 -21v-143l-21 -21h-164q-35 0 -58 -20t-23 -62v-82l20 -20h389
l21 20v82q0 88 42.5 150t105.5 89.5t138 27.5h164l21 -21v-143l-21 -21h-164q-35 0 -58.5 -20t-23.5 -62v-82l21 -20h205l20 -20v-144z" />
    <glyph glyph-name="fi" unicode="fi" horiz-adv-x="1208" 
d="M1085 1208l-20 -20h-164l-20 20v164l20 21h164l20 -21v-164zM1085 20l-20 -20h-164l-20 20v799l-21 21h-389l-20 -21v-799l-21 -20h-164l-20 20v799l-21 21h-143l-21 20v144l21 20h143l21 20v82q0 88 42.5 150t105.5 89.5t138 27.5h164l21 -21v-143l-21 -21h-164
q-35 0 -58 -20t-23 -62v-82l20 -20h594l20 -20v-984z" />
    <glyph glyph-name="fl" unicode="fl" horiz-adv-x="1208" 
d="M1085 20l-20 -20h-164l-20 20v799l-21 21h-389l-20 -21v-799l-21 -20h-164l-20 20v799l-21 21h-143l-21 20v144l21 20h143l21 20v82q0 88 42.5 150t105.5 89.5t138 27.5h164l21 -21v-143l-21 -21h-164q-35 0 -58 -20t-23 -62v-82l20 -20h389l21 20v369l20 21h164l20 -21
v-1393z" />
    <glyph glyph-name="uniFB03" unicode="ffi" horiz-adv-x="1843" 
d="M1720 20l-20 -20h-164l-20 20v799l-21 21h-389l-21 -21v-799l-20 -20h-164l-20 20v799l-21 21h-389l-20 -21v-799l-21 -20h-164l-20 20v799l-21 21h-143l-21 20v144l21 20h143l21 20v82q0 88 42.5 150t105.5 89.5t138 27.5h164l21 -21v-143l-21 -21h-164q-35 0 -58 -20
t-23 -62v-82l20 -20h389l21 20v82q0 88 42.5 150t105.5 89.5t138 27.5h164l21 -21v-143l-21 -21h-164q-35 0 -58.5 -20t-23.5 -62v-82l21 -20h594l20 -20v-984zM1720 1208l-20 -20h-164l-20 20v164l20 21h164l20 -21v-164z" />
    <glyph glyph-name="uniFB04" unicode="ffl" horiz-adv-x="1843" 
d="M1720 20l-20 -20h-164l-20 20v799l-21 21h-389l-21 -21v-799l-20 -20h-164l-20 20v799l-21 21h-389l-20 -21v-799l-21 -20h-164l-20 20v799l-21 21h-143l-21 20v144l21 20h143l21 20v82q0 88 42.5 150t105.5 89.5t138 27.5h164l21 -21v-143l-21 -21h-164q-35 0 -58 -20
t-23 -62v-82l20 -20h389l21 20v82q0 88 42.5 150t105.5 89.5t138 27.5h164l21 -21v-143l-21 -21h-164q-35 0 -58.5 -20t-23.5 -62v-82l21 -20h389l21 20v369l20 21h164l20 -21v-1393z" />
    <glyph glyph-name=".notdef" horiz-adv-x="1351" 
d="M1188 20l-21 -20h-983l-20 20v1393l20 21h983l21 -21v-1393zM225 1352v-1270l21 -21h860l20 21v1270l-20 20h-860z" />
    <glyph glyph-name=".null" horiz-adv-x="0" 
 />
    <glyph glyph-name=".null" horiz-adv-x="0" 
 />
    <glyph glyph-name="nonmarkingreturn" horiz-adv-x="682" 
 />
    <glyph glyph-name="CR" unicode="&#xd;" horiz-adv-x="0" 
 />
    <glyph glyph-name="space" unicode=" " horiz-adv-x="532" 
 />
    <glyph glyph-name="exclam" unicode="!" horiz-adv-x="737" 
d="M471 901l-41 -471l-20 -20h-82l-21 20l-41 471v512l21 21h164l20 -21v-512zM492 20l-21 -20h-205l-20 20v205l20 21h205l21 -21v-205z" />
    <glyph glyph-name="quotedbl" unicode="&#x22;" horiz-adv-x="942" 
d="M778 819l-20 -20h-164l-21 20v594l21 21h164l20 -21v-594zM369 819l-21 -20h-164l-20 20v594l20 21h164l21 -21v-594z" />
    <glyph glyph-name="numbersign" unicode="#" horiz-adv-x="1331" 
d="M655 164l62 225l-21 21h-245l-21 -21l-102 -369l-21 -20h-102l-21 20v144l62 225l-21 21h-143l-21 20v123l21 20h205l20 21l62 246l-21 20h-164l-20 21v123l20 20h226l20 20l102 369l21 21h102l21 -21v-143l-62 -226l21 -20h246l20 20l103 369l20 21h102l21 -21v-143
l-62 -226l21 -20h143l21 -20v-123l-21 -21h-205l-20 -20l-61 -246l20 -21h164l20 -20v-123l-20 -20h-225l-21 -21l-102 -369l-21 -20h-102l-21 20v144zM512 573h246l20 21l62 246l-21 20h-246l-20 -20l-61 -246z" />
    <glyph glyph-name="dollar" unicode="$" horiz-adv-x="1228" 
d="M696 -164l-20 -20h-123l-21 20v123l-20 21q-225 30 -327.5 148t-102.5 323l20 20h164l21 -20q0 -122 49 -197.5t176 -89.5l20 20v451l-20 20q-205 47 -307.5 146t-102.5 264q0 151 97 255.5t313 133.5l20 21v122l21 21h123l20 -21v-122l21 -21q180 -15 284.5 -135.5
t104.5 -294.5l-21 -20h-163l-21 20q0 96 -47.5 164t-136.5 82l-21 -21v-409l21 -21q430 -86 430 -430q0 -47 -11 -94t-41 -100t-76 -95t-124 -75t-178 -45l-21 -21v-123zM942 389q0 188 -225 225l-21 -20v-410l21 -20q107 15 166 74t59 151zM307 1065q0 -172 205 -205l20 21
v368l-20 21q-112 -14 -158.5 -72.5t-46.5 -132.5z" />
    <glyph glyph-name="percent" unicode="%" horiz-adv-x="1843" 
d="M430 676q-177 0 -262.5 105.5t-85.5 283.5t85.5 283.5t262.5 105.5t262.5 -105.5t85.5 -283.5t-85.5 -283.5t-262.5 -105.5zM266 1065q0 -112 37.5 -168.5t126.5 -56.5t126.5 56.5t37.5 168.5t-37.5 168.5t-126.5 56.5t-126.5 -56.5t-37.5 -168.5zM1393 1270l-820 -1250
l-20 -20h-82l-20 20v144l819 1249l20 21h82l21 -21v-143zM1413 -20q-177 0 -262.5 105.5t-85.5 283.5t85.5 283.5t262.5 105.5t262.5 -105.5t85.5 -283.5t-85.5 -283.5t-262.5 -105.5zM1249 369q0 -113 37.5 -169.5t126.5 -56.5t126.5 56.5t37.5 169.5q0 112 -37.5 168.5
t-126.5 56.5t-126.5 -56.5t-37.5 -168.5z" />
    <glyph glyph-name="ampersand" unicode="&#x26;" horiz-adv-x="1536" 
d="M1413 20l-20 -20h-82l-41 20l-123 123h-21q-100 -83 -206 -123t-265 -40q-238 0 -364.5 119t-126.5 311q0 82 21 146.5t62 112.5t89 82t115 68v21q-56 56 -89.5 122.5t-33.5 163.5q0 57 21 112t62.5 105t115.5 80.5t169 30.5t165.5 -27t109 -73.5t56 -98t17.5 -108.5
q0 -226 -245 -348v-21l307 -307h20q42 57 52 121.5t10 206.5l20 20h164l21 -20q0 -79 -2 -120t-13 -104.5t-37.5 -122t-70.5 -124.5v-21l143 -143v-144zM840 1126q0 144 -144 144q-84 0 -124 -44.5t-40 -99.5q0 -39 16 -73.5t36 -57t71 -73.5h21q164 82 164 204zM983 287v20
l-389 389h-21q-118 -59 -161 -124t-43 -162q0 -119 79 -182.5t207 -63.5q205 0 328 123z" />
    <glyph glyph-name="quotesingle" unicode="'" horiz-adv-x="532" 
d="M369 819l-21 -20h-164l-20 20v594l20 21h164l21 -21v-594z" />
    <glyph glyph-name="parenleft" unicode="(" horiz-adv-x="860" 
d="M696 -389l-20 -21h-41l-41 21q-126 126 -176.5 177.5t-114.5 133t-80 118t-36.5 120t-21.5 151.5t-1 201t1 201t21.5 151.5t36.5 120t80 118t114.5 133t176.5 177.5l41 21h41l20 -21v-143l-84.5 -84.5t-67 -70.5t-55.5 -63t-40 -57.5t-32 -58t-20.5 -60t-15.5 -69
t-7 -80.5t-5 -98v-117v-117t5 -98t7 -80.5t15.5 -69t20.5 -60t32 -58t40 -57.5t55.5 -63t67 -70.5l84.5 -84.5v-143z" />
    <glyph glyph-name="parenright" unicode=")" horiz-adv-x="860" 
d="M184 -410l-20 21v143q94 94 132.5 133.5t87.5 103.5t61 96.5t28.5 104.5t17.5 136.5t1 183.5t-1 183.5t-17.5 136.5t-28.5 104.5t-61 96.5t-87.5 103.5t-132.5 133.5v143l20 21h41l41 -21q126 -126 176.5 -177.5t114.5 -133t80 -118t36.5 -120t21.5 -151.5t1 -201
t-1 -201t-21.5 -151.5t-36.5 -120t-80 -118t-114.5 -133t-176.5 -177.5l-41 -21h-41z" />
    <glyph glyph-name="asterisk" unicode="*" horiz-adv-x="1208" 
d="M614 553h-20l-21 20v328h-20l-225 -225h-21l-20 20v21l225 225v21h-328l-20 20v21l20 20h328v20l-225 226v20l20 21h21l225 -226h20v328l21 21h20l21 -21v-328h20l226 226h20l21 -21v-20l-226 -226v-20h328l20 -20v-21l-20 -20h-328v-21l226 -225v-21l-21 -20h-20
l-226 225h-20v-328z" />
    <glyph glyph-name="plus" unicode="+" horiz-adv-x="1208" 
d="M1085 451l-20 -21h-348l-21 -20v-349l-20 -20h-144l-20 20v349l-20 20h-349l-20 21v143l20 20h349l20 21v348l20 21h144l20 -21v-348l21 -21h348l20 -20v-143z" />
    <glyph glyph-name="comma" unicode="," horiz-adv-x="573" 
d="M410 0l-21 -61l-123 -164l-41 -21h-82v21l123 184v21l-20 20h-62l-20 20v205l20 21h205l21 -21v-225z" />
    <glyph glyph-name="hyphen" unicode="-" horiz-adv-x="839" 
d="M717 451l-21 -21h-553l-20 21v143l20 20h553l21 -20v-143z" />
    <glyph glyph-name="period" unicode="." horiz-adv-x="573" 
d="M410 20l-21 -20h-205l-20 20v205l20 21h205l21 -21v-205z" />
    <glyph glyph-name="slash" unicode="/" horiz-adv-x="1044" 
d="M963 1270l-738 -1250l-20 -20h-103l-20 20v144l737 1249l21 21h102l21 -21v-143z" />
    <glyph glyph-name="zero" unicode="0" 
d="M82 717q0 162 26 288.5t71.5 210t111 138t140 77.5t163.5 23t163.5 -23t140 -77.5t111 -138t71.5 -210t26 -288.5t-26 -288.5t-71.5 -210t-111 -138t-140 -77.5t-163.5 -23t-163.5 23t-140 77.5t-111 138t-71.5 210t-26 288.5zM287 717q0 -150 21.5 -258.5t63 -172
t96.5 -93t126 -29.5t126 29.5t96.5 93t63 172t21.5 258.5t-21.5 258.5t-63 172t-96.5 93t-126 29.5t-126 -29.5t-96.5 -93t-63 -172t-21.5 -258.5z" />
    <glyph glyph-name="one" unicode="1" horiz-adv-x="778" 
d="M594 0h-164l-20 20v1147h-21l-246 -245h-41l-20 20v164l307 307l41 21h164l20 -21v-1393z" />
    <glyph glyph-name="two" unicode="2" horiz-adv-x="1126" 
d="M1044 20l-20 -20h-922l-20 20v164l20 41l410 328q109 87 167.5 150.5t89 136.5t30.5 164q0 118 -58.5 192t-187.5 74q-134 0 -200 -69.5t-66 -196.5l-21 -21h-164l-20 21q0 205 123 327.5t348 122.5q95 0 172.5 -25t128.5 -67t85.5 -98.5t49.5 -116t15 -123.5
q0 -97 -21.5 -177t-67 -149t-100.5 -124.5t-139 -122.5l-307 -246v-21h655l20 -20v-144z" />
    <glyph glyph-name="three" unicode="3" horiz-adv-x="1126" 
d="M1044 471q0 -228 -139.5 -359.5t-372.5 -131.5q-210 0 -340.5 118t-130.5 291l21 21h164l20 -21q0 -40 16 -78.5t47.5 -72t84 -54t118.5 -20.5q150 0 229 82.5t79 224.5q0 137 -71.5 212t-195.5 75q-45 0 -86 -15.5t-59 -30.5l-18 -16h-62l-20 21v143l389 369v20h-574
l-20 21v143l20 21h799l21 -21v-164l-21 -41l-307 -286v-21q52 6 106 -3.5t109 -40t97.5 -79t69.5 -128t27 -179.5z" />
    <glyph glyph-name="four" unicode="4" horiz-adv-x="1126" 
d="M963 20l-21 -20h-164l-20 20v369l-21 21h-676l-20 20v164l20 41l656 778l41 21h184l21 -21v-1393zM758 614v553h-21l-471 -553v-20h471z" />
    <glyph glyph-name="five" unicode="5" 
d="M1085 512q0 -270 -127 -401t-364 -131q-222 0 -338.5 108.5t-132.5 300.5l20 21h164l21 -21q9 -53 22 -88.5t41 -69t78.5 -50.5t124.5 -17q287 0 287 328q0 148 -60.5 227.5t-206.5 79.5q-57 0 -105.5 -17t-77 -41t-48.5 -48t-27 -41l-8 -17l-41 -21l-143 21l-21 20
l41 758l21 21h799l20 -21v-143l-20 -21h-615l-20 -20l-21 -369h21q3 5 10 13.5t32 29.5t55 37t81 29.5t108 13.5q111 0 196 -38.5t135 -105.5t74.5 -149.5t24.5 -177.5z" />
    <glyph glyph-name="six" unicode="6" horiz-adv-x="1167" 
d="M102 696q0 169 24.5 298.5t68.5 216t111 141.5t147.5 78.5t181.5 23.5q187 0 301 -90.5t129 -257.5l-21 -21h-163l-21 21q-15 89 -74.5 126.5t-171.5 37.5q-59 0 -106 -19.5t-76.5 -47t-50.5 -71.5t-31 -79t-15.5 -84.5t-6 -72t-0.5 -56.5h20q3 4 10 11t32 24.5t55 31
t81.5 24.5t108.5 11q213 0 331.5 -126.5t118.5 -344.5q0 -229 -127 -360t-344 -131q-96 0 -171.5 21t-141 72t-108.5 132t-67 204.5t-24 286.5zM881 451q0 148 -60.5 227.5t-206.5 79.5q-138 0 -212 -74.5t-74 -212.5q0 -147 76 -227t190 -80q138 0 212.5 74.5t74.5 212.5z
" />
    <glyph glyph-name="seven" unicode="7" horiz-adv-x="1044" 
d="M983 1249l-594 -1229l-20 -20h-103l-20 20v164l512 1045v20h-656l-20 21v143l20 21h861l20 -21v-164z" />
    <glyph glyph-name="eight" unicode="8" horiz-adv-x="1146" 
d="M1065 410q0 -86 -31.5 -162.5t-91 -136.5t-155 -95.5t-214.5 -35.5t-214.5 35.5t-155 95.5t-90.5 136.5t-31 162.5q0 73 20 134t52.5 102.5t65 67.5t67.5 44v20q-164 110 -164 287q0 79 28 148t81.5 123.5t141.5 86t199 31.5t199 -31.5t142 -86t82 -123.5t28 -148
q0 -177 -164 -287v-20q35 -18 67.5 -44t65 -67.5t52.5 -102.5t20 -134zM819 1065q0 87 -59 146t-187 59t-186.5 -59t-58.5 -146q0 -97 63.5 -161t181.5 -64t182 64t64 161zM860 410q0 116 -71 191t-216 75t-215.5 -74.5t-70.5 -191.5q0 -103 71.5 -174.5t214.5 -71.5t215 72
t72 174z" />
    <glyph glyph-name="nine" unicode="9" horiz-adv-x="1167" 
d="M1065 758q0 -213 -34 -363t-102.5 -241t-165.5 -132.5t-231 -41.5q-172 0 -283 91t-126 257l20 20h164l21 -20q14 -88 71 -126t154 -38q59 0 106 19.5t76.5 47t51 72.5t31.5 81t15.5 88t6 77.5t0.5 64.5h-21q-3 -4 -10 -11t-32 -24.5t-55 -31t-81.5 -24.5t-108.5 -11
q-201 0 -325.5 128.5t-124.5 342.5q0 223 132 347t339 124q128 0 219.5 -34.5t159 -113.5t100.5 -215t33 -333zM287 983q0 -137 71 -212t195 -75q138 0 212.5 74.5t74.5 212.5q0 147 -78 217t-209 70q-124 0 -195 -75t-71 -212z" />
    <glyph glyph-name="colon" unicode=":" horiz-adv-x="573" 
d="M410 799l-21 -21h-205l-20 21v205l20 20h205l21 -20v-205zM410 20l-21 -20h-205l-20 20v205l20 21h205l21 -21v-205z" />
    <glyph glyph-name="semicolon" unicode=";" horiz-adv-x="573" 
d="M410 799l-21 -21h-205l-20 21v205l20 20h205l21 -20v-205zM410 0l-21 -61l-123 -164l-41 -21h-82v21l123 184v21l-20 20h-62l-20 20v205l20 21h205l21 -21v-225z" />
    <glyph glyph-name="less" unicode="&#x3c;" 
d="M143 573l21 41l799 410h41l20 -20v-123l-20 -41l-635 -308v-40l635 -308l20 -41v-123l-20 -20h-41l-799 410l-21 41v122z" />
    <glyph glyph-name="equal" unicode="=" horiz-adv-x="1228" 
d="M1065 635l-21 -21h-860l-20 21v143l20 21h860l21 -21v-143zM1065 246l-21 -21h-860l-20 21v143l20 21h860l21 -21v-143z" />
    <glyph glyph-name="greater" unicode="&#x3e;" 
d="M1024 614l20 -41v-122l-20 -41l-799 -410h-41l-20 20v123l20 41l635 308v40l-635 308l-20 41v123l20 20h41z" />
    <glyph glyph-name="question" unicode="?" horiz-adv-x="1228" 
d="M1065 1065q0 -74 -13.5 -131t-44.5 -103.5t-62 -78t-85 -76.5q-53 -44 -78.5 -68.5t-48.5 -56t-30 -63.5t-7 -78l-20 -21h-164l-20 21q0 122 35 196.5t128 151.5q103 86 134 121q71 80 71 186q0 87 -59 146t-187 59q-132 0 -188.5 -68t-56.5 -198l-21 -21h-164l-20 21
q0 207 113.5 328.5t336.5 121.5q203 0 327 -103.5t124 -285.5zM717 20l-21 -20h-204l-21 20v205l21 21h204l21 -21v-205z" />
    <glyph glyph-name="at" unicode="@" horiz-adv-x="1884" 
d="M942 778q-99 0 -152 -60t-53 -206t53 -206t152 -60q96 0 140 58.5t44 207.5t-44 207.5t-140 58.5zM1126 881v41l21 20h164l20 -20v-594q0 -71 26 -97t77 -26q73 0 97.5 71t24.5 236q0 107 -22 202t-70.5 178.5t-119 144t-173.5 95.5t-229 35q-149 0 -268 -53
t-193.5 -144.5t-113.5 -208t-39 -249.5q0 -112 24 -210t74 -180t122.5 -141t173 -91.5t220.5 -32.5q101 0 189.5 24t138.5 58h41l20 -21v-143q-63 -47 -166 -75t-223 -28q-242 0 -429 107t-288.5 298t-101.5 435t101.5 435t288.5 298t429 107t429 -107t288.5 -298
t101.5 -435q0 -237 -93.5 -354t-254.5 -117q-84 0 -136 33.5t-89 89.5h-21q-30 -30 -51 -47t-74.5 -36.5t-119.5 -19.5q-79 0 -148 28t-123.5 82t-86.5 142t-32 199t31.5 199.5t84.5 142t117.5 81.5t135.5 28q40 0 76 -8.5t58.5 -20.5t39.5 -24t24 -20l7 -9h20z" />
    <glyph glyph-name="A" unicode="A" horiz-adv-x="1290" 
d="M1249 20l-20 -20h-123l-21 20l-122 308l-41 20h-553l-41 -20l-123 -308l-21 -20h-123l-20 20v144l491 1249l21 21h184l21 -21l491 -1249v-144zM881 553l-226 573h-20l-225 -573l20 -21h430z" />
    <glyph glyph-name="B" unicode="B" horiz-adv-x="1310" 
d="M1229 410q0 -111 -35 -193t-96.5 -128t-135.5 -67.5t-163 -21.5h-615l-20 20v1393l20 21h574q88 0 162.5 -21t136 -65.5t96.5 -122t35 -181.5q0 -103 -51.5 -178.5t-132.5 -107.5v-21q100 -33 162.5 -115t62.5 -212zM983 1044q0 119 -61 162t-205 43h-328l-20 -20v-369
l20 -20h348q130 0 188 43t58 161zM1024 410q0 136 -65.5 190.5t-221.5 54.5h-348l-20 -20v-430l20 -21h389q126 0 186 53t60 173z" />
    <glyph glyph-name="C" unicode="C" horiz-adv-x="1413" 
d="M758 -20q-211 0 -365 95t-232.5 260.5t-78.5 381.5t78.5 381.5t232.5 260.5t365 95q239 0 390 -119.5t183 -310.5l-20 -20h-164l-21 20q-32 112 -126 179t-242 67q-225 0 -348 -150.5t-123 -402.5t123 -402.5t348 -150.5q292 0 368 266l21 21h164l20 -21
q-16 -95 -58.5 -174.5t-112 -142t-172.5 -98t-230 -35.5z" />
    <glyph glyph-name="D" unicode="D" horiz-adv-x="1372" 
d="M1290 717q0 -133 -21 -240t-70 -197.5t-126 -151t-192.5 -94.5t-266.5 -34h-430l-20 20v1393l20 21h430q151 0 266.5 -34t192.5 -94.5t126 -151t70 -197.5t21 -240zM1085 717q0 137 -22.5 231t-77 164.5t-151 103.5t-240.5 33h-205l-20 -20v-1024l20 -21h205
q116 0 200.5 22.5t140.5 64.5t89.5 109t47 147.5t13.5 189.5z" />
    <glyph glyph-name="E" unicode="E" horiz-adv-x="1249" 
d="M1126 20l-20 -20h-922l-20 20v1393l20 21h922l20 -21v-143l-20 -21h-717l-20 -20v-389l20 -21h676l20 -20v-144l-20 -20h-676l-20 -21v-409l20 -21h717l20 -20v-144z" />
    <glyph glyph-name="F" unicode="F" horiz-adv-x="1167" 
d="M1085 1270l-20 -21h-676l-20 -20v-410l20 -20h635l20 -21v-143l-20 -21h-635l-20 -20v-574l-21 -20h-164l-20 20v1393l20 21h881l20 -21v-143z" />
    <glyph glyph-name="G" unicode="G" horiz-adv-x="1474" 
d="M758 1270q-225 0 -348 -150.5t-123 -402.5q0 -251 119 -402t331 -151q111 0 193 31.5t128 87t67.5 122.5t21.5 148l-21 20h-409l-21 21v143l21 21h614l21 -21v-717l-21 -20h-123l-20 20l-21 123h-20q-163 -163 -410 -163q-201 0 -350.5 94.5t-227 261t-77.5 381.5
q0 216 78.5 381.5t232.5 260.5t365 95q113 0 207 -25.5t158.5 -66.5t113 -98t75.5 -116t40 -124l-21 -20h-164l-20 20q-32 113 -129.5 179.5t-259.5 66.5z" />
    <glyph glyph-name="H" unicode="H" horiz-adv-x="1454" 
d="M1290 20l-20 -20h-164l-21 20v594l-20 21h-676l-20 -21v-594l-21 -20h-164l-20 20v1393l20 21h164l21 -21v-573l20 -21h676l20 21v573l21 21h164l20 -21v-1393z" />
    <glyph glyph-name="I" unicode="I" horiz-adv-x="532" 
d="M369 20l-21 -20h-164l-20 20v1393l20 21h164l21 -21v-1393z" />
    <glyph glyph-name="J" unicode="J" horiz-adv-x="1044" 
d="M881 389q0 -87 -24.5 -159.5t-74.5 -129t-134.5 -88.5t-196.5 -32q-99 0 -175.5 27.5t-119.5 68t-70.5 95.5t-36 102t-8.5 96v41l20 20h164l21 -20v-41q0 -205 205 -205q111 0 168 53t57 172v1024l20 21h164l21 -21v-1024z" />
    <glyph glyph-name="K" unicode="K" horiz-adv-x="1269" 
d="M1229 20l-21 -20h-82l-41 20l-491 635h-21l-184 -184l-20 -41v-410l-21 -20h-164l-20 20v1393l20 21h164l21 -21v-676h20l676 676l41 21h61l21 -21v-143l-451 -451v-20l492 -635v-144z" />
    <glyph glyph-name="L" unicode="L" horiz-adv-x="1105" 
d="M1085 20l-20 -20h-881l-20 20v1393l20 21h164l21 -21v-1208l20 -21h676l20 -20v-144z" />
    <glyph glyph-name="M" unicode="M" horiz-adv-x="1822" 
d="M1659 20l-21 -20h-163l-21 20v984h-20l-410 -984l-20 -20h-185l-20 20l-410 984h-20v-984l-21 -20h-164l-20 20v1393l20 21h226l20 -21l471 -1147h21l471 1147l20 21h225l21 -21v-1393z" />
    <glyph glyph-name="N" unicode="N" horiz-adv-x="1495" 
d="M1331 20l-20 -20h-185l-41 20l-696 1065h-20v-1065l-21 -20h-164l-20 20v1393l20 21h185l41 -21l696 -1065h20v1065l21 21h164l20 -21v-1393z" />
    <glyph glyph-name="O" unicode="O" horiz-adv-x="1515" 
d="M82 717q0 216 78.5 381.5t232.5 260.5t365 95t365 -95t232.5 -260.5t78.5 -381.5t-78.5 -381.5t-232.5 -260.5t-365 -95t-365 95t-232.5 260.5t-78.5 381.5zM287 717q0 -252 123 -402.5t348 -150.5t348 150.5t123 402.5t-123 402.5t-348 150.5t-348 -150.5t-123 -402.5z
" />
    <glyph glyph-name="P" unicode="P" horiz-adv-x="1331" 
d="M1290 1024q0 -105 -36 -185t-100.5 -128.5t-148.5 -72.5t-186 -24h-430l-20 -20v-574l-21 -20h-164l-20 20v1393l20 21h635q223 0 347 -100.5t124 -309.5zM1085 1024q0 121 -63 173t-203 52h-430l-20 -20v-410l20 -20h430q140 0 203 52t63 173z" />
    <glyph glyph-name="Q" unicode="Q" horiz-adv-x="1515" 
d="M758 -20q-211 0 -365 95t-232.5 260.5t-78.5 381.5t78.5 381.5t232.5 260.5t365 95t365 -95t232.5 -260.5t78.5 -381.5q0 -162 -29 -268t-94 -203v-21l61 -61v-144l-20 -20h-103l-82 82h-20q-78 -47 -181 -74.5t-208 -27.5zM758 164q155 0 246 61v21l-144 143l-41 21
h-164l-20 20v123l20 20h287l41 -20l164 -164h20q62 124 62 328q0 252 -123 402.5t-348 150.5t-348 -150.5t-123 -402.5t123 -402.5t348 -150.5z" />
    <glyph glyph-name="R" unicode="R" horiz-adv-x="1372" 
d="M1085 1024q0 121 -63 173t-203 52h-430l-20 -20v-410l20 -20h430q140 0 203 52t63 173zM1290 1024q0 -163 -81.5 -260t-225.5 -129v-21l287 -450v-144l-21 -20h-82l-41 20l-368 574l-41 20h-328l-20 -20v-574l-21 -20h-164l-20 20v1393l20 21h635q223 0 347 -100.5
t124 -309.5z" />
    <glyph glyph-name="S" unicode="S" horiz-adv-x="1290" 
d="M1208 389q0 -87 -32.5 -159.5t-97.5 -129t-173 -88.5t-250 -32q-266 0 -419.5 122.5t-153.5 348.5l20 20h164l21 -20q0 -149 99 -218t290 -69q149 0 238.5 54.5t89.5 170.5q0 55 -16 94.5t-44.5 66.5t-82 47t-113.5 32.5t-154 25.5q-471 67 -471 410q0 72 29 139
t87.5 124t160.5 91.5t235 34.5q118 0 213 -24.5t167.5 -75t112 -134.5t39.5 -196l-20 -20h-164l-20 20q0 128 -78 187t-271 59q-136 0 -211 -55.5t-75 -149.5q0 -118 81.5 -166t307.5 -80q91 -13 162 -33t134.5 -53.5t105 -79.5t65.5 -113t24 -151z" />
    <glyph glyph-name="T" unicode="T" horiz-adv-x="1228" 
d="M1188 1270l-21 -21h-430l-20 -20v-1209l-21 -20h-164l-20 20v1209l-20 20h-431l-20 21v143l20 21h1106l21 -21v-143z" />
    <glyph glyph-name="U" unicode="U" horiz-adv-x="1433" 
d="M1270 1413v-901q0 -247 -146.5 -389.5t-406.5 -142.5t-406.5 142.5t-146.5 389.5v901l20 21h164l21 -21v-901q0 -162 85.5 -255t262.5 -93t262.5 93t85.5 255v901l20 21h164z" />
    <glyph glyph-name="V" unicode="V" horiz-adv-x="1290" 
d="M1229 1270l-471 -1250l-21 -20h-184l-21 20l-471 1250v143l21 21h123l20 -21l410 -1126h20l410 1126l20 21h123l21 -21v-143z" />
    <glyph glyph-name="W" unicode="W" horiz-adv-x="1904" 
d="M1823 1270l-328 -1250l-20 -20h-185l-20 20l-307 1086h-21l-307 -1086l-21 -20h-184l-20 20l-328 1250v143l20 21h123l21 -21l266 -1044h20l308 1044l20 21h184l21 -21l307 -1044h21l266 1044l20 21h123l21 -21v-143z" />
    <glyph glyph-name="X" unicode="X" horiz-adv-x="1331" 
d="M1249 20l-20 -20h-82l-41 20l-430 574h-21l-430 -574l-41 -20h-82l-20 20v144l450 573v21l-430 512v143l21 21h82l41 -21l409 -512h21l409 512l41 21h82l21 -21v-143l-430 -512v-21l450 -573v-144z" />
    <glyph glyph-name="Y" unicode="Y" 
d="M1126 1270l-430 -697v-553l-20 -20h-164l-20 20v553l-431 697v143l21 21h82l41 -21l368 -614h41l369 614l41 21h82l20 -21v-143z" />
    <glyph glyph-name="Z" unicode="Z" horiz-adv-x="1228" 
d="M1126 20l-20 -20h-983l-21 20v164l21 41l717 1004v20h-697l-20 21v143l20 21h922l20 -21v-164l-20 -41l-717 -1003v-21h758l20 -20v-144z" />
    <glyph glyph-name="bracketleft" unicode="[" horiz-adv-x="757" 
d="M594 -389l-21 -21h-389l-20 21v1802l20 21h389l21 -21v-143l-21 -21h-184l-20 -20v-1434l20 -20h184l21 -21v-143z" />
    <glyph glyph-name="backslash" unicode="\" horiz-adv-x="1044" 
d="M819 20l-737 1250v143l20 21h103l20 -21l738 -1249v-144l-21 -20h-102z" />
    <glyph glyph-name="bracketright" unicode="]" horiz-adv-x="757" 
d="M184 -410l-20 21v143l20 21h185l20 20v1434l-20 20h-185l-20 21v143l20 21h389l21 -21v-1802l-21 -21h-389z" />
    <glyph glyph-name="asciicircum" unicode="^" 
d="M1044 492l-20 -21h-82l-41 21l-287 675h-41l-286 -675l-41 -21h-82l-21 21v143l349 778l20 21h164l20 -21l348 -778v-143z" />
    <glyph glyph-name="underscore" unicode="_" 
d="M1106 -164l-21 -20h-983l-20 20v144l20 20h983l21 -20v-144z" />
    <glyph glyph-name="grave" unicode="`" horiz-adv-x="1024" 
d="M594 1167l-21 -20h-102l-41 20l-225 205v41l20 21h144l41 -21l184 -205v-41z" />
    <glyph glyph-name="a" unicode="a" horiz-adv-x="1024" 
d="M922 20l-21 -20h-143l-21 20l-20 82h-21q-3 -5 -10 -13t-32 -29t-55 -37.5t-81 -29.5t-108 -13q-168 0 -258.5 86t-90.5 241q0 163 121.5 245.5t329.5 82.5q45 0 91 -5.5t69 -10.5l24 -5l21 21v41q0 104 -47 144t-158 40q-106 0 -155.5 -30.5t-49.5 -92.5l-20 -20h-164
l-21 20q0 57 21.5 109t67.5 97.5t128.5 73t192.5 27.5q225 0 317.5 -107t92.5 -343v-574zM717 369v61l-21 21q-62 20 -164 20q-266 0 -266 -164q0 -75 45.5 -109t139.5 -34q122 0 194 56t72 149z" />
    <glyph glyph-name="b" unicode="b" horiz-adv-x="1126" 
d="M1065 512q0 -231 -126.5 -381.5t-324.5 -150.5q-52 0 -98 12.5t-75.5 30.5t-51.5 36t-31 31l-10 12h-20l-21 -82l-20 -20h-144l-20 20v1393l20 21h164l21 -21v-491h20q3 5 10 13t31 29t52 37.5t74.5 29.5t98.5 13q202 0 326.5 -144.5t124.5 -387.5zM860 512
q0 167 -71 257.5t-195 90.5q-266 0 -266 -348t266 -348q124 0 195 90.5t71 257.5z" />
    <glyph glyph-name="c" unicode="c" horiz-adv-x="1064" 
d="M266 512q0 -168 74.5 -258t212.5 -90q206 0 246 164l20 20h164l21 -20q-8 -71 -39.5 -132.5t-85.5 -110.5t-138 -77t-188 -28q-230 0 -361 142.5t-131 389.5t131 389.5t361 142.5q104 0 188 -28t138 -77t85.5 -110.5t39.5 -132.5l-21 -20h-164l-20 20q-40 164 -246 164
q-138 0 -212.5 -90t-74.5 -258z" />
    <glyph glyph-name="d" unicode="d" horiz-adv-x="1126" 
d="M1004 20l-21 -20h-143l-21 20l-20 82h-21q-3 -5 -10 -13t-31 -29t-52 -37.5t-74.5 -29.5t-98.5 -13q-140 0 -243.5 69.5t-155.5 189t-52 273.5t52 273.5t155.5 189t243.5 69.5q52 0 98 -12.5t75.5 -30.5t51.5 -36t31 -31l10 -12h21v491l20 21h164l21 -21v-1393zM799 512
q0 348 -267 348q-124 0 -195 -90.5t-71 -257.5t71 -257.5t195 -90.5q267 0 267 348z" />
    <glyph glyph-name="e" unicode="e" horiz-adv-x="1064" 
d="M758 594l20 20q0 24 -3.5 49.5t-18.5 63t-40 65t-72.5 48t-111.5 20.5t-111.5 -20.5t-72 -48t-39.5 -65t-18.5 -63t-3.5 -49.5l20 -20h451zM553 -20q-238 0 -365 146.5t-127 385.5q0 110 28 204.5t84 168.5t148 116.5t211 42.5t211.5 -42.5t148 -116.5t84 -168.5
t28.5 -204.5v-61l-21 -21h-676l-20 -20q0 -14 3 -32.5t11 -49t27 -57.5t46.5 -52t74 -40t104.5 -15q156 0 205 123l20 20h164l21 -20q-16 -130 -125 -218.5t-285 -88.5z" />
    <glyph glyph-name="f" unicode="f" horiz-adv-x="757" 
d="M696 860l-20 -20h-205l-20 -21v-799l-21 -20h-164l-20 20v799l-21 21h-143l-21 20v144l21 20h143l21 20v82q0 88 42.5 150t105.5 89.5t138 27.5h164l21 -21v-143l-21 -21h-164q-35 0 -58 -20t-23 -62v-82l20 -20h205l20 -20v-144z" />
    <glyph glyph-name="g" unicode="g" horiz-adv-x="1126" 
d="M532 -246q267 0 267 348h-21q-3 -5 -10 -13t-31 -29t-52 -37.5t-74.5 -29.5t-98.5 -13q-140 0 -243.5 69.5t-155.5 189t-52 273.5t52 273.5t155.5 189t243.5 69.5q52 0 98 -12.5t75.5 -30.5t51.5 -36t31 -31l10 -12h21l20 82l21 20h143l21 -20v-881q0 -119 -25.5 -214.5
t-69.5 -158t-105 -103.5t-128.5 -59t-143.5 -18q-179 0 -286 79.5t-123 207.5l20 20h164l21 -20q30 -59 76.5 -81t127.5 -22zM799 512q0 348 -267 348q-124 0 -195 -90.5t-71 -257.5t71 -257.5t195 -90.5q267 0 267 348z" />
    <glyph glyph-name="h" unicode="h" horiz-adv-x="1126" 
d="M1004 20l-21 -20h-164l-20 20v594q0 246 -205 246q-130 0 -198 -75.5t-68 -252.5v-512l-21 -20h-164l-20 20v1393l20 21h164l21 -21v-491h20q3 5 10 13t31 29t52 37.5t74.5 29.5t98.5 13q89 0 158 -23.5t112 -62.5t70.5 -95.5t38.5 -117t11 -131.5v-594z" />
    <glyph glyph-name="i" unicode="i" horiz-adv-x="450" 
d="M328 1208l-21 -20h-164l-20 20v164l20 21h164l21 -21v-164zM328 20l-21 -20h-164l-20 20v984l20 20h164l21 -20v-984z" />
    <glyph glyph-name="j" unicode="j" horiz-adv-x="450" 
d="M328 1208l-21 -20h-164l-20 20v164l20 21h164l21 -21v-164zM328 1004v-1106q0 -66 -24.5 -118.5t-65.5 -84t-91.5 -48t-105.5 -16.5h-102l-21 21v143l21 21h102q35 0 58.5 20t23.5 62v1106l20 20h164z" />
    <glyph glyph-name="k" unicode="k" horiz-adv-x="1024" 
d="M963 20l-21 -20h-82l-41 20l-307 390h-20l-144 -144l-20 -41v-205l-21 -20h-164l-20 20v1393l20 21h164l21 -21v-881h20l471 472l41 20h62l20 -20v-144l-287 -287v-20l308 -389v-144z" />
    <glyph glyph-name="l" unicode="l" horiz-adv-x="450" 
d="M328 20l-21 -20h-164l-20 20v1393l20 21h164l21 -21v-1393z" />
    <glyph glyph-name="m" unicode="m" horiz-adv-x="1658" 
d="M1556 20l-20 -20h-164l-20 20v615q0 52 -6 88t-24.5 69.5t-57 50.5t-97.5 17q-106 0 -165.5 -71t-59.5 -195v-574l-20 -20h-164l-21 20v615q0 53 -6 88.5t-24 69t-56.5 50.5t-97.5 17q-41 0 -78.5 -13.5t-71.5 -42t-54.5 -83t-20.5 -127.5v-574l-21 -20h-164l-20 20v984
l20 20h144l20 -20l21 -82h20q82 122 266 122q58 0 104 -12.5t77 -37t48.5 -44t37.5 -49.5h20q49 65 127 104t180 39q84 0 146.5 -21.5t100.5 -57t61 -89.5t31.5 -111.5t8.5 -129.5v-615z" />
    <glyph glyph-name="n" unicode="n" horiz-adv-x="1105" 
d="M1004 20l-21 -20h-164l-20 20v594q0 36 -3.5 65.5t-16 64.5t-33.5 59t-60 40.5t-92 16.5q-139 0 -202.5 -82.5t-63.5 -265.5v-492l-21 -20h-164l-20 20v984l20 20h144l20 -20l21 -82h20q3 5 10 13t31 29t52 37.5t74.5 29.5t98.5 13q105 0 181.5 -32t121.5 -91t66 -135
t21 -172v-594z" />
    <glyph glyph-name="o" unicode="o" horiz-adv-x="1105" 
d="M61 512q0 247 131 389.5t361 142.5q229 0 360 -142.5t131 -389.5t-131 -389.5t-360 -142.5q-230 0 -361 142.5t-131 389.5zM266 512q0 -168 74.5 -258t212.5 -90t212.5 90t74.5 258t-74.5 258t-212.5 90t-212.5 -90t-74.5 -258z" />
    <glyph glyph-name="p" unicode="p" horiz-adv-x="1126" 
d="M1065 512q0 -154 -52 -273.5t-155.5 -189t-243.5 -69.5q-52 0 -98 12.5t-75.5 30.5t-51.5 36t-31 31l-10 12h-20v-491l-21 -21h-164l-20 21v1393l20 20h144l20 -20l21 -82h20q3 5 10 13t31 29t52 37.5t74.5 29.5t98.5 13q140 0 243.5 -69.5t155.5 -189t52 -273.5z
M860 512q0 167 -71 257.5t-195 90.5q-266 0 -266 -348t266 -348q124 0 195 90.5t71 257.5z" />
    <glyph glyph-name="q" unicode="q" horiz-adv-x="1126" 
d="M1004 -389l-21 -21h-164l-20 21v491h-21q-3 -5 -10 -13t-31 -29t-52 -37.5t-74.5 -29.5t-98.5 -13q-140 0 -243.5 69.5t-155.5 189t-52 273.5t52 273.5t155.5 189t243.5 69.5q52 0 98 -12.5t75.5 -30.5t51.5 -36t31 -31l10 -12h21l20 82l21 20h143l21 -20v-1393zM799 512
q0 348 -267 348q-124 0 -195 -90.5t-71 -257.5t71 -257.5t195 -90.5q267 0 267 348z" />
    <glyph glyph-name="r" unicode="r" horiz-adv-x="757" 
d="M717 860l-21 -20h-102q-65 0 -111.5 -14t-82.5 -47.5t-54 -95t-18 -151.5v-512l-21 -20h-164l-20 20v984l20 20h144l20 -20l21 -82h20q52 52 109.5 77t156.5 25h82l21 -20v-144z" />
    <glyph glyph-name="s" unicode="s" horiz-adv-x="942" 
d="M881 287q0 -63 -24.5 -117.5t-72.5 -97.5t-128.5 -67.5t-184.5 -24.5q-199 0 -304.5 89.5t-105.5 258.5l21 20h164l20 -20q0 -164 205 -164q106 0 155.5 30.5t49.5 92.5q0 31 -9 52.5t-25 37t-51 28.5t-73.5 22.5t-107.5 23.5q-163 33 -245.5 104t-82.5 203
q0 56 21 105.5t65 91t122 65.5t181 24q175 0 282 -79t107 -228l-20 -20h-164l-21 20q0 53 -42.5 88t-141.5 35q-86 0 -135 -22.5t-49 -79.5q0 -31 11.5 -53t29 -37t57.5 -28.5t78 -22.5t110 -23q159 -32 233.5 -102.5t74.5 -204.5z" />
    <glyph glyph-name="t" unicode="t" horiz-adv-x="778" 
d="M696 20l-20 -20h-164q-118 0 -202.5 68.5t-84.5 197.5v553l-20 21h-144l-20 20v144l20 20h144l20 20v185l21 20h164l20 -20v-185l21 -20h225l20 -20v-144l-20 -20h-225l-21 -21v-553q0 -42 23.5 -62t58.5 -20h164l20 -20v-144z" />
    <glyph glyph-name="u" unicode="u" horiz-adv-x="1085" 
d="M963 20l-21 -20h-143l-21 20l-20 82h-21q-3 -5 -9.5 -13t-29.5 -29t-49 -37.5t-68.5 -29.5t-88.5 -13q-104 0 -181.5 35t-122 96.5t-65.5 136t-21 162.5v594l21 20h164l20 -20v-594q0 -246 205 -246q113 0 179.5 85.5t66.5 262.5v492l20 20h164l21 -20v-984z" />
    <glyph glyph-name="v" unicode="v" horiz-adv-x="1044" 
d="M983 860l-348 -840l-21 -20h-184l-20 20l-349 840v144l21 20h123l20 -20l287 -717h20l287 717l21 20h123l20 -20v-144z" />
    <glyph glyph-name="w" unicode="w" horiz-adv-x="1536" 
d="M1454 860l-246 -840l-20 -20h-184l-21 20l-205 717h-20l-205 -717l-21 -20h-184l-20 20l-246 840v144l20 20h123l21 -20l184 -697h21l204 697l21 20h184l21 -20l204 -697h21l184 697l21 20h123l20 -20v-144z" />
    <glyph glyph-name="x" unicode="x" horiz-adv-x="1003" 
d="M942 20l-20 -20h-62l-41 20l-307 349h-20l-308 -349l-41 -20h-61l-21 20v144l308 348v20l-287 328v144l20 20h62l41 -20l287 -328h20l287 328l41 20h61l21 -20v-144l-287 -328v-20l307 -348v-144z" />
    <glyph glyph-name="y" unicode="y" horiz-adv-x="1044" 
d="M983 860l-328 -819q-38 -96 -71 -157t-69 -105t-81.5 -66t-98.5 -31.5t-130 -9.5h-41l-21 21v143l21 21h41q82 0 129 25t76 98v20l-349 860v144l21 20h123l20 -20l287 -758h20l287 758l21 20h123l20 -20v-144z" />
    <glyph glyph-name="z" unicode="z" horiz-adv-x="1024" 
d="M942 20l-20 -20h-820l-20 20v164l20 41l553 594v21h-532l-21 20v144l21 20h778l21 -20v-164l-21 -41l-553 -594v-21h574l20 -20v-144z" />
    <glyph glyph-name="braceleft" unicode="{" horiz-adv-x="901" 
d="M328 -102v368q0 91 -33 127.5t-111 36.5l-20 21v122l20 21q78 0 111 36.5t33 127.5v368q0 147 88 227.5t219 80.5h82l20 -21v-143l-20 -21h-82q-47 0 -75 -31.5t-28 -91.5v-389q0 -77 -28 -133.5t-74 -71.5v-40q46 -15 74 -71.5t28 -133.5v-389q0 -60 28 -91.5t75 -31.5
h82l20 -21v-143l-20 -21h-82q-131 0 -219 80.5t-88 227.5z" />
    <glyph glyph-name="bar" unicode="|" horiz-adv-x="696" 
d="M451 -389l-21 -21h-164l-20 21v1802l20 21h164l21 -21v-1802z" />
    <glyph glyph-name="braceright" unicode="}" horiz-adv-x="901" 
d="M573 266v-368q0 -147 -88 -227.5t-219 -80.5h-82l-20 21v143l20 21h82q47 0 75 31.5t28 91.5v389q0 77 28 133.5t74 71.5v40q-46 15 -74 71.5t-28 133.5v389q0 60 -28 91.5t-75 31.5h-82l-20 21v143l20 21h82q131 0 219 -80.5t88 -227.5v-368q0 -91 33 -127.5t111 -36.5
l20 -21v-122l-20 -21q-78 0 -111 -36.5t-33 -127.5z" />
    <glyph glyph-name="asciitilde" unicode="~" horiz-adv-x="1269" 
d="M553 430q-38 38 -58 55.5t-48.5 32t-57.5 14.5q-58 0 -80 -40t-22 -123l-21 -21h-123l-20 21q0 80 16.5 144.5t52 116t96 79.5t142.5 28q51 0 95 -12.5t81.5 -37.5t58.5 -43.5t52 -49.5q38 -38 58 -55.5t48.5 -32t57.5 -14.5q58 0 80 40t22 123l21 21h122l21 -21
q0 -80 -16.5 -144.5t-52 -116t-96 -79.5t-142.5 -28q-51 0 -95 12.5t-81.5 37.5t-58.5 43.5t-52 49.5z" />
    <glyph glyph-name="uni00A0" unicode="&#xa0;" horiz-adv-x="532" 
 />
    <glyph glyph-name="exclamdown" unicode="&#xa1;" horiz-adv-x="737" 
d="M266 205l41 389l21 20h82l20 -20l41 -389v-594l-20 -21h-164l-21 21v594zM246 1004l20 20h205l21 -20v-205l-21 -21h-205l-20 21v205z" />
    <glyph glyph-name="cent" unicode="&#xa2;" horiz-adv-x="1064" 
d="M266 512q0 -70 13.5 -128.5t33.5 -95t46.5 -64t48.5 -40.5t43 -20l20 20v656l-20 20q-21 -7 -43 -20t-48.5 -40.5t-46.5 -64t-33.5 -95t-13.5 -128.5zM635 840v-656l20 -20q111 27 144 164l20 20h164l21 -20q-7 -80 -42 -145.5t-87 -106t-107.5 -64.5t-112.5 -32l-20 -21
v-82l-21 -20h-122l-21 20v82l-20 21q-48 7 -96 25.5t-102.5 59t-96 97.5t-68.5 148t-27 202t27 202t68.5 148t96 97.5t102.5 59t96 25.5l20 21v82l21 20h122l21 -20v-82l20 -21q57 -8 112.5 -32t107.5 -64.5t87 -106t42 -145.5l-21 -20h-164l-20 20q-33 137 -144 164z" />
    <glyph glyph-name="sterling" unicode="&#xa3;" horiz-adv-x="1228" 
d="M901 594l-20 -21h-410l-20 -20v-164q0 -71 -24 -119t-58 -65v-21h778l20 -20v-144l-20 -20h-1065l-21 20v144l21 20h20q75 0 109.5 45.5t34.5 139.5v184l-21 20h-123l-20 21v123l20 20h123l21 21v246q0 206 110.5 328t319.5 122t309 -112t100 -318l-20 -20h-164l-20 20
q0 130 -43.5 188t-161.5 58q-225 0 -225 -266v-246l20 -21h410l20 -20v-123z" />
    <glyph glyph-name="currency" unicode="&#xa4;" horiz-adv-x="1310" 
d="M123 512q0 165 82 287v20l-123 123v21l123 122h20l123 -122h21q121 81 286 81q166 0 287 -81h21l122 122h21l123 -122v-21l-123 -123v-20q82 -122 82 -287t-82 -287v-20l123 -123v-21l-123 -122h-21l-122 122h-21q-121 -81 -287 -81q-165 0 -286 81h-21l-123 -122h-20
l-123 122v21l123 123v20q-82 122 -82 287zM328 512q0 -144 89.5 -246t237.5 -102t238 102t90 246t-90 246t-238 102t-237.5 -102t-89.5 -246z" />
    <glyph glyph-name="yen" unicode="&#xa5;" horiz-adv-x="1146" 
d="M676 246v-226l-21 -20h-163l-21 20v226l-20 20h-226l-20 21v123l20 20h226l20 21v41l-41 81l-41 21h-225l-21 20v123l21 21h164v20l-246 492v143l20 21h103l41 -21l307 -655h41l307 655l41 21h102l21 -21v-143l-246 -492v-20h164l21 -21v-123l-21 -20h-225l-41 -21
l-41 -81v-41l20 -21h226l20 -20v-123l-20 -21h-226z" />
    <glyph glyph-name="brokenbar" unicode="&#xa6;" horiz-adv-x="696" 
d="M451 860l-21 -20h-164l-20 20v553l20 21h164l21 -21v-553zM451 20l-21 -20h-164l-20 20v553l20 21h164l21 -21v-553z" />
    <glyph glyph-name="section" unicode="&#xa7;" horiz-adv-x="1310" 
d="M287 614q0 -64 26.5 -111t67.5 -74.5t104.5 -50t122.5 -36t137.5 -34t135.5 -42.5h20q5 1 13.5 3.5t29.5 15t37 30.5t29.5 54t13.5 82q0 43 -17 77t-51 60t-74.5 45.5t-98 38t-109.5 33t-121.5 34.5t-122.5 39h-20q-5 -1 -13.5 -3t-29.5 -13.5t-37 -28t-29.5 -48
t-13.5 -71.5zM1065 184v-20q22 -22 34.5 -37t31 -43.5t27.5 -65t9 -79.5q0 -176 -119.5 -272.5t-371.5 -96.5q-533 0 -533 430l21 20h164l20 -20q0 -87 26 -138t99 -79.5t203 -28.5q151 0 219 45.5t68 139.5q0 46 -30 80.5t-81 57t-117 41.5t-139.5 37.5t-146.5 40.5
t-139 56t-117 78t-81 111.5t-30 152.5q0 57 17 105.5t41 77t48 48.5t41 27l17 8v21q-30 30 -47 50.5t-36.5 69t-19.5 105.5q0 160 129.5 254t382.5 94q242 0 377 -104.5t135 -325.5l-20 -20h-164l-20 20q0 87 -26 138t-99 79.5t-203 28.5q-160 0 -223.5 -41t-63.5 -123
q0 -46 30 -81t81 -58.5t117 -43.5t139.5 -40t146.5 -42.5t139 -56t117 -77t81 -109t30 -147.5q0 -57 -17 -106t-41 -77t-48 -48.5t-41 -27.5z" />
    <glyph glyph-name="dieresis" unicode="&#xa8;" horiz-adv-x="1024" 
d="M799 1208l-21 -20h-164l-20 20v164l20 21h164l21 -21v-164zM430 1208l-20 -20h-164l-21 20v164l21 21h164l20 -21v-164z" />
    <glyph glyph-name="copyright" unicode="&#xa9;" horiz-adv-x="1720" 
d="M860 1147q53 0 100 -8t95 -29.5t83.5 -55t60 -88.5t30.5 -126l-21 -21h-123l-20 21q-14 98 -65 131t-140 33q-225 0 -225 -287t225 -287q89 0 140 33t65 131l20 20h123l21 -20q-6 -71 -30.5 -126t-60 -88.5t-83.5 -55t-95 -29.5t-100 -8q-179 0 -284 105t-105 325
t105 325t284 105zM287 717q0 -162 74.5 -293.5t205.5 -206t293 -74.5q121 0 227.5 44t182.5 120t120 182.5t44 227.5q0 162 -74.5 293t-206 205.5t-293.5 74.5t-293 -74.5t-205.5 -205.5t-74.5 -293zM123 717q0 151 58 287.5t156.5 235t235 156.5t287.5 58t287.5 -58
t235 -156.5t156.5 -235t58 -287.5t-58 -287.5t-156.5 -235t-235 -156.5t-287.5 -58t-287.5 58t-235 156.5t-156.5 235t-58 287.5z" />
    <glyph glyph-name="ordfeminine" unicode="&#xaa;" horiz-adv-x="1146" 
d="M983 717l-20 -21h-62q-81 0 -143 62h-21q-82 -82 -225 -82q-157 0 -252.5 103.5t-95.5 285.5q0 189 100 289t248 100q67 0 114.5 -19.5t69.5 -41.5h21v20l20 21h144l20 -21v-491q0 -29 12.5 -45.5t28.5 -16.5h21l20 -20v-123zM348 1065q0 -109 46.5 -167t137.5 -58
t138 58.5t47 166.5t-47 166.5t-138 58.5t-137.5 -58t-46.5 -167zM963 553l-21 -21h-717l-20 21v20l20 21h717l21 -21v-20z" />
    <glyph glyph-name="guillemotleft" unicode="&#xab;" horiz-adv-x="1433" 
d="M737 82l-20 -21h-164l-41 21l-328 328l-20 41v122l20 41l328 328l41 21h164l20 -21v-61l-368 -349v-40l368 -349v-61zM1270 82l-21 -21h-164l-41 21l-327 328l-21 41v122l21 41l327 328l41 21h164l21 -21v-61l-369 -349v-40l369 -349v-61z" />
    <glyph glyph-name="logicalnot" unicode="&#xac;" 
d="M1024 205l-20 -21h-144l-20 21v205l-21 20h-676l-20 21v143l20 20h861l20 -20v-389z" />
    <glyph glyph-name="uni00AD" unicode="&#xad;" horiz-adv-x="839" 
d="M717 451l-21 -21h-553l-20 21v143l20 20h553l21 -20v-143z" />
    <glyph glyph-name="registered" unicode="&#xae;" horiz-adv-x="1720" 
d="M1065 881q0 46 -28 74t-74 28h-246l-21 -20v-164l21 -21h246q46 0 74 28.5t28 74.5zM1065 635l164 -205v-102l-21 -21h-61l-41 21l-225 286l-41 21h-123l-21 -21v-286l-20 -21h-123l-21 21v778l21 20h410q126 0 196 -62t70 -183q0 -171 -164 -226v-20zM287 717
q0 -162 74.5 -293.5t205.5 -206t293 -74.5q121 0 227.5 44t182.5 120t120 182.5t44 227.5q0 162 -74.5 293t-206 205.5t-293.5 74.5t-293 -74.5t-205.5 -205.5t-74.5 -293zM123 717q0 151 58 287.5t156.5 235t235 156.5t287.5 58t287.5 -58t235 -156.5t156.5 -235t58 -287.5
t-58 -287.5t-156.5 -235t-235 -156.5t-287.5 -58t-287.5 58t-235 156.5t-156.5 235t-58 287.5z" />
    <glyph glyph-name="macron" unicode="&#xaf;" horiz-adv-x="1024" 
d="M840 1208l-21 -20h-614l-21 20v123l21 21h614l21 -21v-123z" />
    <glyph glyph-name="degree" unicode="&#xb0;" 
d="M164 1024q0 184 123 307t307 123t307 -123t123 -307t-123 -307t-307 -123t-307 123t-123 307zM348 1024q0 -121 68.5 -193.5t177.5 -72.5t177.5 72.5t68.5 193.5t-68.5 193.5t-177.5 72.5t-177.5 -72.5t-68.5 -193.5z" />
    <glyph glyph-name="plusminus" unicode="&#xb1;" 
d="M1065 594l-21 -21h-327l-21 -20v-225l-20 -21h-144l-20 21v225l-20 20h-328l-21 21v143l21 21h328l20 20v226l20 20h144l20 -20v-226l21 -20h327l21 -21v-143zM1065 20l-21 -20h-880l-21 20v144l21 20h880l21 -20v-144z" />
    <glyph glyph-name="twosuperior" unicode="&#xb2;" horiz-adv-x="737" 
d="M655 717l-20 -21h-512l-21 21v123l21 41l184 123q89 60 116.5 100t27.5 104q0 35 -20 58.5t-62 23.5t-62 -23.5t-20 -58.5l-21 -20h-143l-21 20q0 112 67 179t200 67t199.5 -67t66.5 -179q0 -68 -20 -119.5t-48 -81.5t-75 -65l-82 -61v-21h225l20 -20v-123z" />
    <glyph glyph-name="threesuperior" unicode="&#xb3;" horiz-adv-x="737" 
d="M287 1004l-21 20v102l123 123v21h-246l-20 20v123l20 21h451l20 -21v-123l-20 -41l-102 -102v-21q7 0 18 -1t39 -11t49.5 -27.5t39 -55t17.5 -89.5q0 -112 -76.5 -189t-209.5 -77q-135 0 -211 68t-76 178l20 20h144l20 -20q0 -82 103 -82q46 0 74 28t28 74
q0 48 -38.5 69.5t-84.5 -7.5h-61z" />
    <glyph glyph-name="acute" unicode="&#xb4;" horiz-adv-x="1024" 
d="M696 1372l-225 -205l-41 -20h-102l-21 20v41l185 205l40 21h144l20 -21v-41z" />
    <glyph glyph-name="mu" unicode="&#xb5;" 
d="M819 61h-20q-9 -9 -26 -22.5t-70.5 -36t-108.5 -22.5q-34 0 -68 8.5t-57.5 20t-42.5 23.5t-28 20l-9 9h-20v-450l-21 -21h-164l-20 21v1393l20 20h164l21 -20v-533q0 -152 58 -229.5t167 -77.5t167 77.5t58 229.5v533l21 20h164l20 -20v-984l-20 -20h-144l-20 20z" />
    <glyph glyph-name="paragraph" unicode="&#xb6;" horiz-adv-x="1454" 
d="M778 -389l-20 -21h-164l-21 21v983l-20 20q-195 0 -312.5 102t-117.5 308q0 207 120.5 308.5t329.5 101.5h758l21 -21v-143l-21 -21h-123l-20 -20v-1618l-21 -21h-163l-21 21v1618l-20 20h-164l-21 -20v-1618z" />
    <glyph glyph-name="periodcentered" unicode="&#xb7;" horiz-adv-x="573" 
d="M410 430l-21 -20h-205l-20 20v205l20 20h205l21 -20v-205z" />
    <glyph glyph-name="cedilla" unicode="&#xb8;" horiz-adv-x="1024" 
d="M430 -205h-20l-21 21v20l164 164h82l-143 -143h20q41 20 82 20q51 0 87 -36t36 -107q0 -76 -56 -120t-149 -44q-60 0 -98.5 17.5t-85.5 64.5v20l20 21h21q19 -19 43.5 -28.5t43 -11t56.5 -1.5q102 0 102 82t-102 82q-39 0 -82 -21z" />
    <glyph glyph-name="onesuperior" unicode="&#xb9;" horiz-adv-x="737" 
d="M102 717v123l21 20h164l20 21v307h-20l-82 -82h-62l-20 20v123l164 164l41 21h143l21 -21v-532l20 -21h123l20 -20v-123l-20 -21h-512z" />
    <glyph glyph-name="ordmasculine" unicode="&#xba;" horiz-adv-x="1064" 
d="M532 676q-179 0 -273.5 107t-94.5 282t94.5 282t273.5 107t274 -107t95 -282t-95 -282t-274 -107zM348 1065q0 -109 46.5 -167t137.5 -58t138 58.5t47 166.5t-47 166.5t-138 58.5t-137.5 -58t-46.5 -167zM860 553l-20 -21h-615l-20 21v20l20 21h615l20 -21v-20z" />
    <glyph glyph-name="guillemotright" unicode="&#xbb;" horiz-adv-x="1433" 
d="M717 61l-21 21v61l369 349v40l-369 349v61l21 21h164l41 -21l327 -328l21 -41v-122l-21 -41l-327 -328l-41 -21h-164zM184 61l-20 21v61l368 349v40l-368 349v61l20 21h164l41 -21l328 -328l20 -41v-122l-20 -41l-328 -328l-41 -21h-164z" />
    <glyph glyph-name="onequarter" unicode="&#xbc;" horiz-adv-x="1761" 
d="M1556 20l-20 -20h-143l-21 20v103l-20 20h-369l-20 21v164l20 41l348 348l41 20h164l20 -20v-697zM1372 328v184h-20l-185 -184v-21h185zM102 717v123l21 20h164l20 21v307h-20l-82 -82h-62l-20 20v123l164 164l41 21h143l21 -21v-532l20 -21h123l20 -20v-123l-20 -21
h-512zM1352 1270l-820 -1250l-20 -20h-82l-20 20v144l819 1249l20 21h82l21 -21v-143z" />
    <glyph glyph-name="onehalf" unicode="&#xbd;" horiz-adv-x="1761" 
d="M1638 20l-20 -20h-512l-21 20v123l21 41l184 123q89 60 116.5 100.5t27.5 104.5q0 35 -20 58.5t-62 23.5t-62 -23.5t-20 -58.5l-21 -20h-143l-21 20q0 112 67 179t200 67t199.5 -67t66.5 -179q0 -68 -20 -119.5t-48 -81.5t-75 -65l-82 -62v-20h225l20 -21v-123zM102 717
v123l21 20h164l20 21v307h-20l-82 -82h-62l-20 20v123l164 164l41 21h143l21 -21v-532l20 -21h123l20 -20v-123l-20 -21h-512zM1352 1270l-820 -1250l-20 -20h-82l-20 20v144l819 1249l20 21h82l21 -21v-143z" />
    <glyph glyph-name="threequarters" unicode="&#xbe;" horiz-adv-x="1761" 
d="M1352 1270l-820 -1250l-20 -20h-82l-20 20v144l819 1249l20 21h82l21 -21v-143zM1556 20l-20 -20h-143l-21 20v103l-20 20h-369l-20 21v164l20 41l348 348l41 20h164l20 -20v-697zM1372 328v184h-20l-185 -184v-21h185zM328 1004l-21 20v102l123 123v21h-246l-20 20v123
l20 21h451l20 -21v-123l-20 -41l-103 -102v-21q7 0 18 -1t39 -11t50 -27.5t39.5 -55t17.5 -89.5q0 -112 -76.5 -189t-209.5 -77q-135 0 -211 68t-76 178l20 20h144l20 -20q0 -82 103 -82q46 0 74 28t28 74q0 48 -38.5 69.5t-84.5 -7.5h-61z" />
    <glyph glyph-name="questiondown" unicode="&#xbf;" horiz-adv-x="1228" 
d="M164 -41q0 74 13.5 131t44.5 103.5t62 78t85 76.5q69 57 99 89t47 74t17 103l21 21h164l20 -21q0 -122 -35.5 -196.5t-128.5 -151.5q-103 -86 -135 -122q-69 -79 -69 -185q0 -87 58.5 -146t186.5 -59q132 0 189 68t57 198l21 21h163l21 -21q0 -207 -114 -328.5
t-337 -121.5q-203 0 -326.5 103.5t-123.5 285.5zM512 1004l20 20h205l21 -20v-205l-21 -21h-205l-20 21v205z" />
    <glyph glyph-name="Agrave" unicode="&#xc0;" horiz-adv-x="1290" 
d="M1249 20l-20 -20h-123l-21 20l-122 308l-41 20h-553l-41 -20l-123 -308l-21 -20h-123l-20 20v144l491 1249l21 21h184l21 -21l491 -1249v-144zM881 553l-226 573h-20l-225 -573l20 -21h430zM778 1577l-20 -21h-103l-41 21l-225 205v41l21 20h143l41 -20l184 -205v-41z
" />
    <glyph glyph-name="Aacute" unicode="&#xc1;" horiz-adv-x="1290" 
d="M1249 20l-20 -20h-123l-21 20l-122 308l-41 20h-553l-41 -20l-123 -308l-21 -20h-123l-20 20v144l491 1249l21 21h184l21 -21l491 -1249v-144zM881 553l-226 573h-20l-225 -573l20 -21h430zM901 1782l-225 -205l-41 -21h-103l-20 21v41l184 205l41 20h144l20 -20v-41z
" />
    <glyph glyph-name="Acircumflex" unicode="&#xc2;" horiz-adv-x="1290" 
d="M963 1577l-21 -21h-102l-41 21l-144 123h-20l-143 -123l-41 -21h-103l-20 21v41l184 205l41 20h184l41 -20l185 -205v-41zM1249 20l-20 -20h-123l-21 20l-122 308l-41 20h-553l-41 -20l-123 -308l-21 -20h-123l-20 20v144l491 1249l21 21h184l21 -21l491 -1249v-144z
M881 553l-226 573h-20l-225 -573l20 -21h430z" />
    <glyph glyph-name="Atilde" unicode="&#xc3;" horiz-adv-x="1290" 
d="M1249 20l-20 -20h-123l-21 20l-122 308l-41 20h-553l-41 -20l-123 -308l-21 -20h-123l-20 20v144l491 1249l21 21h184l21 -21l491 -1249v-144zM881 553l-226 573h-20l-225 -573l20 -21h430zM778 1536q-56 0 -102.5 22.5t-71.5 49t-55.5 49t-56.5 22.5q-82 0 -82 -102
l-21 -21h-61l-21 21q0 99 51.5 162t153.5 63q56 0 102.5 -22.5t72 -49t56 -49t56.5 -22.5q82 0 82 102l20 21h62l20 -21q0 -99 -51.5 -162t-153.5 -63z" />
    <glyph glyph-name="Adieresis" unicode="&#xc4;" horiz-adv-x="1290" 
d="M942 1618l-20 -21h-164l-21 21v164l21 20h164l20 -20v-164zM553 1618l-21 -21h-163l-21 21v164l21 20h163l21 -20v-164zM1249 20l-20 -20h-123l-21 20l-122 308l-41 20h-553l-41 -20l-123 -308l-21 -20h-123l-20 20v144l491 1249l21 21h184l21 -21l491 -1249v-144z
M881 553l-226 573h-20l-225 -573l20 -21h430z" />
    <glyph glyph-name="Aring" unicode="&#xc5;" horiz-adv-x="1290" 
d="M655 1475h-20q-91 0 -148 53t-57 131t57 131t148 53h20q91 0 148 -53t57 -131t-57 -131t-148 -53zM1249 20l-20 -20h-123l-21 20l-122 308l-41 20h-553l-41 -20l-123 -308l-21 -20h-123l-20 20v144l491 1249l21 21h184l21 -21l491 -1249v-144zM881 553l-226 573h-20
l-225 -573l20 -21h430zM635 1577h20q42 0 62 23.5t20 58.5t-20 58.5t-62 23.5h-20q-42 0 -62 -23.5t-20 -58.5t20 -58.5t62 -23.5z" />
    <glyph glyph-name="AE" unicode="&#xc6;" horiz-adv-x="1966" 
d="M1843 20l-20 -20h-860l-21 20v308l-20 20h-512l-41 -20l-164 -308l-21 -20h-123l-20 20v144l696 1249l21 21h1065l20 -21v-143l-20 -21h-656l-20 -20v-389l20 -21h615l20 -20v-144l-20 -20h-615l-20 -21v-409l20 -21h656l20 -20v-144zM942 553v676l-20 20h-41l-21 -20
l-368 -676l20 -21h410z" />
    <glyph glyph-name="Ccedilla" unicode="&#xc7;" horiz-adv-x="1413" 
d="M840 -20l-41 -21l-103 -102h21q41 20 82 20q51 0 87 -36t36 -107q0 -76 -56 -120t-149 -44q-60 0 -99 17.5t-86 64.5v20l21 21h20q28 -28 58 -34.5t86 -6.5q102 0 102 82t-102 82q-39 0 -82 -21h-21l-20 21v20l123 123v21q-139 8 -255 61t-200.5 145.5t-132 228.5
t-47.5 302q0 216 78.5 381.5t232.5 260.5t365 95q239 0 390 -119.5t183 -310.5l-20 -20h-164l-21 20q-32 112 -126 179t-242 67q-225 0 -348 -150.5t-123 -402.5t123 -402.5t348 -150.5q292 0 368 266l21 21h164l20 -21q-15 -103 -64.5 -187.5t-120 -138t-148.5 -85
t-158 -39.5z" />
    <glyph glyph-name="Egrave" unicode="&#xc8;" horiz-adv-x="1249" 
d="M1126 20l-20 -20h-922l-20 20v1393l20 21h922l20 -21v-143l-20 -21h-717l-20 -20v-389l20 -21h676l20 -20v-144l-20 -20h-676l-20 -21v-409l20 -21h717l20 -20v-144zM778 1577l-20 -21h-103l-41 21l-225 205v41l21 20h143l41 -20l184 -205v-41z" />
    <glyph glyph-name="Eacute" unicode="&#xc9;" horiz-adv-x="1249" 
d="M1126 20l-20 -20h-922l-20 20v1393l20 21h922l20 -21v-143l-20 -21h-717l-20 -20v-389l20 -21h676l20 -20v-144l-20 -20h-676l-20 -21v-409l20 -21h717l20 -20v-144zM901 1782l-225 -205l-41 -21h-103l-20 21v41l184 205l41 20h144l20 -20v-41z" />
    <glyph glyph-name="Ecircumflex" unicode="&#xca;" horiz-adv-x="1249" 
d="M1126 20l-20 -20h-922l-20 20v1393l20 21h922l20 -21v-143l-20 -21h-717l-20 -20v-389l20 -21h676l20 -20v-144l-20 -20h-676l-20 -21v-409l20 -21h717l20 -20v-144zM983 1577l-20 -21h-103l-41 21l-143 123h-41l-143 -123l-41 -21h-103l-20 21v41l184 205l41 20h205
l41 -20l184 -205v-41z" />
    <glyph glyph-name="Edieresis" unicode="&#xcb;" horiz-adv-x="1249" 
d="M1126 20l-20 -20h-922l-20 20v1393l20 21h922l20 -21v-143l-20 -21h-717l-20 -20v-389l20 -21h676l20 -20v-144l-20 -20h-676l-20 -21v-409l20 -21h717l20 -20v-144zM942 1618l-20 -21h-164l-21 21v164l21 20h164l20 -20v-164zM573 1618l-20 -21h-164l-20 21v164l20 20
h164l20 -20v-164z" />
    <glyph glyph-name="Igrave" unicode="&#xcc;" horiz-adv-x="532" 
d="M369 20l-21 -20h-164l-20 20v1393l20 21h164l21 -21v-1393zM389 1577l-20 -21h-103l-41 21l-225 205v41l20 20h144l41 -20l184 -205v-41z" />
    <glyph glyph-name="Iacute" unicode="&#xcd;" horiz-adv-x="532" 
d="M369 20l-21 -20h-164l-20 20v1393l20 21h164l21 -21v-1393zM532 1782l-225 -205l-41 -21h-102l-21 21v41l185 205l41 20h143l20 -20v-41z" />
    <glyph glyph-name="Icircumflex" unicode="&#xce;" horiz-adv-x="532" 
d="M369 20l-21 -20h-164l-20 20v1393l20 21h164l21 -21v-1393zM594 1577l-21 -21h-102l-41 21l-143 123h-41l-144 -123l-41 -21h-102l-20 21v41l184 205l41 20h205l41 -20l184 -205v-41z" />
    <glyph glyph-name="Idieresis" unicode="&#xcf;" horiz-adv-x="532" 
d="M369 20l-21 -20h-164l-20 20v1393l20 21h164l21 -21v-1393zM553 1618l-21 -21h-163l-21 21v164l21 20h163l21 -20v-164zM184 1618l-20 -21h-164l-20 21v164l20 20h164l20 -20v-164z" />
    <glyph glyph-name="Eth" unicode="&#xd0;" horiz-adv-x="1372" 
d="M0 655v144l20 20h123l21 21v573l20 21h430q151 0 266.5 -34t192.5 -94.5t126 -151t70 -197.5t21 -240t-21 -240t-70 -197.5t-126 -151t-192.5 -94.5t-266.5 -34h-430l-20 20v594l-21 21h-123zM1085 717q0 137 -22.5 231t-77 164.5t-151 103.5t-240.5 33h-205l-20 -20
v-389l20 -21h307l21 -20v-144l-21 -20h-307l-20 -21v-409l20 -21h205q116 0 200.5 22.5t140.5 64.5t89.5 109t47 147.5t13.5 189.5z" />
    <glyph glyph-name="Ntilde" unicode="&#xd1;" horiz-adv-x="1495" 
d="M881 1536q-56 0 -102.5 22.5t-72 49t-56 49t-56.5 22.5q-82 0 -82 -102l-20 -21h-62l-20 21q0 99 51 162t153 63q56 0 102.5 -22.5t72 -49t56 -49t56.5 -22.5q82 0 82 102l21 21h61l20 -21q0 -99 -51 -162t-153 -63zM1331 20l-20 -20h-185l-41 20l-696 1065h-20v-1065
l-21 -20h-164l-20 20v1393l20 21h185l41 -21l696 -1065h20v1065l21 21h164l20 -21v-1393z" />
    <glyph glyph-name="Ograve" unicode="&#xd2;" horiz-adv-x="1515" 
d="M82 717q0 216 78.5 381.5t232.5 260.5t365 95t365 -95t232.5 -260.5t78.5 -381.5t-78.5 -381.5t-232.5 -260.5t-365 -95t-365 95t-232.5 260.5t-78.5 381.5zM287 717q0 -252 123 -402.5t348 -150.5t348 150.5t123 402.5t-123 402.5t-348 150.5t-348 -150.5t-123 -402.5z
M922 1577l-21 -21h-102l-41 21l-226 205v41l21 20h143l41 -20l185 -205v-41z" />
    <glyph glyph-name="Oacute" unicode="&#xd3;" horiz-adv-x="1515" 
d="M82 717q0 216 78.5 381.5t232.5 260.5t365 95t365 -95t232.5 -260.5t78.5 -381.5t-78.5 -381.5t-232.5 -260.5t-365 -95t-365 95t-232.5 260.5t-78.5 381.5zM287 717q0 -252 123 -402.5t348 -150.5t348 150.5t123 402.5t-123 402.5t-348 150.5t-348 -150.5t-123 -402.5z
M983 1782l-225 -205l-41 -21h-103l-20 21v41l184 205l41 20h144l20 -20v-41z" />
    <glyph glyph-name="Ocircumflex" unicode="&#xd4;" horiz-adv-x="1515" 
d="M82 717q0 216 78.5 381.5t232.5 260.5t365 95t365 -95t232.5 -260.5t78.5 -381.5t-78.5 -381.5t-232.5 -260.5t-365 -95t-365 95t-232.5 260.5t-78.5 381.5zM287 717q0 -252 123 -402.5t348 -150.5t348 150.5t123 402.5t-123 402.5t-348 150.5t-348 -150.5t-123 -402.5z
M1085 1577l-20 -21h-102l-41 21l-144 123h-41l-143 -123l-41 -21h-102l-21 21v41l184 205l41 20h205l41 -20l184 -205v-41z" />
    <glyph glyph-name="Otilde" unicode="&#xd5;" horiz-adv-x="1515" 
d="M82 717q0 216 78.5 381.5t232.5 260.5t365 95t365 -95t232.5 -260.5t78.5 -381.5t-78.5 -381.5t-232.5 -260.5t-365 -95t-365 95t-232.5 260.5t-78.5 381.5zM287 717q0 -252 123 -402.5t348 -150.5t348 150.5t123 402.5t-123 402.5t-348 150.5t-348 -150.5t-123 -402.5z
M881 1536q-56 0 -102.5 22.5t-72 49t-56 49t-56.5 22.5q-82 0 -82 -102l-20 -21h-62l-20 21q0 99 51 162t153 63q56 0 102.5 -22.5t72 -49t56 -49t56.5 -22.5q82 0 82 102l21 21h61l20 -21q0 -99 -51 -162t-153 -63z" />
    <glyph glyph-name="Odieresis" unicode="&#xd6;" horiz-adv-x="1515" 
d="M82 717q0 216 78.5 381.5t232.5 260.5t365 95t365 -95t232.5 -260.5t78.5 -381.5t-78.5 -381.5t-232.5 -260.5t-365 -95t-365 95t-232.5 260.5t-78.5 381.5zM287 717q0 -252 123 -402.5t348 -150.5t348 150.5t123 402.5t-123 402.5t-348 150.5t-348 -150.5t-123 -402.5z
M1044 1618l-20 -21h-164l-20 21v164l20 20h164l20 -20v-164zM676 1618l-21 -21h-163l-21 21v164l21 20h163l21 -20v-164z" />
    <glyph glyph-name="multiply" unicode="&#xd7;" horiz-adv-x="1249" 
d="M1085 164l-102 -103h-20l-328 328h-21l-327 -328h-21l-102 103v20l328 328v20l-328 328v21l102 102h21l327 -328h21l328 328h20l102 -102v-21l-327 -328v-20l327 -328v-20z" />
    <glyph glyph-name="Oslash" unicode="&#xd8;" horiz-adv-x="1515" 
d="M369 389l716 717v41q-123 123 -327 123q-225 0 -348 -150.5t-123 -402.5q0 -206 61 -328h21zM758 -20q-151 0 -264 45t-207 139h-21l-82 -82l-41 -21h-20l-21 21v41l103 102v41q-123 184 -123 451q0 216 78.5 381.5t232.5 260.5t365 95q151 0 264 -45t207 -139h20l82 82
l41 20h21l20 -20v-41l-102 -103v-41q123 -185 123 -450q0 -216 -78.5 -381.5t-232.5 -260.5t-365 -95zM1147 1044l-717 -716v-41q123 -123 328 -123q225 0 348 150.5t123 402.5q0 203 -62 327h-20z" />
    <glyph glyph-name="Ugrave" unicode="&#xd9;" horiz-adv-x="1433" 
d="M1270 1413v-901q0 -247 -146.5 -389.5t-406.5 -142.5t-406.5 142.5t-146.5 389.5v901l20 21h164l21 -21v-901q0 -162 85.5 -255t262.5 -93t262.5 93t85.5 255v901l20 21h164zM840 1577l-21 -21h-102l-41 21l-225 205v41l20 20h143l41 -20l185 -205v-41z" />
    <glyph glyph-name="Uacute" unicode="&#xda;" horiz-adv-x="1433" 
d="M1270 1413v-901q0 -247 -146.5 -389.5t-406.5 -142.5t-406.5 142.5t-146.5 389.5v901l20 21h164l21 -21v-901q0 -162 85.5 -255t262.5 -93t262.5 93t85.5 255v901l20 21h164zM983 1782l-225 -205l-41 -21h-103l-20 21v41l184 205l41 20h144l20 -20v-41z" />
    <glyph glyph-name="Ucircumflex" unicode="&#xdb;" horiz-adv-x="1433" 
d="M1270 1413v-901q0 -247 -146.5 -389.5t-406.5 -142.5t-406.5 142.5t-146.5 389.5v901l20 21h164l21 -21v-901q0 -162 85.5 -255t262.5 -93t262.5 93t85.5 255v901l20 21h164zM1044 1577l-20 -21h-102l-41 21l-144 123h-41l-143 -123l-41 -21h-102l-21 21v41l184 205
l41 20h205l41 -20l184 -205v-41z" />
    <glyph glyph-name="Udieresis" unicode="&#xdc;" horiz-adv-x="1433" 
d="M1270 1413v-901q0 -247 -146.5 -389.5t-406.5 -142.5t-406.5 142.5t-146.5 389.5v901l20 21h164l21 -21v-901q0 -162 85.5 -255t262.5 -93t262.5 93t85.5 255v901l20 21h164zM1004 1618l-21 -21h-164l-20 21v164l20 20h164l21 -20v-164zM635 1618l-21 -21h-163l-21 21
v164l21 20h163l21 -20v-164z" />
    <glyph glyph-name="Yacute" unicode="&#xdd;" 
d="M1126 1270l-430 -697v-553l-20 -20h-164l-20 20v553l-431 697v143l21 21h82l41 -21l368 -614h41l369 614l41 21h82l20 -21v-143zM840 1782l-226 -205l-41 -21h-102l-20 21v41l184 205l41 20h143l21 -20v-41z" />
    <glyph glyph-name="Thorn" unicode="&#xde;" horiz-adv-x="1269" 
d="M389 492h328q140 0 203 52t63 173t-63 173t-203 52h-328l-20 -20v-410zM389 307l-20 -20v-267l-21 -20h-164l-20 20v1393l20 21h164l21 -21v-266l20 -21h328q224 0 347.5 -100.5t123.5 -308.5q0 -105 -36 -185t-100.5 -128.5t-148.5 -72.5t-186 -24h-328z" />
    <glyph glyph-name="germandbls" unicode="&#xdf;" 
d="M1126 430q0 -126 -46.5 -226t-145.5 -162t-238 -62q-45 0 -91 10t-69 20l-24 10l-20 21v123l20 20q82 -20 184 -20q116 0 171 74.5t55 191.5q0 65 -13.5 108.5t-48 75.5t-95 47t-151.5 15l-20 20v123l20 21q132 0 189 53t57 151q0 50 -10 87.5t-35.5 70.5t-76 50.5
t-124.5 17.5q-111 0 -168 -53.5t-57 -172.5v-1024l-20 -20h-164l-21 20v820l-20 20h-103l-20 21v123l20 20h103l20 20q0 190 110 300t320 110q119 0 208.5 -31.5t141 -86.5t76.5 -123t25 -148q0 -205 -164 -287v-20q88 -17 156.5 -102t68.5 -226z" />
    <glyph glyph-name="agrave" unicode="&#xe0;" horiz-adv-x="1024" 
d="M922 20l-21 -20h-143l-21 20l-20 82h-21q-3 -5 -10 -13t-32 -29t-55 -37.5t-81 -29.5t-108 -13q-168 0 -258.5 86t-90.5 241q0 163 121.5 245.5t329.5 82.5q45 0 91 -5.5t69 -10.5l24 -5l21 21v41q0 104 -47 144t-158 40q-106 0 -155.5 -30.5t-49.5 -92.5l-20 -20h-164
l-21 20q0 57 21.5 109t67.5 97.5t128.5 73t192.5 27.5q225 0 317.5 -107t92.5 -343v-574zM717 369v61l-21 21q-62 20 -164 20q-266 0 -266 -164q0 -75 45.5 -109t139.5 -34q122 0 194 56t72 149zM655 1167l-20 -20h-103l-40 20l-226 205v41l21 21h143l41 -21l184 -205v-41z
" />
    <glyph glyph-name="aacute" unicode="&#xe1;" horiz-adv-x="1024" 
d="M922 20l-21 -20h-143l-21 20l-20 82h-21q-3 -5 -10 -13t-32 -29t-55 -37.5t-81 -29.5t-108 -13q-168 0 -258.5 86t-90.5 241q0 163 121.5 245.5t329.5 82.5q45 0 91 -5.5t69 -10.5l24 -5l21 21v41q0 104 -47 144t-158 40q-106 0 -155.5 -30.5t-49.5 -92.5l-20 -20h-164
l-21 20q0 57 21.5 109t67.5 97.5t128.5 73t192.5 27.5q225 0 317.5 -107t92.5 -343v-574zM717 369v61l-21 21q-62 20 -164 20q-266 0 -266 -164q0 -75 45.5 -109t139.5 -34q122 0 194 56t72 149zM758 1372l-226 -205l-40 -20h-103l-20 20v41l184 205l41 21h143l21 -21v-41z
" />
    <glyph glyph-name="acircumflex" unicode="&#xe2;" horiz-adv-x="1024" 
d="M922 20l-21 -20h-143l-21 20l-20 82h-21q-3 -5 -10 -13t-32 -29t-55 -37.5t-81 -29.5t-108 -13q-168 0 -258.5 86t-90.5 241q0 163 121.5 245.5t329.5 82.5q45 0 91 -5.5t69 -10.5l24 -5l21 21v41q0 104 -47 144t-158 40q-106 0 -155.5 -30.5t-49.5 -92.5l-20 -20h-164
l-21 20q0 57 21.5 109t67.5 97.5t128.5 73t192.5 27.5q225 0 317.5 -107t92.5 -343v-574zM717 369v61l-21 21q-62 20 -164 20q-266 0 -266 -164q0 -75 45.5 -109t139.5 -34q122 0 194 56t72 149zM840 1167l-21 -20h-102l-41 20l-144 123h-40l-144 -123l-41 -20h-102l-21 20
v41l185 205l41 21h204l41 -21l185 -205v-41z" />
    <glyph glyph-name="atilde" unicode="&#xe3;" horiz-adv-x="1024" 
d="M655 1126q-46 0 -84.5 15t-64 36t-48 42t-45 36t-44.5 15q-82 0 -82 -103l-21 -20h-61l-21 20q0 99 51.5 162.5t153.5 63.5q46 0 84.5 -15t64.5 -36t48 -42t45 -36t45 -15q82 0 82 103l20 20h62l20 -20q0 -99 -51.5 -162.5t-153.5 -63.5zM922 20l-21 -20h-143l-21 20
l-20 82h-21q-3 -5 -10 -13t-32 -29t-55 -37.5t-81 -29.5t-108 -13q-168 0 -258.5 86t-90.5 241q0 163 121.5 245.5t329.5 82.5q45 0 91 -5.5t69 -10.5l24 -5l21 21v41q0 104 -47 144t-158 40q-106 0 -155.5 -30.5t-49.5 -92.5l-20 -20h-164l-21 20q0 57 21.5 109t67.5 97.5
t128.5 73t192.5 27.5q225 0 317.5 -107t92.5 -343v-574zM717 369v61l-21 21q-62 20 -164 20q-266 0 -266 -164q0 -75 45.5 -109t139.5 -34q122 0 194 56t72 149z" />
    <glyph glyph-name="adieresis" unicode="&#xe4;" horiz-adv-x="1024" 
d="M922 20l-21 -20h-143l-21 20l-20 82h-21q-3 -5 -10 -13t-32 -29t-55 -37.5t-81 -29.5t-108 -13q-168 0 -258.5 86t-90.5 241q0 163 121.5 245.5t329.5 82.5q45 0 91 -5.5t69 -10.5l24 -5l21 21v41q0 104 -47 144t-158 40q-106 0 -155.5 -30.5t-49.5 -92.5l-20 -20h-164
l-21 20q0 57 21.5 109t67.5 97.5t128.5 73t192.5 27.5q225 0 317.5 -107t92.5 -343v-574zM717 369v61l-21 21q-62 20 -164 20q-266 0 -266 -164q0 -75 45.5 -109t139.5 -34q122 0 194 56t72 149zM799 1208l-21 -20h-164l-20 20v164l20 21h164l21 -21v-164zM430 1208l-20 -20
h-164l-21 20v164l21 21h164l20 -21v-164z" />
    <glyph glyph-name="aring" unicode="&#xe5;" horiz-adv-x="1024" 
d="M922 20l-21 -20h-143l-21 20l-20 82h-21q-3 -5 -10 -13t-32 -29t-55 -37.5t-81 -29.5t-108 -13q-168 0 -258.5 86t-90.5 241q0 163 121.5 245.5t329.5 82.5q45 0 91 -5.5t69 -10.5l24 -5l21 21v41q0 104 -47 144t-158 40q-106 0 -155.5 -30.5t-49.5 -92.5l-20 -20h-164
l-21 20q0 57 21.5 109t67.5 97.5t128.5 73t192.5 27.5q225 0 317.5 -107t92.5 -343v-574zM717 369v61l-21 21q-62 20 -164 20q-266 0 -266 -164q0 -75 45.5 -109t139.5 -34q122 0 194 56t72 149zM717 1311q0 -78 -57 -131.5t-148 -53.5t-148 53.5t-57 131.5t57 131t148 53
t148 -53t57 -131zM594 1311q0 35 -20 58.5t-62 23.5t-62 -23.5t-20 -58.5t20 -58.5t62 -23.5t62 23.5t20 58.5z" />
    <glyph glyph-name="ae" unicode="&#xe6;" horiz-adv-x="1699" 
d="M717 369v61l-21 21q-62 20 -164 20q-266 0 -266 -164q0 -75 45.5 -109t139.5 -34q122 0 194 56t72 149zM1393 594l20 20q0 24 -3.5 49.5t-18.5 63t-40 65t-72.5 48t-111.5 20.5t-111.5 -20.5t-72 -48t-39.5 -65t-18.5 -63t-3.5 -49.5l20 -20h451zM1188 -20
q-136 0 -222 41t-147 102h-20q-77 -77 -165 -110t-224 -33q-168 0 -258.5 86t-90.5 241q0 163 121.5 245.5t329.5 82.5q45 0 91 -5.5t69 -10.5l24 -5l21 21v20q0 119 -46.5 162t-158.5 43q-106 0 -155.5 -30.5t-49.5 -92.5l-20 -20h-164l-21 20q0 57 21.5 109t67.5 97.5
t128.5 73t192.5 27.5q237 0 328 -122h20q44 59 127.5 90.5t179.5 31.5q119 0 211 -42.5t148 -116.5t84 -168.5t28 -204.5v-61l-20 -21h-676l-20 -20q0 -14 3 -32.5t11 -49t27 -57.5t46.5 -52t74 -40t104.5 -15q156 0 205 123l20 20h164l20 -20q-16 -130 -124.5 -218.5
t-284.5 -88.5z" />
    <glyph glyph-name="ccedilla" unicode="&#xe7;" horiz-adv-x="1064" 
d="M1004 328q-15 -149 -123 -240.5t-267 -107.5l-41 -21l-102 -102h21q41 20 81 20q51 0 87 -36t36 -107q0 -76 -55.5 -120t-148.5 -44q-60 0 -99 17.5t-86 64.5v20l21 21h20q28 -28 58 -34.5t86 -6.5q102 0 102 82t-102 82q-39 0 -82 -21h-21l-20 21v20l123 123v21
q-87 8 -162.5 43.5t-136.5 98.5t-96.5 163.5t-35.5 226.5q0 247 131 389.5t361 142.5q104 0 188 -28t138 -77t85.5 -110.5t39.5 -132.5l-21 -20h-164l-20 20q-40 164 -246 164q-138 0 -212.5 -90t-74.5 -258t74.5 -258t212.5 -90q206 0 246 164l20 20h164z" />
    <glyph glyph-name="egrave" unicode="&#xe8;" horiz-adv-x="1064" 
d="M758 594l20 20q0 24 -3.5 49.5t-18.5 63t-40 65t-72.5 48t-111.5 20.5t-111.5 -20.5t-72 -48t-39.5 -65t-18.5 -63t-3.5 -49.5l20 -20h451zM553 -20q-238 0 -365 146.5t-127 385.5q0 110 28 204.5t84 168.5t148 116.5t211 42.5t211.5 -42.5t148 -116.5t84 -168.5
t28.5 -204.5v-61l-21 -21h-676l-20 -20q0 -14 3 -32.5t11 -49t27 -57.5t46.5 -52t74 -40t104.5 -15q156 0 205 123l20 20h164l21 -20q-16 -130 -125 -218.5t-285 -88.5zM676 1167l-21 -20h-102l-41 20l-225 205v41l20 21h144l41 -21l184 -205v-41z" />
    <glyph glyph-name="eacute" unicode="&#xe9;" horiz-adv-x="1064" 
d="M758 594l20 20q0 24 -3.5 49.5t-18.5 63t-40 65t-72.5 48t-111.5 20.5t-111.5 -20.5t-72 -48t-39.5 -65t-18.5 -63t-3.5 -49.5l20 -20h451zM553 -20q-238 0 -365 146.5t-127 385.5q0 110 28 204.5t84 168.5t148 116.5t211 42.5t211.5 -42.5t148 -116.5t84 -168.5
t28.5 -204.5v-61l-21 -21h-676l-20 -20q0 -14 3 -32.5t11 -49t27 -57.5t46.5 -52t74 -40t104.5 -15q156 0 205 123l20 20h164l21 -20q-16 -130 -125 -218.5t-285 -88.5zM778 1372l-225 -205l-41 -20h-102l-21 20v41l184 205l41 21h144l20 -21v-41z" />
    <glyph glyph-name="ecircumflex" unicode="&#xea;" horiz-adv-x="1064" 
d="M758 594l20 20q0 24 -3.5 49.5t-18.5 63t-40 65t-72.5 48t-111.5 20.5t-111.5 -20.5t-72 -48t-39.5 -65t-18.5 -63t-3.5 -49.5l20 -20h451zM553 -20q-238 0 -365 146.5t-127 385.5q0 110 28 204.5t84 168.5t148 116.5t211 42.5t211.5 -42.5t148 -116.5t84 -168.5
t28.5 -204.5v-61l-21 -21h-676l-20 -20q0 -14 3 -32.5t11 -49t27 -57.5t46.5 -52t74 -40t104.5 -15q156 0 205 123l20 20h164l21 -20q-16 -130 -125 -218.5t-285 -88.5zM860 1167l-20 -20h-103l-41 20l-143 123h-41l-143 -123l-41 -20h-103l-20 20v41l184 205l41 21h205
l41 -21l184 -205v-41z" />
    <glyph glyph-name="edieresis" unicode="&#xeb;" horiz-adv-x="1064" 
d="M758 594l20 20q0 24 -3.5 49.5t-18.5 63t-40 65t-72.5 48t-111.5 20.5t-111.5 -20.5t-72 -48t-39.5 -65t-18.5 -63t-3.5 -49.5l20 -20h451zM553 -20q-238 0 -365 146.5t-127 385.5q0 110 28 204.5t84 168.5t148 116.5t211 42.5t211.5 -42.5t148 -116.5t84 -168.5
t28.5 -204.5v-61l-21 -21h-676l-20 -20q0 -14 3 -32.5t11 -49t27 -57.5t46.5 -52t74 -40t104.5 -15q156 0 205 123l20 20h164l21 -20q-16 -130 -125 -218.5t-285 -88.5zM819 1208l-20 -20h-164l-21 20v164l21 21h164l20 -21v-164zM451 1208l-21 -20h-164l-20 20v164l20 21
h164l21 -21v-164z" />
    <glyph glyph-name="igrave" unicode="&#xec;" horiz-adv-x="450" 
d="M328 20l-21 -20h-164l-20 20v984l20 20h164l21 -20v-984zM348 1167l-20 -20h-103l-41 20l-225 205v41l21 21h143l41 -21l184 -205v-41z" />
    <glyph glyph-name="iacute" unicode="&#xed;" horiz-adv-x="450" 
d="M328 20l-21 -20h-164l-20 20v984l20 20h164l21 -20v-984zM492 1372l-226 -205l-41 -20h-102l-21 20v41l185 205l41 21h143l21 -21v-41z" />
    <glyph glyph-name="icircumflex" unicode="&#xee;" horiz-adv-x="450" 
d="M328 20l-21 -20h-164l-20 20v984l20 20h164l21 -20v-984zM553 1167l-21 -20h-102l-41 20l-143 123h-41l-144 -123l-41 -20h-102l-20 20v41l184 205l41 21h205l41 -21l184 -205v-41z" />
    <glyph glyph-name="idieresis" unicode="&#xef;" horiz-adv-x="450" 
d="M328 20l-21 -20h-164l-20 20v984l20 20h164l21 -20v-984zM512 1208l-20 -20h-164l-21 20v164l21 21h164l20 -21v-164zM143 1208l-20 -20h-164l-20 20v164l20 21h164l20 -21v-164z" />
    <glyph glyph-name="eth" unicode="&#xf0;" horiz-adv-x="1064" 
d="M717 963h20q-27 140 -123 204h-20l-62 -61l-40 -21h-103l-20 21v61l61 62v20q-64 21 -143 21l-21 20v21l82 82l41 20q103 0 164 -20h20l62 61l41 21h123l20 -21v-41l-82 -82v-20q149 -119 208 -307t59 -492q0 -257 -126.5 -394.5t-345.5 -137.5q-95 0 -178 32t-149.5 95
t-105 167t-38.5 238q0 243 124.5 387.5t326.5 144.5q40 0 76 -8.5t58.5 -20t39.5 -23.5t24 -20zM799 512q0 348 -267 348q-266 0 -266 -348q0 -96 21 -166t59 -108.5t83.5 -56t102.5 -17.5q267 0 267 348z" />
    <glyph glyph-name="ntilde" unicode="&#xf1;" horiz-adv-x="1105" 
d="M696 1126q-46 0 -84.5 15t-64 36t-48 42t-45 36t-44.5 15q-82 0 -82 -103l-21 -20h-61l-21 20q0 99 51.5 162.5t153.5 63.5q46 0 84.5 -15t64.5 -36t48 -42t45 -36t45 -15q82 0 82 103l20 20h62l20 -20q0 -99 -51.5 -162.5t-153.5 -63.5zM1004 20l-21 -20h-164l-20 20
v594q0 36 -3.5 65.5t-16 64.5t-33.5 59t-60 40.5t-92 16.5q-139 0 -202.5 -82.5t-63.5 -265.5v-492l-21 -20h-164l-20 20v984l20 20h144l20 -20l21 -82h20q3 5 10 13t31 29t52 37.5t74.5 29.5t98.5 13q105 0 181.5 -32t121.5 -91t66 -135t21 -172v-594z" />
    <glyph glyph-name="ograve" unicode="&#xf2;" horiz-adv-x="1105" 
d="M61 512q0 247 131 389.5t361 142.5q229 0 360 -142.5t131 -389.5t-131 -389.5t-360 -142.5q-230 0 -361 142.5t-131 389.5zM266 512q0 -168 74.5 -258t212.5 -90t212.5 90t74.5 258t-74.5 258t-212.5 90t-212.5 -90t-74.5 -258zM696 1167l-20 -20h-103l-41 20l-225 205
v41l21 21h143l41 -21l184 -205v-41z" />
    <glyph glyph-name="oacute" unicode="&#xf3;" horiz-adv-x="1105" 
d="M61 512q0 247 131 389.5t361 142.5q229 0 360 -142.5t131 -389.5t-131 -389.5t-360 -142.5q-230 0 -361 142.5t-131 389.5zM266 512q0 -168 74.5 -258t212.5 -90t212.5 90t74.5 258t-74.5 258t-212.5 90t-212.5 -90t-74.5 -258zM799 1372l-226 -205l-41 -20h-102l-20 20
v41l184 205l41 21h143l21 -21v-41z" />
    <glyph glyph-name="ocircumflex" unicode="&#xf4;" horiz-adv-x="1105" 
d="M61 512q0 247 131 389.5t361 142.5q229 0 360 -142.5t131 -389.5t-131 -389.5t-360 -142.5q-230 0 -361 142.5t-131 389.5zM266 512q0 -168 74.5 -258t212.5 -90t212.5 90t74.5 258t-74.5 258t-212.5 90t-212.5 -90t-74.5 -258zM881 1167l-21 -20h-102l-41 20l-144 123
h-41l-143 -123l-41 -20h-102l-21 20v41l185 205l41 21h204l41 -21l185 -205v-41z" />
    <glyph glyph-name="otilde" unicode="&#xf5;" horiz-adv-x="1105" 
d="M61 512q0 247 131 389.5t361 142.5q229 0 360 -142.5t131 -389.5t-131 -389.5t-360 -142.5q-230 0 -361 142.5t-131 389.5zM266 512q0 -168 74.5 -258t212.5 -90t212.5 90t74.5 258t-74.5 258t-212.5 90t-212.5 -90t-74.5 -258zM696 1126q-46 0 -84.5 15t-64 36t-48 42
t-45 36t-44.5 15q-82 0 -82 -103l-21 -20h-61l-21 20q0 99 51.5 162.5t153.5 63.5q46 0 84.5 -15t64.5 -36t48 -42t45 -36t45 -15q82 0 82 103l20 20h62l20 -20q0 -99 -51.5 -162.5t-153.5 -63.5z" />
    <glyph glyph-name="odieresis" unicode="&#xf6;" horiz-adv-x="1105" 
d="M61 512q0 247 131 389.5t361 142.5q229 0 360 -142.5t131 -389.5t-131 -389.5t-360 -142.5q-230 0 -361 142.5t-131 389.5zM266 512q0 -168 74.5 -258t212.5 -90t212.5 90t74.5 258t-74.5 258t-212.5 90t-212.5 -90t-74.5 -258zM840 1208l-21 -20h-164l-20 20v164l20 21
h164l21 -21v-164zM471 1208l-20 -20h-164l-21 20v164l21 21h164l20 -21v-164z" />
    <glyph glyph-name="divide" unicode="&#xf7;" horiz-adv-x="1228" 
d="M1106 451l-21 -21h-942l-20 21v143l20 20h942l21 -20v-143zM737 41l-20 -21h-205l-20 21v205l20 20h205l20 -20v-205zM737 799l-20 -21h-205l-20 21v205l20 20h205l20 -20v-205z" />
    <glyph glyph-name="oslash" unicode="&#xf8;" horiz-adv-x="1105" 
d="M307 328l430 430v41q-61 61 -184 61q-138 0 -212.5 -90t-74.5 -258q0 -141 21 -184h20zM553 -20q-95 0 -181.5 31t-146.5 91h-20l-62 -61l-41 -21h-20l-21 21v41l82 82v20q-34 50 -58 138.5t-24 189.5q0 247 131 389.5t361 142.5q95 0 181.5 -31t146.5 -91h20l62 61
l41 21h20l20 -21v-41l-81 -82v-20q34 -50 57.5 -138.5t23.5 -189.5q0 -247 -131 -389.5t-360 -142.5zM799 696l-430 -430v-41q61 -61 184 -61q138 0 212.5 90t74.5 258q0 141 -21 184h-20z" />
    <glyph glyph-name="ugrave" unicode="&#xf9;" horiz-adv-x="1085" 
d="M963 20l-21 -20h-143l-21 20l-20 82h-21q-3 -5 -9.5 -13t-29.5 -29t-49 -37.5t-68.5 -29.5t-88.5 -13q-104 0 -181.5 35t-122 96.5t-65.5 136t-21 162.5v594l21 20h164l20 -20v-594q0 -246 205 -246q113 0 179.5 85.5t66.5 262.5v492l20 20h164l21 -20v-984zM655 1167
l-20 -20h-103l-40 20l-226 205v41l21 21h143l41 -21l184 -205v-41z" />
    <glyph glyph-name="uacute" unicode="&#xfa;" horiz-adv-x="1085" 
d="M963 20l-21 -20h-143l-21 20l-20 82h-21q-3 -5 -9.5 -13t-29.5 -29t-49 -37.5t-68.5 -29.5t-88.5 -13q-104 0 -181.5 35t-122 96.5t-65.5 136t-21 162.5v594l21 20h164l20 -20v-594q0 -246 205 -246q113 0 179.5 85.5t66.5 262.5v492l20 20h164l21 -20v-984zM799 1372
l-226 -205l-41 -20h-102l-20 20v41l184 205l41 21h143l21 -21v-41z" />
    <glyph glyph-name="ucircumflex" unicode="&#xfb;" horiz-adv-x="1085" 
d="M963 20l-21 -20h-143l-21 20l-20 82h-21q-3 -5 -9.5 -13t-29.5 -29t-49 -37.5t-68.5 -29.5t-88.5 -13q-104 0 -181.5 35t-122 96.5t-65.5 136t-21 162.5v594l21 20h164l20 -20v-594q0 -246 205 -246q113 0 179.5 85.5t66.5 262.5v492l20 20h164l21 -20v-984zM860 1167
l-20 -20h-103l-41 20l-143 123h-41l-143 -123l-41 -20h-103l-20 20v41l184 205l41 21h205l41 -21l184 -205v-41z" />
    <glyph glyph-name="udieresis" unicode="&#xfc;" horiz-adv-x="1085" 
d="M963 20l-21 -20h-143l-21 20l-20 82h-21q-3 -5 -9.5 -13t-29.5 -29t-49 -37.5t-68.5 -29.5t-88.5 -13q-104 0 -181.5 35t-122 96.5t-65.5 136t-21 162.5v594l21 20h164l20 -20v-594q0 -246 205 -246q113 0 179.5 85.5t66.5 262.5v492l20 20h164l21 -20v-984zM819 1208
l-20 -20h-164l-21 20v164l21 21h164l20 -21v-164zM451 1208l-21 -20h-164l-20 20v164l20 21h164l21 -21v-164z" />
    <glyph glyph-name="yacute" unicode="&#xfd;" horiz-adv-x="1044" 
d="M983 860l-328 -819q-38 -96 -71 -157t-69 -105t-81.5 -66t-98.5 -31.5t-130 -9.5h-41l-21 21v143l21 21h41q82 0 129 25t76 98v20l-349 860v144l21 20h123l20 -20l287 -758h20l287 758l21 20h123l20 -20v-144zM778 1372l-225 -205l-41 -20h-102l-21 20v41l184 205l41 21
h144l20 -21v-41z" />
    <glyph glyph-name="thorn" unicode="&#xfe;" horiz-adv-x="1126" 
d="M1044 512q0 -237 -107.5 -384.5t-301.5 -147.5q-57 0 -108 12.5t-82 30.5t-54.5 36t-32.5 31l-10 12h-20v-491l-21 -21h-164l-20 21v1802l20 21h164l21 -21v-491h20q3 5 10 13t32 29t55 37.5t81.5 29.5t108.5 13q194 0 301.5 -147.5t107.5 -384.5zM840 512q0 170 -62 259
t-184 89q-266 0 -266 -348t266 -348q122 0 184 89t62 259z" />
    <glyph glyph-name="ydieresis" unicode="&#xff;" horiz-adv-x="1044" 
d="M819 1208l-20 -20h-164l-21 20v164l21 21h164l20 -21v-164zM430 1208l-20 -20h-164l-21 20v164l21 21h164l20 -21v-164zM983 860l-328 -819q-38 -96 -71 -157t-69 -105t-81.5 -66t-98.5 -31.5t-130 -9.5h-41l-21 21v143l21 21h41q82 0 129 25t76 98v20l-349 860v144
l21 20h123l20 -20l287 -758h20l287 758l21 20h123l20 -20v-144z" />
    <glyph glyph-name="dotlessi" unicode="&#x131;" horiz-adv-x="450" 
d="M328 20l-21 -20h-164l-20 20v984l20 20h164l21 -20v-984z" />
    <glyph glyph-name="Lslash" unicode="&#x141;" horiz-adv-x="1105" 
d="M164 410h-21l-82 -62h-61l-20 21v123l163 122l21 41v758l20 21h164l21 -21v-635h20l328 246h61l21 -20v-123l-410 -308l-20 -41v-327l20 -21h676l20 -20v-144l-20 -20h-881l-20 20v390z" />
    <glyph glyph-name="lslash" unicode="&#x142;" horiz-adv-x="430" 
d="M348 963h21l82 61h61l20 -20v-123l-163 -123l-21 -41v-697l-20 -20h-164l-21 20v574h-20l-82 -62h-61l-21 21v123l164 123l20 41v573l21 21h164l20 -21v-450z" />
    <glyph glyph-name="OE" unicode="&#x152;" horiz-adv-x="2068" 
d="M1044 1413l21 21h860l21 -21v-143l-21 -21h-655l-21 -20v-389l21 -21h614l21 -20v-144l-21 -20h-614l-21 -21v-409l21 -21h655l21 -20v-144l-21 -20h-860l-21 20v62h-20q-5 -4 -14.5 -11t-43 -24.5t-71 -31t-97 -24.5t-122.5 -11q-285 0 -450 188.5t-165 548.5t165 548.5
t450 188.5q63 0 122 -10.5t98.5 -25.5t69.5 -30t44 -26l14 -10h20v61zM1044 348v737q-30 89 -125 137t-223 48q-430 0 -430 -553t430 -553q128 0 223 47.5t125 136.5z" />
    <glyph glyph-name="oe" unicode="&#x153;" horiz-adv-x="1822" 
d="M553 164q138 0 212.5 90t74.5 258t-74.5 258t-212.5 90t-212.5 -90t-74.5 -258t74.5 -258t212.5 -90zM1516 594l20 20q0 24 -3.5 49.5t-18.5 63t-40 65t-72.5 48t-111.5 20.5t-111.5 -20.5t-72.5 -48t-40 -65t-18.5 -63t-3.5 -49.5l21 -20h451zM553 -20
q-230 0 -361 142.5t-131 389.5t131 389.5t361 142.5q248 0 369 -163h20q121 163 348 163q119 0 211 -42.5t148 -116.5t84 -168.5t28 -204.5v-61l-20 -21h-676l-21 -20q0 -18 3.5 -41.5t20 -62t43 -68.5t79 -52t121.5 -22q156 0 205 123l20 20h164l20 -20
q-16 -130 -124.5 -218.5t-284.5 -88.5q-226 0 -369 143h-20q-143 -143 -369 -143z" />
    <glyph glyph-name="Scaron" unicode="&#x160;" horiz-adv-x="1290" 
d="M1208 389q0 -87 -32.5 -159.5t-97.5 -129t-173 -88.5t-250 -32q-266 0 -419.5 122.5t-153.5 348.5l20 20h164l21 -20q0 -149 99 -218t290 -69q149 0 238.5 54.5t89.5 170.5q0 55 -16 94.5t-44.5 66.5t-82 47t-113.5 32.5t-154 25.5q-471 67 -471 410q0 72 29 139
t87.5 124t160.5 91.5t235 34.5q118 0 213 -24.5t167.5 -75t112 -134.5t39.5 -196l-20 -20h-164l-20 20q0 128 -78 187t-271 59q-136 0 -211 -55.5t-75 -149.5q0 -118 81.5 -166t307.5 -80q91 -13 162 -33t134.5 -53.5t105 -79.5t65.5 -113t24 -151zM307 1823l21 20h102
l41 -20l143 -123h41l144 123l41 20h102l21 -20v-41l-185 -205l-41 -21h-205l-40 21l-185 205v41z" />
    <glyph glyph-name="scaron" unicode="&#x161;" horiz-adv-x="942" 
d="M881 287q0 -63 -24.5 -117.5t-72.5 -97.5t-128.5 -67.5t-184.5 -24.5q-199 0 -304.5 89.5t-105.5 258.5l21 20h164l20 -20q0 -164 205 -164q106 0 155.5 30.5t49.5 92.5q0 31 -9 52.5t-25 37t-51 28.5t-73.5 22.5t-107.5 23.5q-163 33 -245.5 104t-82.5 203
q0 56 21 105.5t65 91t122 65.5t181 24q175 0 282 -79t107 -228l-20 -20h-164l-21 20q0 53 -42.5 88t-141.5 35q-86 0 -135 -22.5t-49 -79.5q0 -31 11.5 -53t29 -37t57.5 -28.5t78 -22.5t110 -23q159 -32 233.5 -102.5t74.5 -204.5zM143 1413l21 21h102l41 -21l144 -123h41
l143 123l41 21h102l21 -21v-41l-185 -205l-41 -20h-204l-41 20l-185 205v41z" />
    <glyph glyph-name="Ydieresis" unicode="&#x178;" 
d="M1126 1270l-430 -697v-553l-20 -20h-164l-20 20v553l-431 697v143l21 21h82l41 -21l368 -614h41l369 614l41 21h82l20 -21v-143zM881 1618l-21 -21h-164l-20 21v164l20 20h164l21 -20v-164zM512 1618l-20 -21h-164l-21 21v164l21 20h164l20 -20v-164z" />
    <glyph glyph-name="Zcaron" unicode="&#x17d;" horiz-adv-x="1228" 
d="M1126 20l-20 -20h-983l-21 20v164l21 41l717 1004v20h-697l-20 21v143l20 21h922l20 -21v-164l-20 -41l-717 -1003v-21h758l20 -20v-144zM287 1823l20 20h103l41 -20l143 -123h41l143 123l41 20h103l20 -20v-41l-184 -205l-41 -21h-205l-41 21l-184 205v41z" />
    <glyph glyph-name="zcaron" unicode="&#x17e;" horiz-adv-x="1024" 
d="M942 20l-20 -20h-820l-20 20v164l20 41l553 594v21h-532l-21 20v144l21 20h778l21 -20v-164l-21 -41l-553 -594v-21h574l20 -20v-144zM225 1413l21 21h102l41 -21l143 -123h41l144 123l41 21h102l21 -21v-41l-185 -205l-41 -20h-204l-41 20l-185 205v41z" />
    <glyph glyph-name="florin" unicode="&#x192;" 
d="M819 1147l-20 -103l20 -20h266l21 -20v-123l-21 -21h-307l-20 -20l-185 -922q-17 -83 -41.5 -139t-70 -101t-119 -66.5t-178.5 -21.5h-21l-20 21v123l20 20h41q87 0 128 40.5t57 123.5l184 922l-21 20h-143l-20 21v123l20 20h184l21 20l20 103q31 154 116 220.5t253 66.5
h41l20 -21v-123l-20 -20h-61q-65 0 -97.5 -25t-46.5 -98z" />
    <glyph glyph-name="circumflex" unicode="&#x2c6;" horiz-adv-x="1024" 
d="M840 1167l-21 -20h-102l-41 20l-144 123h-40l-144 -123l-41 -20h-102l-21 20v41l185 205l41 21h204l41 -21l185 -205v-41z" />
    <glyph glyph-name="caron" unicode="&#x2c7;" horiz-adv-x="1024" 
d="M184 1413l21 21h102l41 -21l144 -123h40l144 123l41 21h102l21 -21v-41l-185 -205l-41 -20h-204l-41 20l-185 205v41z" />
    <glyph glyph-name="uni02C9" unicode="&#x2c9;" horiz-adv-x="1024" 
d="M840 1208l-21 -20h-614l-21 20v123l21 21h614l21 -21v-123z" />
    <glyph glyph-name="breve" unicode="&#x2d8;" horiz-adv-x="1024" 
d="M348 1413l21 -20q0 -59 39.5 -91t103.5 -32t103.5 32t39.5 91l21 20h102l21 -20q0 -121 -81 -194t-206 -73t-206 73t-81 194l21 20h102z" />
    <glyph glyph-name="dotaccent" unicode="&#x2d9;" horiz-adv-x="1024" 
d="M614 1208l-20 -20h-164l-20 20v164l20 21h164l20 -21v-164z" />
    <glyph glyph-name="ring" unicode="&#x2da;" horiz-adv-x="1024" 
d="M717 1311q0 -78 -57 -131.5t-148 -53.5t-148 53.5t-57 131.5t57 131t148 53t148 -53t57 -131zM594 1311q0 35 -20 58.5t-62 23.5t-62 -23.5t-20 -58.5t20 -58.5t62 -23.5t62 23.5t20 58.5z" />
    <glyph glyph-name="ogonek" unicode="&#x2db;" horiz-adv-x="1024" 
d="M471 0h164q-93 -15 -149 -59t-56 -105q0 -46 28 -74t74 -28q27 0 53 5t38 10l12 5l20 -20v-82l-20 -21q-61 -41 -143 -41q-94 0 -160 57.5t-66 147.5q0 85 59 136.5t146 68.5z" />
    <glyph glyph-name="tilde" unicode="&#x2dc;" horiz-adv-x="1024" 
d="M635 1126q-46 0 -84.5 15t-64.5 36t-48 42t-45 36t-45 15q-82 0 -82 -103l-20 -20h-62l-20 20q0 99 51.5 162.5t153.5 63.5q46 0 84.5 -15t64 -36t48 -42t45 -36t44.5 -15q82 0 82 103l21 20h61l21 -20q0 -99 -51.5 -162.5t-153.5 -63.5z" />
    <glyph glyph-name="hungarumlaut" unicode="&#x2dd;" horiz-adv-x="1024" 
d="M512 1372l-225 -205l-41 -20h-103l-20 20v41l184 205l41 21h144l20 -21v-41zM922 1372l-226 -205l-41 -20h-102l-21 20v41l185 205l41 21h143l21 -21v-41z" />
    <glyph glyph-name="uni0394" unicode="&#x394;" 
d="M82 0l-21 20v144l410 1249l21 21h204l21 -21l409 -1249v-144l-20 -20h-1024zM573 1147l-307 -942v-21h656v21l-308 942h-41z" />
    <glyph glyph-name="uni03A9" unicode="&#x3a9;" horiz-adv-x="1556" 
d="M410 184v21q-71 71 -112 116.5t-84 104.5t-64 113t-34.5 124.5t-13.5 155.5q0 158 50.5 280t142 199t213.5 116.5t270 39.5t270 -39.5t213.5 -116.5t142 -199t50.5 -280q0 -85 -13.5 -155.5t-34.5 -124.5t-63.5 -113t-83.5 -104.5t-112 -116.5v-21h246l20 -20v-144
l-20 -20h-471l-21 20v164l21 41q56 56 83.5 84.5t70 75t62.5 76t46 73t37 81t19.5 85t8.5 99.5q0 239 -124 355t-347 116t-347 -116t-124 -355q0 -52 8.5 -99.5t19.5 -85t37.5 -81.5t46 -72.5t62.5 -76t70 -75t84 -84.5l20 -41v-164l-20 -20h-471l-21 20v144l21 20h246z" />
    <glyph glyph-name="uni03BC" unicode="&#x3bc;" 
d="M819 61h-20q-9 -9 -26 -22.5t-70.5 -36t-108.5 -22.5q-34 0 -68 8.5t-57.5 20t-42.5 23.5t-28 20l-9 9h-20v-450l-21 -21h-164l-20 21v1393l20 20h164l21 -20v-533q0 -152 58 -229.5t167 -77.5t167 77.5t58 229.5v533l21 20h164l20 -20v-984l-20 -20h-144l-20 20z" />
    <glyph glyph-name="pi" unicode="&#x3c0;" 
d="M1065 20l-21 -20h-327l-21 20v799l-20 21h-184l-21 -21v-799l-20 -20h-164l-21 20v799l-20 21h-123l-21 20v144l21 20h942l20 -20v-144l-20 -20h-143l-21 -21v-614l21 -21h122l21 -20v-144z" />
    <glyph glyph-name="endash" unicode="&#x2013;" horiz-adv-x="1269" 
d="M1147 451l-21 -21h-983l-20 21v143l20 20h983l21 -20v-143z" />
    <glyph glyph-name="emdash" unicode="&#x2014;" horiz-adv-x="2293" 
d="M2171 451l-21 -21h-2007l-20 21v143l20 20h2007l21 -20v-143z" />
    <glyph glyph-name="quoteleft" unicode="&#x2018;" horiz-adv-x="573" 
d="M410 1413l-123 -184v-21l20 -20h62l20 -21v-204l-20 -21h-205l-21 21v225l21 61l123 164l41 21h82v-21z" />
    <glyph glyph-name="quoteright" unicode="&#x2019;" horiz-adv-x="573" 
d="M430 1188l-20 -62l-123 -163l-41 -21h-82v21l123 184v20l-21 21h-61l-21 20v205l21 21h205l20 -21v-225z" />
    <glyph glyph-name="quotesinglbase" unicode="&#x201a;" horiz-adv-x="573" 
d="M410 0l-21 -61l-123 -164l-41 -21h-82v21l123 184v21l-20 20h-62l-20 20v205l20 21h205l21 -21v-225z" />
    <glyph glyph-name="quotedblleft" unicode="&#x201c;" horiz-adv-x="983" 
d="M819 1413l-123 -184v-21l21 -20h61l21 -21v-204l-21 -21h-205l-20 21v225l20 61l123 164l41 21h82v-21zM410 1413l-123 -184v-21l20 -20h62l20 -21v-204l-20 -21h-205l-21 21v225l21 61l123 164l41 21h82v-21z" />
    <glyph glyph-name="quotedblright" unicode="&#x201d;" horiz-adv-x="983" 
d="M840 1188l-21 -62l-123 -163l-41 -21h-82v21l123 184v20l-20 21h-62l-20 20v205l20 21h205l21 -21v-225zM430 1188l-20 -62l-123 -163l-41 -21h-82v21l123 184v20l-21 21h-61l-21 20v205l21 21h205l20 -21v-225z" />
    <glyph glyph-name="quotedblbase" unicode="&#x201e;" horiz-adv-x="983" 
d="M819 0l-20 -61l-123 -164l-41 -21h-82v21l123 184v21l-21 20h-61l-21 20v205l21 21h205l20 -21v-225zM410 0l-21 -61l-123 -164l-41 -21h-82v21l123 184v21l-20 20h-62l-20 20v205l20 21h205l21 -21v-225z" />
    <glyph glyph-name="dagger" unicode="&#x2020;" 
d="M696 -389l-20 -21h-164l-20 21v1208l-21 21h-369l-20 20v144l20 20h369l21 20v369l20 21h164l20 -21v-369l21 -20h368l21 -20v-144l-21 -20h-368l-21 -21v-1208z" />
    <glyph glyph-name="daggerdbl" unicode="&#x2021;" 
d="M492 1413l20 21h164l20 -21v-369l21 -20h368l21 -20v-144l-21 -20h-368l-21 -21v-614l21 -21h368l21 -20v-144l-21 -20h-368l-21 -20v-369l-20 -21h-164l-20 21v369l-21 20h-369l-20 20v144l20 20h369l21 21v614l-21 21h-369l-20 20v144l20 20h369l21 20v369z" />
    <glyph glyph-name="bullet" unicode="&#x2022;" horiz-adv-x="798" 
d="M635 532v-20l-225 -225h-21l-225 225v20l225 226h21z" />
    <glyph glyph-name="ellipsis" unicode="&#x2026;" horiz-adv-x="1474" 
d="M410 20l-21 -20h-205l-20 20v205l20 21h205l21 -21v-205zM860 20l-20 -20h-205l-21 20v205l21 21h205l20 -21v-205zM1311 20l-21 -20h-205l-20 20v205l20 21h205l21 -21v-205z" />
    <glyph glyph-name="perthousand" unicode="&#x2030;" horiz-adv-x="2355" 
d="M1925 -20q-85 0 -148 35t-98 87h-20q-35 -52 -98 -87t-148 -35q-177 0 -262.5 105.5t-85.5 283.5t85.5 283.5t262.5 105.5q85 0 148 -35.5t98 -87.5h20q35 52 98 87.5t148 35.5q177 0 262.5 -105.5t85.5 -283.5t-85.5 -283.5t-262.5 -105.5zM430 676q-177 0 -262.5 105.5
t-85.5 283.5t85.5 283.5t262.5 105.5t262.5 -105.5t85.5 -283.5t-85.5 -283.5t-262.5 -105.5zM266 1065q0 -112 37.5 -168.5t126.5 -56.5t126.5 56.5t37.5 168.5t-37.5 168.5t-126.5 56.5t-126.5 -56.5t-37.5 -168.5zM1249 369q0 -113 37.5 -169.5t126.5 -56.5t126.5 56.5
t37.5 169.5q0 112 -37.5 168.5t-126.5 56.5t-126.5 -56.5t-37.5 -168.5zM1761 369q0 -113 37.5 -169.5t126.5 -56.5t126.5 56.5t37.5 169.5q0 112 -37.5 168.5t-126.5 56.5t-126.5 -56.5t-37.5 -168.5zM1393 1270l-820 -1250l-20 -20h-82l-20 20v144l819 1249l20 21h82
l21 -21v-143z" />
    <glyph glyph-name="guilsinglleft" unicode="&#x2039;" horiz-adv-x="901" 
d="M737 82l-20 -21h-164l-41 21l-328 328l-20 41v122l20 41l328 328l41 21h164l20 -21v-61l-368 -349v-40l368 -349v-61z" />
    <glyph glyph-name="guilsinglright" unicode="&#x203a;" horiz-adv-x="901" 
d="M184 61l-20 21v61l368 349v40l-368 349v61l20 21h164l41 -21l328 -328l20 -41v-122l-20 -41l-328 -328l-41 -21h-164z" />
    <glyph glyph-name="fraction" unicode="&#x2044;" horiz-adv-x="1269" 
d="M1106 1270l-819 -1250l-21 -20h-82l-20 20v144l819 1249l21 21h81l21 -21v-143z" />
    <glyph glyph-name="Euro" unicode="&#x20ac;" horiz-adv-x="1454" 
d="M430 471q8 -49 35.5 -100t73.5 -99t119.5 -78t160.5 -30q151 0 234 60.5t114 185.5l21 20h164l20 -20q-30 -212 -174.5 -321t-378.5 -109q-231 0 -389.5 130.5t-204.5 360.5l-20 21h-144l-20 20v123l20 20h123l21 21v82l-21 20h-123l-20 21v123l20 20h144l20 21
q31 219 191.5 355t402.5 136q234 0 378.5 -109t174.5 -321l-20 -20h-164l-21 20q-31 125 -114 185.5t-234 60.5q-94 0 -169 -30t-119 -78.5t-68.5 -98t-32.5 -100.5l21 -21h491l21 -20v-123l-21 -21h-512l-20 -20v-82l20 -21h430l21 -20v-123l-21 -20h-409z" />
    <glyph glyph-name="uni2117" unicode="&#x2117;" horiz-adv-x="1720" 
d="M1085 881q0 46 -28 74t-74 28h-246l-20 -20v-164l20 -21h246q46 0 74 28.5t28 74.5zM983 635h-246l-20 -21v-286l-21 -21h-123l-20 21v778l20 20h410q126 0 196 -62t70 -183t-70.5 -183.5t-195.5 -62.5zM287 717q0 -162 74.5 -293.5t205.5 -206t293 -74.5q121 0 227.5 44
t182.5 120t120 182.5t44 227.5q0 162 -74.5 293t-206 205.5t-293.5 74.5t-293 -74.5t-205.5 -205.5t-74.5 -293zM123 717q0 151 58 287.5t156.5 235t235 156.5t287.5 58t287.5 -58t235 -156.5t156.5 -235t58 -287.5t-58 -287.5t-156.5 -235t-235 -156.5t-287.5 -58
t-287.5 58t-235 156.5t-156.5 235t-58 287.5z" />
    <glyph glyph-name="trademark" unicode="&#x2122;" horiz-adv-x="1699" 
d="M41 1413l20 21h594l21 -21v-82l-21 -20h-204l-21 -21v-573l-20 -21h-103l-20 21v573l-21 21h-205l-20 20v82zM1229 696h-103l-20 21l-164 409h-20v-409l-21 -21h-102l-21 21v696l21 21h143l21 -21l204 -512h21l205 512l20 21h143l21 -21v-696l-21 -21h-102l-20 21v409
h-21l-164 -409z" />
    <glyph glyph-name="Omega" unicode="&#x2126;" horiz-adv-x="1556" 
d="M410 184v21q-71 71 -112 116.5t-84 104.5t-64 113t-34.5 124.5t-13.5 155.5q0 158 50.5 280t142 199t213.5 116.5t270 39.5t270 -39.5t213.5 -116.5t142 -199t50.5 -280q0 -85 -13.5 -155.5t-34.5 -124.5t-63.5 -113t-83.5 -104.5t-112 -116.5v-21h246l20 -20v-144
l-20 -20h-471l-21 20v164l21 41q56 56 83.5 84.5t70 75t62.5 76t46 73t37 81t19.5 85t8.5 99.5q0 239 -124 355t-347 116t-347 -116t-124 -355q0 -52 8.5 -99.5t19.5 -85t37.5 -81.5t46 -72.5t62.5 -76t70 -75t84 -84.5l20 -41v-164l-20 -20h-471l-21 20v144l21 20h246z" />
    <glyph glyph-name="arrowleft" unicode="&#x2190;" horiz-adv-x="1761" 
d="M676 1024h164l20 -20v-21l-368 -369v-20h1085l20 -21v-122l-20 -21h-1085v-20l368 -369v-21l-20 -20h-164l-41 20l-471 472v40l471 472z" />
    <glyph glyph-name="arrowup" unicode="&#x2191;" horiz-adv-x="1351" 
d="M1188 922v-164l-21 -21h-20l-369 369h-20v-1086l-21 -20h-123l-20 20v1086h-21l-368 -369h-21l-20 21v164l20 41l471 471h41l471 -471z" />
    <glyph glyph-name="arrowright" unicode="&#x2192;" horiz-adv-x="1761" 
d="M922 1024h163l41 -20l471 -472v-40l-471 -472l-41 -20h-163l-21 20v21l369 369v20h-1086l-20 21v122l20 21h1086v20l-369 369v21z" />
    <glyph glyph-name="arrowdown" unicode="&#x2193;" horiz-adv-x="1351" 
d="M1188 676v-164l-21 -41l-471 -471h-41l-471 471l-20 41v164l20 20h21l368 -368h21v1085l20 21h123l21 -21v-1085h20l369 368h20z" />
    <glyph glyph-name="arrowboth" unicode="&#x2194;" horiz-adv-x="2170" 
d="M1495 0h-164l-20 20v21l368 369v20h-1187v-20l368 -369v-21l-20 -20h-164l-41 20l-471 472v40l471 472l41 20h164l20 -20v-21l-368 -369v-20h1187v20l-368 369v21l20 20h164l41 -20l471 -472v-40l-471 -472z" />
    <glyph glyph-name="arrowupdn" unicode="&#x2195;" horiz-adv-x="1351" 
d="M164 102v164l20 21h21l368 -369h21v1188h-21l-368 -369h-21l-20 21v164l20 41l471 471h41l471 -471l21 -41v-164l-21 -21h-20l-369 369h-20v-1188h20l369 369h20l21 -21v-164l-21 -41l-471 -471h-41l-471 471z" />
    <glyph glyph-name="uni2196" unicode="&#x2196;" horiz-adv-x="1413" 
d="M901 1413l103 -102v-21l-21 -20h-512v-21l778 -778v-20l-102 -103h-21l-778 778h-20v-512l-21 -20h-20l-103 102l-20 41v656l41 41h655z" />
    <glyph glyph-name="uni2197" unicode="&#x2197;" horiz-adv-x="1413" 
d="M410 1311l102 102l41 21h655l41 -41v-656l-20 -41l-103 -102h-20l-21 20v512h-20l-778 -778h-21l-102 103v20l778 778v21h-512l-20 20v21z" />
    <glyph glyph-name="uni2198" unicode="&#x2198;" horiz-adv-x="1413" 
d="M1004 123l-103 -103l-41 -20h-655l-41 41v655l20 41l103 103h20l21 -21v-512h20l778 778h21l102 -102v-20l-778 -779v-20h512l21 -21v-20z" />
    <glyph glyph-name="uni2199" unicode="&#x2199;" horiz-adv-x="1413" 
d="M512 20l-102 103v20l20 21h512v20l-778 779v20l102 102h21l778 -778h20v512l21 21h20l103 -103l20 -41v-655l-41 -41h-655z" />
    <glyph glyph-name="partialdiff" unicode="&#x2202;" 
d="M799 963h20q-8 60 -29 112.5t-59.5 103.5t-105 81t-154.5 30q-55 0 -106 -10t-75 -20l-24 -11l-20 21v123l20 20q9 5 26 11.5t70.5 18t108.5 11.5q303 0 448.5 -237.5t145.5 -704.5q0 -257 -126 -394.5t-345 -137.5q-95 0 -178 32t-149.5 95t-105 167t-38.5 238
q0 244 124 388t326 144q46 0 86 -8.5t64.5 -20t42.5 -23.5t26 -20zM860 512q0 348 -266 348t-266 -348q0 -96 21 -166t59 -108.5t83.5 -56t102.5 -17.5q266 0 266 348z" />
    <glyph glyph-name="Delta" unicode="&#x2206;" 
d="M82 0l-21 20v144l410 1249l21 21h204l21 -21l409 -1249v-144l-20 -20h-1024zM573 1147l-307 -942v-21h656v21l-308 942h-41z" />
    <glyph glyph-name="product" unicode="&#x220f;" 
d="M922 -389l-21 -21h-164l-20 21v1618l-21 20h-204l-21 -20v-1618l-20 -21h-164l-21 21v1618l-20 20h-144l-20 21v143l20 21h983l21 -21v-143l-21 -21h-143l-20 -20v-1618z" />
    <glyph glyph-name="summation" unicode="&#x2211;" 
d="M1085 -61l21 -21v-307l-21 -21h-983l-20 21v164l20 41l492 696v20l-471 676l-21 41v164l21 21h942l20 -21v-307l-20 -21h-164l-20 21v123l-21 20h-512v-20l410 -594l20 -41v-143l-20 -41l-430 -615v-20h553l20 20v123l21 21h163z" />
    <glyph glyph-name="minus" unicode="&#x2212;" horiz-adv-x="1146" 
d="M1024 451l-20 -21h-861l-20 21v143l20 20h861l20 -20v-143z" />
    <glyph glyph-name="uni2215" unicode="&#x2215;" horiz-adv-x="1269" 
d="M1106 1270l-819 -1250l-21 -20h-82l-20 20v144l819 1249l21 21h81l21 -21v-143z" />
    <glyph glyph-name="uni2219" unicode="&#x2219;" horiz-adv-x="573" 
d="M410 430l-21 -20h-205l-20 20v205l20 20h205l21 -20v-205z" />
    <glyph glyph-name="radical" unicode="&#x221a;" 
d="M451 307l327 1106l21 21h307l20 -21v-123l-20 -20h-164l-20 -21l-369 -1229l-21 -20h-184l-20 20l-246 840v144l20 20h123l21 -20l184 -697h21z" />
    <glyph glyph-name="infinity" unicode="&#x221e;" horiz-adv-x="1454" 
d="M737 471h-20q-44 -44 -71.5 -69t-76.5 -62t-99.5 -55.5t-100.5 -18.5q-125 0 -206 72.5t-81 193.5t81 194t206 73q50 0 100.5 -18.5t99.5 -55.5t76.5 -62t71.5 -69h20q44 44 71.5 69t76.5 62t99.5 55.5t100.5 18.5q125 0 206 -73t81 -194t-81 -193.5t-206 -72.5
q-50 0 -100.5 18.5t-99.5 55.5t-76.5 62t-71.5 69zM369 737q-92 0 -148.5 -56.5t-56.5 -148.5t56.5 -148t148.5 -56q44 0 86 15.5t85 48t68.5 55.5t67.5 65v41q-42 42 -67.5 65t-68.5 55.5t-85 48t-86 15.5zM1085 737q-44 0 -86 -15.5t-85 -48t-68.5 -55.5t-67.5 -65v-41
q42 -42 67.5 -65t68.5 -55.5t85 -48t86 -15.5q92 0 148.5 56t56.5 148t-56.5 148.5t-148.5 56.5z" />
    <glyph glyph-name="integral" unicode="&#x222b;" 
d="M430 -61l164 1146q15 105 48.5 175t85.5 107.5t112.5 52t142.5 14.5h82l20 -21l-20 -143l-21 -21h-61q-85 0 -127.5 -32t-56.5 -132l-164 -1146q-15 -105 -48.5 -175t-85.5 -107.5t-112.5 -52t-142.5 -14.5h-41l-21 21l21 143l20 21h21q85 0 127.5 32t56.5 132z" />
    <glyph glyph-name="approxequal" unicode="&#x2248;" 
d="M512 676q-38 38 -58 55.5t-48.5 32t-57.5 14.5q-58 0 -80 -40.5t-22 -123.5l-21 -20h-123l-20 20q0 80 16.5 145t52 116t96 79.5t142.5 28.5q51 0 95 -12.5t81.5 -37.5t58.5 -43.5t52 -49.5q39 -39 58 -56t48 -32t58 -15q58 0 80 40.5t22 123.5l21 21h122l21 -21
q0 -80 -16.5 -145t-52 -116t-96 -79.5t-142.5 -28.5q-51 0 -95 12.5t-81.5 38t-58 43.5t-52.5 50zM512 184q-39 39 -58 56t-48 32t-58 15q-58 0 -80 -40.5t-22 -123.5l-21 -21h-123l-20 21q0 80 16.5 145t52 116t96 79.5t142.5 28.5q51 0 95 -12.5t81.5 -38t58 -43.5
t52.5 -50q38 -38 58 -55.5t48.5 -32t57.5 -14.5q58 0 80 40.5t22 123.5l21 20h122l21 -20q0 -80 -16.5 -145t-52 -116t-96 -79.5t-142.5 -28.5q-51 0 -95 12.5t-81.5 37.5t-58.5 43.5t-52 49.5z" />
    <glyph glyph-name="notequal" unicode="&#x2260;" 
d="M840 983l20 21h41l21 -21v-41l-82 -123v-20h184l20 -21v-143l-20 -21h-307l-21 -20l-102 -164v-20h430l20 -21v-143l-20 -21h-553l-20 -20l-103 -164l-20 -21h-41l-21 21v41l82 123v20h-184l-21 21v143l21 21h307l21 20l102 164v20h-430l-21 21v143l21 21h553l20 20z" />
    <glyph glyph-name="lessequal" unicode="&#x2264;" 
d="M1044 20l-20 -20h-881l-20 20v144l20 20h881l20 -20v-144zM123 758l20 20l676 246h205l20 -20v-82l-20 -21l-655 -225v-41l655 -225l20 -21v-82l-20 -20h-205l-676 245l-20 21v205z" />
    <glyph glyph-name="greaterequal" unicode="&#x2265;" 
d="M143 0l-20 20v144l20 20h881l20 -20v-144l-20 -20h-881zM1024 778l20 -20v-205l-20 -21l-676 -245h-205l-20 20v82l20 21l656 225v41l-656 225l-20 21v82l20 20h205z" />
    <glyph glyph-name="lozenge" unicode="&#x25ca;" 
d="M1085 778v-123l-389 -635l-20 -20h-164l-20 20l-390 635v123l390 635l20 21h164l20 -21zM307 737v-41l266 -450h41l267 450v41l-267 451h-41z" />
    <glyph glyph-name="zero.osf" horiz-adv-x="1105" 
d="M61 512q0 235 133 383.5t359 148.5t358.5 -148.5t132.5 -383.5t-132.5 -383.5t-358.5 -148.5t-359 148.5t-133 383.5zM266 512q0 -94 32.5 -172t99 -127t155.5 -49q135 0 211 95.5t76 252.5t-76 252.5t-211 95.5t-211 -95.5t-76 -252.5z" />
    <glyph glyph-name="one.osf" horiz-adv-x="634" 
d="M492 0h-164l-21 20v738h-20l-144 -144h-61l-21 21v143l226 226l41 20h164l20 -20v-984z" />
    <glyph glyph-name="two.osf" horiz-adv-x="1064" 
d="M1004 20l-21 -20h-881l-20 20v144l20 41l410 205q89 45 138.5 79t78.5 80.5t29 106.5q0 83 -55 133.5t-171 50.5q-66 0 -112.5 -16.5t-69.5 -45t-33 -58.5t-10 -64l-20 -21h-164l-21 21q0 72 24.5 135.5t74.5 117t135 84.5t196 31q89 0 162.5 -20.5t122.5 -55.5t82.5 -83
t48.5 -100t15 -109q0 -60 -19.5 -111.5t-50 -90t-78 -74.5t-93.5 -61t-108 -52l-184 -82v-21h553l21 -20v-144z" />
    <glyph glyph-name="three.osf" horiz-adv-x="1064" 
d="M1024 61q0 -228 -139.5 -359.5t-372.5 -131.5q-210 0 -340.5 118.5t-130.5 291.5l20 20h164l21 -20q0 -40 16 -78.5t47.5 -72.5t84 -54.5t118.5 -20.5q150 0 228.5 82.5t78.5 224.5q0 137 -71 212t-195 75q-45 0 -86 -15t-59 -31l-19 -15h-61l-21 20v144l389 368v21h-573
l-21 20v144l21 20h799l20 -20v-164l-20 -41l-308 -287v-20q52 6 106 -3.5t109 -40t98 -79t70 -128.5t27 -180z" />
    <glyph glyph-name="four.osf" horiz-adv-x="1085" 
d="M963 -389l-21 -21h-164l-20 21v369l-21 20h-676l-20 20v164l20 41l656 779l41 20h184l21 -20v-1393zM758 205v553h-21l-471 -553v-21h471z" />
    <glyph glyph-name="five.osf" horiz-adv-x="1146" 
d="M1065 102q0 -270 -127.5 -401t-364.5 -131q-222 0 -338.5 108.5t-132.5 301.5l21 20h164l20 -20q9 -53 22 -88.5t41 -69.5t78.5 -51t124.5 -17q287 0 287 328q0 149 -60 228t-206 79q-57 0 -105.5 -17t-77 -41t-48.5 -48t-27 -41l-8 -17l-41 -20l-144 20l-20 21l41 758
l20 20h799l21 -20v-144l-21 -20h-614l-21 -21l-20 -368h20q3 5 10 13t32 29t55 37.5t81.5 29.5t108.5 13q111 0 196 -38.5t135 -105.5t74.5 -149.5t24.5 -177.5z" />
    <glyph glyph-name="six.osf" horiz-adv-x="1146" 
d="M82 696q0 211 36 359.5t107.5 235t166 125t222.5 38.5q187 0 301 -90.5t129 -257.5l-20 -21h-164l-20 21q-15 89 -74.5 126.5t-171.5 37.5q-287 0 -287 -430h21q3 4 10 11t32 24.5t55 31t81 24.5t108 11q213 0 332 -126.5t119 -344.5q0 -229 -127 -360t-344 -131
q-96 0 -171.5 21t-141 72t-108.5 132t-67 204.5t-24 286.5zM860 451q0 149 -60 228t-206 79q-138 0 -212.5 -74.5t-74.5 -212.5q0 -147 76 -227t190 -80q138 0 212.5 74.5t74.5 212.5z" />
    <glyph glyph-name="seven.osf" horiz-adv-x="1024" 
d="M963 840l-594 -1229l-21 -21h-102l-21 21v164l512 1044v21h-655l-21 20v144l21 20h860l21 -20v-164z" />
    <glyph glyph-name="eight.osf" horiz-adv-x="1105" 
d="M1044 410q0 -86 -31 -162.5t-90.5 -136.5t-155 -95.5t-214.5 -35.5t-214.5 35.5t-155 95.5t-91 136.5t-31.5 162.5q0 73 20 134t52.5 102.5t65 67.5t67.5 44v20q-164 110 -164 287q0 79 28 148t82 123.5t142 86t199 31.5t199 -31.5t142 -86t82 -123.5t28 -148
q0 -177 -164 -287v-20q35 -18 67 -44t65 -67.5t52.5 -102.5t19.5 -134zM799 1065q0 87 -59 146t-187 59t-187 -59t-59 -146q0 -97 64 -161t182 -64t182 64t64 161zM840 410q0 116 -71 191t-216 75t-216 -75t-71 -191q0 -102 72 -174t215 -72t215 72t72 174z" />
    <glyph glyph-name="nine.osf" horiz-adv-x="1146" 
d="M1065 348q0 -213 -34 -363t-102.5 -241t-165.5 -132.5t-231 -41.5q-172 0 -283 91t-126 257l20 21h164l21 -21q14 -88 71 -126t154 -38q59 0 106 19.5t76.5 47.5t51 73t31.5 81t15.5 88t6 77.5t0.5 64.5h-21q-3 -4 -10 -11t-32 -25t-55 -31.5t-81.5 -24.5t-108.5 -11
q-201 0 -325.5 128.5t-124.5 342.5q0 223 132 347t339 124q128 0 219.5 -34.5t159 -113.5t100.5 -215t33 -333zM287 573q0 -137 71 -211.5t195 -74.5q138 0 212.5 74t74.5 212q0 147 -78 217t-209 70q-124 0 -195 -75t-71 -212z" />
    <glyph glyph-name="numbersign.tf" 
d="M532 164l62 225l-21 21h-143l-20 -21l-103 -369l-20 -20h-103l-20 20v144l61 225l-20 21h-144l-20 20v123l20 20h205l21 21l61 246l-20 20h-164l-21 21v123l21 20h225l21 20l102 369l20 21h103l20 -21v-143l-61 -226l20 -20h144l20 20l103 369l20 21h103l20 -21v-143
l-61 -226l20 -20h143l21 -20v-123l-21 -21h-204l-21 -20l-61 -246l20 -21h164l20 -20v-123l-20 -20h-225l-21 -21l-102 -369l-21 -20h-102l-21 20v144zM492 573h143l20 21l62 246l-21 20h-143l-21 -20l-61 -246z" />
    <glyph glyph-name="dollar.tf" 
d="M676 -164l-21 -20h-123l-20 20v123l-20 21q-225 30 -328 148t-103 323l21 20h164l20 -20q0 -58 10 -103t33.5 -85.5t69.5 -66t113 -32.5l20 20v451l-20 20q-205 47 -307.5 146t-102.5 264q0 151 97 255.5t313 133.5l20 21v122l20 21h123l21 -21v-122l20 -21
q180 -15 284.5 -135.5t104.5 -294.5l-20 -20h-164l-20 20q0 96 -48 164t-137 82l-20 -21v-409l20 -21q430 -86 430 -430q0 -47 -11 -94t-41 -100t-76 -95t-124 -75t-178 -45l-20 -21v-123zM922 389q0 100 -62 154t-164 71l-20 -20v-410l20 -20q107 15 166.5 74t59.5 151z
M287 1065q0 -172 205 -205l20 21v368l-20 21q-112 -14 -158.5 -72.5t-46.5 -132.5z" />
    <glyph glyph-name="plus.tf" 
d="M1085 451l-20 -21h-348l-21 -20v-349l-20 -20h-144l-20 20v349l-20 20h-349l-20 21v143l20 20h349l20 21v348l20 21h144l20 -21v-348l21 -21h348l20 -20v-143z" />
    <glyph glyph-name="zero.tf" 
d="M82 717q0 162 26 288.5t71.5 210t111 138t140 77.5t163.5 23t163.5 -23t140 -77.5t111 -138t71.5 -210t26 -288.5t-26 -288.5t-71.5 -210t-111 -138t-140 -77.5t-163.5 -23t-163.5 23t-140 77.5t-111 138t-71.5 210t-26 288.5zM287 717q0 -150 21.5 -258.5t63 -172
t96.5 -93t126 -29.5t126 29.5t96.5 93t63 172t21.5 258.5t-21.5 258.5t-63 172t-96.5 93t-126 29.5t-126 -29.5t-96.5 -93t-63 -172t-21.5 -258.5z" />
    <glyph glyph-name="one.tf" 
d="M102 20v144l21 20h389l20 21v962h-20l-266 -266h-41l-21 21v163l328 328l41 21h164l20 -21v-1208l21 -21h327l21 -20v-144l-21 -20h-962z" />
    <glyph glyph-name="two.tf" 
d="M1085 20l-20 -20h-922l-20 20v164l20 41l410 369q71 64 109.5 101t78.5 81.5t58 79.5t29.5 77t11.5 91t-13 91t-40.5 78t-77 56.5t-115.5 20.5q-134 0 -200 -69.5t-66 -196.5l-21 -21h-164l-20 21q0 205 123 327.5t348 122.5q95 0 172.5 -25t128 -66t85 -95.5
t49.5 -110.5t15 -113q0 -55 -7 -101.5t-28 -109t-69 -128.5t-121 -132l-409 -368v-21h655l20 -20v-144z" />
    <glyph glyph-name="three.tf" 
d="M1085 471q0 -228 -139.5 -359.5t-372.5 -131.5q-210 0 -340.5 118t-130.5 291l21 21h164l20 -21q0 -40 16 -78.5t47.5 -72t84 -54t118.5 -20.5q150 0 229 82.5t79 224.5q0 137 -71.5 212t-195.5 75q-45 0 -86 -15.5t-59 -30.5l-18 -16h-62l-20 21v143l389 369v20h-574
l-20 21v143l20 21h799l21 -21v-164l-21 -41l-307 -286v-21q52 6 106 -3.5t109 -40t97.5 -79t69.5 -128t27 -179.5z" />
    <glyph glyph-name="four.tf" 
d="M1004 20l-21 -20h-164l-20 20v369l-21 21h-676l-20 20v164l20 41l656 778l41 21h184l21 -21v-1393zM799 614v553h-21l-471 -553v-20h471z" />
    <glyph glyph-name="five.tf" 
d="M1106 512q0 -270 -127.5 -401t-364.5 -131q-222 0 -338.5 108.5t-132.5 300.5l21 21h164l20 -21q9 -53 22 -88.5t41 -69t78.5 -50.5t124.5 -17q287 0 287 328q0 149 -60 228t-206 79q-57 0 -105.5 -17t-77 -41t-48.5 -48t-28 -41l-7 -17l-41 -21l-144 21l-20 20l41 758
l20 21h799l20 -21v-143l-20 -21h-614l-21 -20l-20 -369h20q3 5 10 13.5t32 29.5t55 37t81.5 29.5t108.5 13.5q111 0 196 -38.5t135 -105.5t74.5 -149.5t24.5 -177.5z" />
    <glyph glyph-name="six.tf" 
d="M102 696q0 169 24.5 298.5t68.5 216t111 141.5t147.5 78.5t181.5 23.5q187 0 301 -90.5t129 -257.5l-21 -21h-163l-21 21q-15 89 -74.5 126.5t-171.5 37.5q-59 0 -106 -19.5t-76.5 -47t-50.5 -71.5t-31 -79t-15.5 -84.5t-6 -72t-0.5 -56.5h20q3 4 10 11t32 24.5t55 31
t81.5 24.5t108.5 11q213 0 331.5 -126.5t118.5 -344.5q0 -229 -127 -360t-344 -131q-96 0 -171.5 21t-141 72t-108.5 132t-67 204.5t-24 286.5zM881 451q0 148 -60.5 227.5t-206.5 79.5q-138 0 -212 -74.5t-74 -212.5q0 -147 76 -227t190 -80q138 0 212.5 74.5t74.5 212.5z
" />
    <glyph glyph-name="seven.tf" 
d="M1044 1249l-593 -1229l-21 -20h-102l-21 20v164l512 1045v20h-655l-21 21v143l21 21h860l20 -21v-164z" />
    <glyph glyph-name="eight.tf" 
d="M1085 410q0 -86 -31 -162.5t-90.5 -136.5t-155 -95.5t-214.5 -35.5t-214.5 35.5t-155 95.5t-91 136.5t-31.5 162.5q0 73 20 134t52.5 102.5t65 67.5t67.5 44v20q-164 110 -164 287q0 79 28 148t82 123.5t142 86t199 31.5t199 -31.5t141.5 -86t81.5 -123.5t28 -148
q0 -177 -163 -287v-20q35 -18 67 -44t65 -67.5t52.5 -102.5t19.5 -134zM840 1065q0 87 -59 146t-187 59t-187 -59t-59 -146q0 -97 64 -161t182 -64t182 64t64 161zM881 410q0 116 -71 191t-216 75t-216 -75t-71 -191q0 -102 71.5 -174t215.5 -72t215.5 72t71.5 174z" />
    <glyph glyph-name="nine.tf" 
d="M1085 758q0 -213 -33.5 -363t-102.5 -241t-165.5 -132.5t-230.5 -41.5q-172 0 -283.5 91.5t-126.5 256.5l21 20h164l20 -20q14 -88 71 -126t154 -38q59 0 106 19.5t76.5 47t51 72.5t31.5 81t15.5 88t6 77.5t0.5 64.5h-20q-3 -4 -10 -11t-32 -24.5t-55 -31t-81.5 -24.5
t-108.5 -11q-201 0 -326 128.5t-125 342.5q0 223 132 347t339 124q128 0 219.5 -34.5t159 -113.5t100.5 -215t33 -333zM307 983q0 -137 71 -212t195 -75q138 0 212.5 74.5t74.5 212.5q0 147 -78 217t-209 70q-124 0 -195 -75t-71 -212z" />
    <glyph glyph-name="less.tf" 
d="M143 573l21 41l799 410h41l20 -20v-123l-20 -41l-635 -308v-40l635 -308l20 -41v-123l-20 -20h-41l-799 410l-21 41v122z" />
    <glyph glyph-name="equal.tf" 
d="M1024 635l-20 -21h-820l-20 21v143l20 21h820l20 -21v-143zM1024 246l-20 -21h-820l-20 21v143l20 21h820l20 -21v-143z" />
    <glyph glyph-name="greater.tf" 
d="M1024 614l20 -41v-122l-20 -41l-799 -410h-41l-20 20v123l20 41l635 308v40l-635 308l-20 41v123l20 20h41z" />
    <glyph glyph-name="asciitilde.tf" 
d="M512 430q-38 38 -58 55.5t-48.5 32t-57.5 14.5q-58 0 -80 -40t-22 -123l-21 -21h-123l-20 21q0 80 16.5 144.5t52 116t96 79.5t142.5 28q51 0 95 -12.5t81.5 -37.5t58.5 -43.5t52 -49.5q38 -38 58 -55.5t48.5 -32t57.5 -14.5q58 0 80 40t22 123l21 21h122l21 -21
q0 -80 -16.5 -144.5t-52 -116t-96 -79.5t-142.5 -28q-51 0 -95 12.5t-81.5 37.5t-58.5 43.5t-52 49.5z" />
    <glyph glyph-name="cent.tf" 
d="M328 512q0 -87 19.5 -154.5t50.5 -105.5t58.5 -58.5t55.5 -29.5l20 20v656l-20 20q-28 -9 -55.5 -29.5t-58.5 -58.5t-50.5 -105.5t-19.5 -154.5zM696 840v-656l21 -20q110 27 143 164l21 20h163l21 -20q-7 -80 -42 -145.5t-86.5 -106t-107 -64.5t-112.5 -32l-21 -21v-82
l-20 -20h-123l-21 20v82l-20 21q-48 7 -96 25.5t-102.5 59t-95.5 97.5t-68 148t-27 202t27 202t68 148t95.5 97.5t102.5 59t96 25.5l20 21v82l21 20h123l20 -20v-82l21 -21q57 -8 112.5 -32t107 -64.5t86.5 -106t42 -145.5l-21 -20h-163l-21 20q-33 137 -143 164z" />
    <glyph glyph-name="sterling.tf" 
d="M922 594l-21 -21h-409l-21 -20v-164q0 -102 -82 -184v-21h717l20 -20v-144l-20 -20h-1004l-20 20v144l20 20h21q75 0 109 45.5t34 139.5v184l-20 20h-123l-21 21v123l21 20h123l20 21v266q0 206 100.5 318t309.5 112t309 -112t100 -318l-20 -20h-164l-20 20
q0 130 -43.5 188t-161.5 58t-161.5 -58t-43.5 -188v-266l21 -21h409l21 -20v-123z" />
    <glyph glyph-name="currency.tf" 
d="M61 512q0 165 82 287v20l-123 123v21l123 122h21l123 -122h20q121 81 287 81t287 -81h20l123 122h20l123 -122v-21l-123 -123v-20q82 -122 82 -287t-82 -287v-20l123 -123v-21l-123 -122h-20l-123 122h-20q-121 -81 -287 -81t-287 81h-20l-123 -122h-21l-123 122v21
l123 123v20q-82 122 -82 287zM266 512q0 -144 90 -246t238 -102t238 102t90 246t-90 246t-238 102t-238 -102t-90 -246z" />
    <glyph glyph-name="yen.tf" 
d="M696 246v-226l-20 -20h-164l-20 20v226l-21 20h-225l-21 21v123l21 20h225l21 21v41l-41 81l-41 21h-226l-20 20v123l20 21h164v20l-246 492v143l21 21h102l41 -21l307 -655h41l308 655l41 21h102l20 -21v-143l-245 -492v-20h164l20 -21v-123l-20 -20h-226l-41 -21
l-41 -81v-41l21 -21h225l21 -20v-123l-21 -21h-225z" />
    <glyph glyph-name="section.tf" 
d="M266 594q0 -38 11 -69t28 -54t48 -44t61 -35.5t76.5 -31t86 -28.5t98 -31t103.5 -35h21q123 30 123 185q0 43 -12.5 77t-40 60t-57.5 45t-81 38.5t-93 33t-110 34.5t-118 39h-21q-123 -30 -123 -184zM963 184v-20q22 -22 34.5 -37t31 -43.5t27.5 -65t9 -79.5
q0 -174 -113.5 -271.5t-337.5 -97.5q-110 0 -198 24.5t-154.5 75t-102.5 134.5t-36 196l20 20h164l21 -20q0 -129 62 -187.5t224 -58.5q134 0 190 45t56 140q0 46 -27.5 81t-73.5 58.5t-106 43.5t-126 40t-132.5 42.5t-126.5 56t-106 77t-73.5 109t-27.5 147.5
q0 99 46.5 165t117.5 101v21q-22 22 -34.5 37t-31 43.5t-27.5 65t-9 79.5q0 161 117 254.5t354 93.5q471 0 471 -430l-21 -20h-163l-21 20q0 129 -62.5 187.5t-224.5 58.5q-132 0 -188.5 -41.5t-56.5 -122.5q0 -46 27.5 -81t73.5 -58.5t106 -43.5t126 -40t132 -42.5t126 -56
t106 -77t73.5 -109t27.5 -147.5q0 -99 -46.5 -165.5t-116.5 -101.5z" />
    <glyph glyph-name="logicalnot.tf" 
d="M1024 205l-20 -21h-144l-20 21v205l-21 20h-676l-20 21v143l20 20h861l20 -20v-389z" />
    <glyph glyph-name="plusminus.tf" 
d="M1065 594l-21 -21h-327l-21 -20v-225l-20 -21h-144l-20 21v225l-20 20h-328l-21 21v143l21 21h328l20 20v226l20 20h144l20 -20v-226l21 -20h327l21 -21v-143zM1065 20l-21 -20h-880l-21 20v144l21 20h880l21 -20v-144z" />
    <glyph glyph-name="multiply.tf" 
d="M1065 164l-102 -103h-21l-328 328h-20l-328 -328h-20l-103 103v20l328 328v20l-328 328v21l103 102h20l328 -328h20l328 328h21l102 -102v-21l-328 -328v-20l328 -328v-20z" />
    <glyph glyph-name="divide.tf" 
d="M1085 451l-20 -21h-942l-21 21v143l21 20h942l20 -20v-143zM717 41l-21 -21h-204l-21 21v205l21 20h204l21 -20v-205zM717 799l-21 -21h-204l-21 21v205l21 20h204l21 -20v-205z" />
    <glyph glyph-name="florin.tf" 
d="M819 1147l-20 -103l20 -20h266l21 -20v-123l-21 -21h-307l-20 -20l-185 -922q-17 -83 -41.5 -139t-70 -101t-119 -66.5t-178.5 -21.5h-21l-20 21v123l20 20h41q87 0 128 40.5t57 123.5l184 922l-21 20h-143l-20 21v123l20 20h184l21 20l20 103q31 154 116 220.5t253 66.5
h41l20 -21v-123l-20 -20h-61q-65 0 -97.5 -25t-46.5 -98z" />
    <glyph glyph-name="Euro.tf" 
d="M758 492l-21 -21h-327l-21 -20q8 -66 25 -115t48.5 -89.5t85.5 -61.5t128 -21q114 0 181.5 71.5t84.5 174.5l21 20h163l21 -20q-15 -187 -144.5 -308.5t-326.5 -121.5q-225 0 -351 125.5t-141 345.5l-20 20h-103l-20 21v122l20 21h82l21 20v82l-21 21h-82l-20 20v123
l20 21h103l20 20q8 111 40 201.5t90 161.5t150 110t212 39q212 0 334 -114t137 -316l-21 -20h-163l-21 20q-8 57 -24.5 99.5t-46.5 76.5t-79 52t-116 18q-74 0 -128 -24.5t-85.5 -71.5t-48.5 -102.5t-25 -129.5l21 -20h409l21 -21v-123l-21 -20h-430l-20 -21v-82l20 -20h348
l21 -21v-122z" />
    <glyph glyph-name="minus.tf" 
d="M1044 451l-20 -21h-860l-21 21v143l21 20h860l20 -20v-143z" />
    <glyph glyph-name="zero.tosf" 
d="M82 512q0 232 142 382t370 150t370 -150t142 -382t-142 -382t-370 -150t-370 150t-142 382zM287 512q0 -154 85 -251t222 -97t222 97t85 251t-85 251t-222 97t-222 -97t-85 -251z" />
    <glyph glyph-name="one.tosf" 
d="M143 20v144l21 20h368l21 21v553h-21l-204 -205h-62l-20 20v144l286 287l41 20h164l21 -20v-799l20 -21h307l21 -20v-144l-21 -20h-921z" />
    <glyph glyph-name="two.tosf" 
d="M1065 20l-21 -20h-880l-21 20v144l21 41l409 205q89 45 138.5 79t78.5 80.5t29 106.5q0 83 -54.5 133.5t-170.5 50.5q-66 0 -112.5 -16.5t-69.5 -45t-33 -58.5t-10 -64l-21 -21h-164l-20 21q0 72 24.5 135.5t74.5 117t135 84.5t196 31t196 -31t135 -84.5t74.5 -117
t24.5 -135.5q0 -74 -27 -134.5t-79.5 -107t-108 -79.5t-133.5 -68l-184 -82v-21h552l21 -20v-144z" />
    <glyph glyph-name="three.tosf" 
d="M1085 61q0 -228 -139.5 -359.5t-372.5 -131.5q-210 0 -340.5 118.5t-130.5 291.5l21 20h164l20 -20q0 -40 16 -78.5t47.5 -72.5t84 -54.5t118.5 -20.5q150 0 229 82.5t79 224.5q0 137 -71.5 212t-195.5 75q-45 0 -86 -15t-59 -31l-18 -15h-62l-20 20v144l389 368v21h-574
l-20 20v144l20 20h799l21 -20v-164l-21 -41l-307 -287v-20q52 6 106 -3.5t109 -40t97.5 -79t69.5 -128.5t27 -180z" />
    <glyph glyph-name="four.tosf" 
d="M1004 -389l-21 -21h-164l-20 21v369l-21 20h-676l-20 20v164l20 41l656 779l41 20h184l21 -20v-1393zM799 205v553h-21l-471 -553v-21h471z" />
    <glyph glyph-name="five.tosf" 
d="M1085 102q0 -270 -127 -401t-364 -131q-222 0 -338.5 108.5t-132.5 301.5l20 20h164l21 -20q9 -53 22 -88.5t41 -69.5t78.5 -51t124.5 -17q287 0 287 328q0 148 -60.5 227.5t-206.5 79.5q-57 0 -105.5 -17t-77 -41t-48.5 -48t-27 -41l-8 -17l-41 -20l-143 20l-21 21
l41 758l21 20h799l20 -20v-144l-20 -20h-615l-20 -21l-21 -368h21q3 5 10 13t32 29t55 37.5t81 29.5t108 13q111 0 196 -38.5t135 -105.5t74.5 -149.5t24.5 -177.5z" />
    <glyph glyph-name="six.tosf" 
d="M123 696q0 211 36 359.5t107.5 235t166 125t222.5 38.5q187 0 301 -90.5t129 -257.5l-20 -21h-164l-20 21q-15 89 -74.5 126.5t-171.5 37.5q-287 0 -287 -430h21q3 4 10 11t32 24.5t55 31t81 24.5t108 11q213 0 332 -126.5t119 -344.5q0 -229 -127 -360t-344 -131
q-96 0 -171.5 21t-141 72t-108.5 132t-67 204.5t-24 286.5zM901 451q0 149 -60 228t-206 79q-138 0 -212.5 -74.5t-74.5 -212.5q0 -147 76 -227t190 -80q138 0 212.5 74.5t74.5 212.5z" />
    <glyph glyph-name="seven.tosf" 
d="M1044 840l-593 -1229l-21 -21h-102l-21 21v164l512 1044v21h-655l-21 20v144l21 20h860l20 -20v-164z" />
    <glyph glyph-name="eight.tosf" 
d="M1085 410q0 -86 -31 -162.5t-90.5 -136.5t-155 -95.5t-214.5 -35.5t-214.5 35.5t-155 95.5t-91 136.5t-31.5 162.5q0 73 20 134t52.5 102.5t65 67.5t67.5 44v20q-164 110 -164 287q0 79 28 148t82 123.5t142 86t199 31.5t199 -31.5t141.5 -86t81.5 -123.5t28 -148
q0 -177 -163 -287v-20q35 -18 67 -44t65 -67.5t52.5 -102.5t19.5 -134zM840 1065q0 87 -59 146t-187 59t-187 -59t-59 -146q0 -97 64 -161t182 -64t182 64t64 161zM881 410q0 116 -71 191t-216 75t-216 -75t-71 -191q0 -102 71.5 -174t215.5 -72t215.5 72t71.5 174z" />
    <glyph glyph-name="nine.tosf" 
d="M1085 348q0 -213 -33.5 -363t-102.5 -241t-165.5 -132.5t-230.5 -41.5q-172 0 -283.5 91.5t-126.5 256.5l21 21h164l20 -21q14 -88 71 -126t154 -38q59 0 106 19.5t76.5 47.5t51 73t31.5 81t15.5 88t6 77.5t0.5 64.5h-20q-3 -4 -10 -11t-32 -25t-55 -31.5t-81.5 -24.5
t-108.5 -11q-201 0 -326 128.5t-125 342.5q0 223 132 347t339 124q128 0 219.5 -34.5t159 -113.5t100.5 -215t33 -333zM307 573q0 -137 71 -211.5t195 -74.5q138 0 212.5 74t74.5 212q0 147 -78 217t-209 70q-124 0 -195 -75t-71 -212z" />
    <glyph glyph-name="parenleft.case" horiz-adv-x="860" 
d="M696 -184l-20 -21h-41l-41 21q-126 126 -176.5 177.5t-114.5 133t-80 118t-36.5 120t-21.5 151.5t-1 201t1 201t21.5 151.5t36.5 120t80 118t114.5 133t176.5 177.5l41 20h41l20 -20v-143l-84.5 -84.5t-67 -70.5t-55.5 -63t-40 -57.5t-32 -58t-20.5 -60t-15.5 -69
t-7 -80.5t-5 -98v-117v-117t5 -98t7 -80.5t15.5 -69t20.5 -60t32 -58t40 -57.5t55.5 -63t67 -70.5l84.5 -84.5v-143z" />
    <glyph glyph-name="parenright.case" horiz-adv-x="860" 
d="M184 -205l-20 21v143q94 94 132.5 133.5t87.5 103.5t61 96.5t28.5 104.5t17.5 136.5t1 183.5t-1 183.5t-17.5 136.5t-28.5 104.5t-61 96.5t-87.5 103.5t-132.5 133.5v143l20 20h41l41 -20q126 -126 176.5 -177.5t114.5 -133t80 -118t36.5 -120t21.5 -151.5t1 -201
t-1 -201t-21.5 -151.5t-36.5 -120t-80 -118t-114.5 -133t-176.5 -177.5l-41 -21h-41z" />
    <glyph glyph-name="hyphen.case" horiz-adv-x="839" 
d="M717 655l-21 -20h-553l-20 20v144l20 20h553l21 -20v-144z" />
    <glyph glyph-name="at.case" horiz-adv-x="1884" 
d="M942 983q-99 0 -152 -60t-53 -206t53 -206t152 -60q96 0 140 58.5t44 207.5t-44 207.5t-140 58.5zM1126 1085v41l21 21h164l20 -21v-594q0 -71 26 -96.5t77 -25.5q73 0 97.5 71t24.5 236q0 107 -22 202t-70.5 178.5t-119 144t-173.5 95.5t-229 35q-149 0 -268 -53
t-193.5 -144.5t-113.5 -208t-39 -249.5q0 -140 39 -258.5t113.5 -207.5t193 -139.5t268.5 -50.5q101 0 189.5 24t138.5 58h41l20 -20v-143q-63 -47 -166 -75t-223 -28q-242 0 -429 107t-288.5 298t-101.5 435t101.5 434.5t288.5 297.5t429 107t429 -107t288.5 -297.5
t101.5 -434.5q0 -237 -93.5 -354t-254.5 -117q-84 0 -136 33.5t-89 89.5h-21q-30 -30 -51 -47t-74.5 -36.5t-119.5 -19.5q-79 0 -148 28t-123.5 82t-86.5 142t-32 199t31.5 199t84.5 141.5t117.5 81.5t135.5 28q40 0 76 -8.5t58.5 -20.5t39.5 -24t24 -20l7 -9h20z" />
    <glyph glyph-name="bracketleft.case" horiz-adv-x="757" 
d="M594 -184l-21 -21h-389l-20 21v1802l20 20h389l21 -20v-143l-21 -21h-184l-20 -20v-1434l20 -20h184l21 -21v-143z" />
    <glyph glyph-name="bracketright.case" horiz-adv-x="757" 
d="M184 -205l-20 21v143l20 21h185l20 20v1434l-20 20h-185l-20 21v143l20 20h389l21 -20v-1802l-21 -21h-389z" />
    <glyph glyph-name="underscore.case" 
d="M1106 20l-21 -20h-983l-20 20v144l20 20h983l21 -20v-144z" />
    <glyph glyph-name="braceleft.case" horiz-adv-x="901" 
d="M328 102v369q0 91 -33 127.5t-111 36.5l-20 20v123l20 21q78 0 111 36.5t33 127.5v368q0 147 88 227t219 80h82l20 -20v-143l-20 -21h-82q-47 0 -75 -31.5t-28 -91.5v-389q0 -77 -28 -133.5t-74 -71.5v-41q46 -15 74 -71.5t28 -132.5v-390q0 -60 28 -91t75 -31h82l20 -21
v-143l-20 -21h-82q-131 0 -219 80t-88 227z" />
    <glyph glyph-name="braceright.case" horiz-adv-x="901" 
d="M573 471v-369q0 -147 -88 -227t-219 -80h-82l-20 21v143l20 21h82q47 0 75 31t28 91v390q0 76 28 132.5t74 71.5v41q-46 15 -74 71.5t-28 133.5v389q0 60 -28 91.5t-75 31.5h-82l-20 21v143l20 20h82q131 0 219 -80t88 -227v-368q0 -91 33 -127.5t111 -36.5l20 -21v-123
l-20 -20q-78 0 -111 -36.5t-33 -127.5z" />
    <glyph glyph-name="exclamdown.case" horiz-adv-x="737" 
d="M266 614l41 390l21 20h82l20 -20l41 -390v-594l-20 -20h-164l-21 20v594zM246 1413l20 21h205l21 -21v-205l-21 -20h-205l-20 20v205z" />
    <glyph glyph-name="guillemotleft.case" horiz-adv-x="1433" 
d="M737 287l-20 -21h-164l-41 21l-328 327l-20 41v123l20 41l328 328l41 20h164l20 -20v-62l-368 -348v-41l368 -348v-61zM1270 287l-21 -21h-164l-41 21l-327 327l-21 41v123l21 41l327 328l41 20h164l21 -20v-62l-369 -348v-41l369 -348v-61z" />
    <glyph glyph-name="periodcentered.case" horiz-adv-x="573" 
d="M410 614l-21 -20h-205l-20 20v205l20 21h205l21 -21v-205z" />
    <glyph glyph-name="guillemotright.case" horiz-adv-x="1433" 
d="M717 266l-21 21v61l369 348v41l-369 348v62l21 20h164l41 -20l327 -328l21 -41v-123l-21 -41l-327 -327l-41 -21h-164zM184 266l-20 21v61l368 348v41l-368 348v62l20 20h164l41 -20l328 -328l20 -41v-123l-20 -41l-328 -327l-41 -21h-164z" />
    <glyph glyph-name="questiondown.case" horiz-adv-x="1228" 
d="M164 369q0 74 13.5 131t44.5 103.5t62 78t85 76.5q69 57 99 89t47 74t17 103l21 20h164l20 -20q0 -122 -35.5 -196.5t-128.5 -151.5q-103 -86 -135 -122q-69 -79 -69 -185q0 -87 58.5 -146t186.5 -59q132 0 189 68t57 198l21 21h163l21 -21q0 -207 -114 -328.5
t-337 -121.5q-203 0 -326.5 103.5t-123.5 285.5zM512 1413l20 21h205l21 -21v-205l-21 -20h-205l-20 20v205z" />
    <glyph glyph-name="endash.case" horiz-adv-x="1269" 
d="M1147 655l-21 -20h-983l-20 20v144l20 20h983l21 -20v-144z" />
    <glyph glyph-name="emdash.case" horiz-adv-x="2293" 
d="M2171 655l-21 -20h-2007l-20 20v144l20 20h2007l21 -20v-144z" />
    <glyph glyph-name="bullet.case" horiz-adv-x="798" 
d="M635 737v-20l-225 -225h-21l-225 225v20l225 226h21z" />
    <glyph glyph-name="guilsinglleft.case" horiz-adv-x="901" 
d="M737 287l-20 -21h-164l-41 21l-328 327l-20 41v123l20 41l328 328l41 20h164l20 -20v-62l-368 -348v-41l368 -348v-61z" />
    <glyph glyph-name="guilsinglright.case" horiz-adv-x="901" 
d="M184 266l-20 21v61l368 348v41l-368 348v62l20 20h164l41 -20l328 -328l20 -41v-123l-20 -41l-328 -327l-41 -21h-164z" />
    <glyph glyph-name="zero.zero" 
d="M82 717q0 162 26 288.5t71.5 210t111 138t140 77.5t163.5 23t163.5 -23t140 -77.5t111 -138t71.5 -210t26 -288.5t-26 -288.5t-71.5 -210t-111 -138t-140 -77.5t-163.5 -23t-163.5 23t-140 77.5t-111 138t-71.5 210t-26 288.5zM901 717q0 202 -41 327h-20l-389 -819v-20
q5 -5 14.5 -11.5t46.5 -18t82 -11.5q71 0 126 29.5t96.5 93t63 172t21.5 258.5zM287 717q0 -203 41 -328h20l389 819v21q-5 5 -14.5 11.5t-46.5 18t-82 11.5q-71 0 -126 -29.5t-96.5 -93t-63 -172t-21.5 -258.5z" />
    <glyph glyph-name="quotedbl.ss01" horiz-adv-x="696" 
d="M532 819l-20 -20h-20l-21 20v594l21 21h20l20 -21v-594zM225 819l-20 -20h-21l-20 20v594l20 21h21l20 -21v-594z" />
    <glyph glyph-name="numbersign.ss01" horiz-adv-x="1228" 
d="M696 41l62 348l-21 21h-368l-21 -21l-61 -369l-21 -20h-20l-21 20v21l62 348l-21 21h-184l-21 20v21l21 20h205l20 21l82 450l-20 21h-185l-20 20v21l20 20h205l21 20l61 369l21 21h20l20 -21v-20l-61 -349l21 -20h368l21 20l61 369l21 21h20l21 -21v-20l-62 -349l21 -20
h184l20 -20v-21l-20 -20h-205l-20 -21l-82 -450l20 -21h184l21 -20v-21l-21 -20h-204l-21 -21l-61 -369l-21 -20h-20l-21 20v21zM471 963l-20 -21l-82 -450l20 -21h369l20 21l82 450l-20 21h-369z" />
    <glyph glyph-name="quotesingle.ss01" horiz-adv-x="389" 
d="M225 819l-20 -20h-21l-20 20v594l20 21h21l20 -21v-594z" />
    <glyph glyph-name="parenleft.ss01" horiz-adv-x="819" 
d="M225 512q0 -133 1 -201t21.5 -151.5t36.5 -120t80 -118t114.5 -133t176.5 -177.5v-21h-41l-41 21q-119 119 -167.5 168t-109.5 128.5t-76 116t-34.5 122t-20.5 156.5t-1 210t1 210t20.5 156.5t34.5 122t76 116t109.5 128.5t167.5 168l41 21h41v-21
q-126 -126 -176.5 -177.5t-114.5 -133t-80 -118t-36.5 -120t-21.5 -151.5t-1 -201z" />
    <glyph glyph-name="parenright.ss01" horiz-adv-x="819" 
d="M594 512q0 133 -1 201t-21.5 151.5t-36.5 120t-80 118t-114.5 133t-176.5 177.5v21h41l41 -21q119 -119 167.5 -168t109.5 -128.5t76 -116t34.5 -122t20.5 -156.5t1 -210t-1 -210t-20.5 -156.5t-34.5 -122t-76 -116t-109.5 -128.5t-167.5 -168l-41 -21h-41v21
q126 126 176.5 177.5t114.5 133t80 118t36.5 120t21.5 151.5t1 201z" />
    <glyph glyph-name="slash.ss01" horiz-adv-x="1003" 
d="M922 1372l-799 -1352l-21 -20h-20v61l799 1352l20 21h21v-62z" />
    <glyph glyph-name="bracketleft.ss01" horiz-adv-x="696" 
d="M532 -389l-20 -21h-328l-20 21v1802l20 21h328l20 -21v-20l-20 -21h-266l-21 -20v-1680l21 -20h266l20 -21v-20z" />
    <glyph glyph-name="backslash.ss01" horiz-adv-x="1003" 
d="M881 20l-799 1352v62h20l21 -21l799 -1352v-61h-21z" />
    <glyph glyph-name="bracketright.ss01" horiz-adv-x="696" 
d="M184 -410l-20 21v20l20 21h267l20 20v1680l-20 20h-267l-20 21v20l20 21h328l20 -21v-1802l-20 -21h-328z" />
    <glyph glyph-name="underscore.ss01" 
d="M1106 -41l-21 -20h-983l-20 20v21l20 20h983l21 -20v-21z" />
    <glyph glyph-name="braceleft.ss01" horiz-adv-x="860" 
d="M307 532v-20q44 -15 63 -60t19 -124v-471q0 -104 54.5 -154.5t150.5 -50.5h82l20 -21v-20l-20 -21h-82q-115 0 -190.5 68t-75.5 199v471q0 91 -33 127.5t-111 36.5l-20 20v20l20 21q78 0 111 36.5t33 127.5v450q0 131 75.5 199t190.5 68h82l20 -21v-20l-20 -21h-82
q-96 0 -150.5 -50.5t-54.5 -154.5v-450q0 -80 -19 -125t-63 -60z" />
    <glyph glyph-name="bar.ss01" horiz-adv-x="552" 
d="M307 -389l-20 -21h-21l-20 21v1802l20 21h21l20 -21v-1802z" />
    <glyph glyph-name="braceright.ss01" horiz-adv-x="860" 
d="M553 512v20q-44 15 -63 60t-19 125v450q0 104 -54.5 154.5t-150.5 50.5h-82l-20 21v20l20 21h82q115 0 190.5 -68t75.5 -199v-450q0 -91 33 -127.5t111 -36.5l20 -21v-20l-20 -20q-78 0 -111 -36.5t-33 -127.5v-471q0 -131 -75.5 -199t-190.5 -68h-82l-20 21v20l20 21h82
q96 0 150.5 50.5t54.5 154.5v471q0 79 19 124t63 60z" />
    <glyph glyph-name="guillemotleft.ss01" horiz-adv-x="1208" 
d="M655 61h-41l-41 21l-409 410v40l409 410l41 21h41v-21l-409 -410v-40l409 -410v-21zM1044 61h-40l-41 21l-410 410v40l410 410l41 21h40v-21l-409 -410v-40l409 -410v-21z" />
    <glyph glyph-name="logicalnot.ss01" 
d="M1024 205l-20 -21h-21l-20 21v266l-21 21h-799l-20 20v20l20 21h861l20 -21v-327z" />
    <glyph glyph-name="degree.ss01" horiz-adv-x="1146" 
d="M164 1044q0 169 120 289.5t289 120.5t289.5 -120.5t120.5 -289.5t-120.5 -289t-289.5 -120t-289 120t-120 289zM246 1044q0 -138 94.5 -232.5t232.5 -94.5t233 94.5t95 232.5t-95 233t-233 95t-232.5 -95t-94.5 -233z" />
    <glyph glyph-name="guillemotright.ss01" horiz-adv-x="1208" 
d="M594 61h-41v21l410 410v40l-410 410v21h41l41 -21l409 -410v-40l-409 -410zM205 61h-41v21l409 410v40l-409 410v21h41l41 -21l409 -410v-40l-409 -410z" />
    <glyph glyph-name="endash.ss01" horiz-adv-x="1269" 
d="M1147 512l-21 -20h-983l-20 20v20l20 21h983l21 -21v-20z" />
    <glyph glyph-name="emdash.ss01" horiz-adv-x="2293" 
d="M2171 512l-21 -20h-2007l-20 20v20l20 21h2007l21 -21v-20z" />
    <glyph glyph-name="quoteleft.ss01" horiz-adv-x="491" 
d="M143 1188l21 61l102 164l21 21h41v-21l-103 -184v-21l21 -20h41l20 -21v-204l-20 -21h-123l-21 21v225z" />
    <glyph glyph-name="quoteright.ss01" horiz-adv-x="491" 
d="M348 1188l-20 -62l-103 -163l-20 -21h-41v21l102 184v20l-20 21h-41l-21 20v205l21 21h123l20 -21v-225z" />
    <glyph glyph-name="quotesinglbase.ss01" horiz-adv-x="491" 
d="M328 0l-21 -61l-102 -164l-21 -21h-41v21l103 184v21l-21 20h-41l-20 20v205l20 21h123l21 -21v-225z" />
    <glyph glyph-name="quotedblleft.ss01" horiz-adv-x="819" 
d="M471 1188l21 61l102 164l20 21h41v-21l-102 -184v-21l20 -20h41l21 -21v-204l-21 -21h-122l-21 21v225zM143 1188l21 61l102 164l21 21h41v-21l-103 -184v-21l21 -20h41l20 -21v-204l-20 -21h-123l-21 21v225z" />
    <glyph glyph-name="quotedblright.ss01" horiz-adv-x="819" 
d="M348 1188l-20 -62l-103 -163l-20 -21h-41v21l102 184v20l-20 21h-41l-21 20v205l21 21h123l20 -21v-225zM676 1188l-21 -62l-102 -163l-21 -21h-40v21l102 184v20l-21 21h-41l-20 20v205l20 21h123l21 -21v-225z" />
    <glyph glyph-name="quotedblbase.ss01" horiz-adv-x="819" 
d="M328 0l-21 -61l-102 -164l-21 -21h-41v21l103 184v21l-21 20h-41l-20 20v205l20 21h123l21 -21v-225zM655 0l-20 -61l-103 -164l-20 -21h-41v21l102 184v21l-20 20h-41l-20 20v205l20 21h123l20 -21v-225z" />
    <glyph glyph-name="guilsinglleft.ss01" horiz-adv-x="819" 
d="M655 61h-41l-41 21l-409 410v40l409 410l41 21h41v-21l-409 -410v-40l409 -410v-21z" />
    <glyph glyph-name="guilsinglright.ss01" horiz-adv-x="819" 
d="M205 61h-41v21l409 410v40l-409 410v21h41l41 -21l409 -410v-40l-409 -410z" />
    <glyph glyph-name="arrowleft.ss01" horiz-adv-x="1761" 
d="M696 0l-41 20l-491 492v20l491 492l41 20h41v-20l-450 -451v-20h1290l20 -21v-20l-20 -20h-1290v-21l450 -451v-20h-41z" />
    <glyph glyph-name="arrowup.ss01" horiz-adv-x="1372" 
d="M1188 942l20 -41v-41h-20l-451 451h-20v-1291l-21 -20h-20l-21 20v1291h-20l-451 -451h-20v41l20 41l492 492h20z" />
    <glyph glyph-name="arrowright.ss01" horiz-adv-x="1761" 
d="M1106 20l-41 -20h-41v20l451 451v21h-1291l-20 20v20l20 21h1291v20l-451 451v20h41l41 -20l491 -492v-20z" />
    <glyph glyph-name="arrowdown.ss01" horiz-adv-x="1372" 
d="M1208 532l-20 -40l-492 -492h-20l-492 492l-20 40v41h20l451 -450h20v1290l21 21h20l21 -21v-1290h20l451 450h20v-41z" />
    <glyph glyph-name="arrowboth.ss01" horiz-adv-x="2170" 
d="M655 1024l41 20h41v-20l-450 -451v-20h1597v20l-450 451v20h41l41 -20l491 -492v-20l-491 -492l-41 -20h-41v20l450 451v21h-1597v-21l450 -451v-20h-41l-41 20l-491 492v20z" />
    <glyph glyph-name="arrowupdn.ss01" horiz-adv-x="1372" 
d="M184 82l-20 41v41h20l451 -451h20v1598h-20l-451 -451h-20v41l20 41l492 492h20l492 -492l20 -41v-41h-20l-451 451h-20v-1598h20l451 451h20v-41l-20 -41l-492 -492h-20z" />
    <glyph glyph-name="uni2196.ss01" horiz-adv-x="1351" 
d="M860 1434l41 -21l21 -20v-21h-635v-20l901 -901v-21l-21 -20h-20l-901 901h-21v-635h-20l-21 20l-20 41v676l20 21h676z" />
    <glyph glyph-name="uni2197.ss01" horiz-adv-x="1351" 
d="M451 1413l41 21h675l21 -21v-676l-21 -41l-20 -20h-21v635h-20l-901 -901h-21l-20 20v21l901 901v20h-635v21z" />
    <glyph glyph-name="uni2198.ss01" horiz-adv-x="1351" 
d="M901 20l-41 -20h-676l-20 20v676l20 41l21 21h20v-635h21l901 901h20l21 -20v-21l-901 -901v-21h635v-20z" />
    <glyph glyph-name="uni2199.ss01" horiz-adv-x="1351" 
d="M492 0l-41 20l-21 21v20h635v21l-901 901v21l20 20h21l901 -901h20v635h21l20 -21l21 -41v-676l-21 -20h-675z" />
    <glyph glyph-name="a.ss02" horiz-adv-x="1126" 
d="M799 922l20 82l21 20h143l21 -20v-984l-21 -20h-143l-21 20l-20 82h-21q-82 -122 -266 -122q-202 0 -326.5 144.5t-124.5 387.5t124.5 387.5t326.5 144.5q184 0 266 -122h21zM799 512q0 167 -71 257.5t-196 90.5q-124 0 -195 -90.5t-71 -257.5t71 -257.5t195 -90.5
q125 0 196 90.5t71 257.5z" />
    <glyph glyph-name="agrave.ss02" horiz-adv-x="1126" 
d="M676 1167l-21 -20h-102l-41 20l-225 205v41l20 21h144l41 -21l184 -205v-41zM799 922l20 82l21 20h143l21 -20v-984l-21 -20h-143l-21 20l-20 82h-21q-82 -122 -266 -122q-202 0 -326.5 144.5t-124.5 387.5t124.5 387.5t326.5 144.5q184 0 266 -122h21zM799 512
q0 167 -71 257.5t-196 90.5q-124 0 -195 -90.5t-71 -257.5t71 -257.5t195 -90.5q125 0 196 90.5t71 257.5z" />
    <glyph glyph-name="aacute.ss02" horiz-adv-x="1126" 
d="M778 1372l-225 -205l-41 -20h-102l-21 20v41l184 205l41 21h144l20 -21v-41zM799 922l20 82l21 20h143l21 -20v-984l-21 -20h-143l-21 20l-20 82h-21q-82 -122 -266 -122q-202 0 -326.5 144.5t-124.5 387.5t124.5 387.5t326.5 144.5q184 0 266 -122h21zM799 512
q0 167 -71 257.5t-196 90.5q-124 0 -195 -90.5t-71 -257.5t71 -257.5t195 -90.5q125 0 196 90.5t71 257.5z" />
    <glyph glyph-name="acircumflex.ss02" horiz-adv-x="1126" 
d="M860 1167l-20 -20h-103l-41 20l-143 123h-41l-143 -123l-41 -20h-103l-20 20v41l184 205l41 21h205l41 -21l184 -205v-41zM799 922l20 82l21 20h143l21 -20v-984l-21 -20h-143l-21 20l-20 82h-21q-82 -122 -266 -122q-202 0 -326.5 144.5t-124.5 387.5t124.5 387.5
t326.5 144.5q184 0 266 -122h21zM799 512q0 167 -71 257.5t-196 90.5q-124 0 -195 -90.5t-71 -257.5t71 -257.5t195 -90.5q125 0 196 90.5t71 257.5z" />
    <glyph glyph-name="atilde.ss02" horiz-adv-x="1126" 
d="M655 1126q-46 0 -84.5 15t-64 36t-48 42t-45 36t-44.5 15q-82 0 -82 -103l-21 -20h-61l-21 20q0 99 51.5 162.5t153.5 63.5q46 0 84.5 -15t64.5 -36t48 -42t45 -36t45 -15q82 0 82 103l20 20h62l20 -20q0 -99 -51.5 -162.5t-153.5 -63.5zM799 922l20 82l21 20h143l21 -20
v-984l-21 -20h-143l-21 20l-20 82h-21q-82 -122 -266 -122q-202 0 -326.5 144.5t-124.5 387.5t124.5 387.5t326.5 144.5q184 0 266 -122h21zM799 512q0 167 -71 257.5t-196 90.5q-124 0 -195 -90.5t-71 -257.5t71 -257.5t195 -90.5q125 0 196 90.5t71 257.5z" />
    <glyph glyph-name="adieresis.ss02" horiz-adv-x="1126" 
d="M819 1208l-20 -20h-164l-21 20v164l21 21h164l20 -21v-164zM451 1208l-21 -20h-164l-20 20v164l20 21h164l21 -21v-164zM799 922l20 82l21 20h143l21 -20v-984l-21 -20h-143l-21 20l-20 82h-21q-82 -122 -266 -122q-202 0 -326.5 144.5t-124.5 387.5t124.5 387.5
t326.5 144.5q184 0 266 -122h21zM799 512q0 167 -71 257.5t-196 90.5q-124 0 -195 -90.5t-71 -257.5t71 -257.5t195 -90.5q125 0 196 90.5t71 257.5z" />
    <glyph glyph-name="aring.ss02" horiz-adv-x="1126" 
d="M799 922l20 82l21 20h143l21 -20v-984l-21 -20h-143l-21 20l-20 82h-21q-82 -122 -266 -122q-202 0 -326.5 144.5t-124.5 387.5t124.5 387.5t326.5 144.5q184 0 266 -122h21zM799 512q0 167 -71 257.5t-196 90.5q-124 0 -195 -90.5t-71 -257.5t71 -257.5t195 -90.5
q125 0 196 90.5t71 257.5zM737 1311q0 -78 -57 -131.5t-148 -53.5q-90 0 -147 53.5t-57 131.5t56.5 131t147.5 53t148 -53t57 -131zM614 1311q0 35 -20 58.5t-62 23.5t-61.5 -23.5t-19.5 -58.5t19.5 -58.5t61.5 -23.5t62 23.5t20 58.5z" />
    <glyph glyph-name="parenleft.ss03" horiz-adv-x="798" 
d="M635 20l-21 -20h-41l-41 20l-95.5 95.5t-76 79t-62.5 68t-45 58t-36 56t-23 53.5t-17 58t-7.5 63.5t-5.5 76v89.5v89.5t5.5 76t7.5 63.5t17 58t22.5 53t36.5 56t45.5 58t62.5 68t75.5 78.5l95.5 95.5l41 21h41l21 -21v-143l-68 -68t-54 -56t-44.5 -50t-32.5 -44
t-26.5 -43.5t-17 -43.5t-13 -49t-6 -54.5t-4.5 -66v-78.5v-78.5t4.5 -66t6 -54.5t13 -49t17 -43.5t26.5 -43.5t32.5 -44t44.5 -50t54 -56l68 -68v-144z" />
    <glyph glyph-name="parenright.ss03" horiz-adv-x="798" 
d="M184 0l-20 20v144l68 68t54 56t44.5 50t32.5 44t26.5 43.5t17 43.5t13 49t6 54.5t4.5 66v78.5v78.5t-4.5 66t-6 54.5t-13 49t-17 43.5t-26.5 43.5t-32.5 44t-44.5 50t-54 56l-68 68v143l20 21h41l41 -21l95.5 -95.5t75.5 -78.5t63 -68.5t45.5 -58t36.5 -55.5t22.5 -53
t17.5 -58.5t7.5 -63t5.5 -76v-89.5q0 -92 -1 -140.5t-19 -109.5t-32 -90t-69 -95.5t-98 -110.5t-150 -151l-41 -20h-41z" />
    <glyph glyph-name="bracketleft.ss03" horiz-adv-x="757" 
d="M594 20l-21 -20h-389l-20 20v1393l20 21h389l21 -21v-143l-21 -21h-184l-20 -20v-1024l20 -21h184l21 -20v-144z" />
    <glyph glyph-name="bracketright.ss03" horiz-adv-x="757" 
d="M184 0l-20 20v144l20 20h185l20 21v1024l-20 20h-185l-20 21v143l20 21h389l21 -21v-1393l-21 -20h-389z" />
    <glyph glyph-name="braceleft.ss03" horiz-adv-x="901" 
d="M328 307v164q0 91 -33 127.5t-111 36.5l-20 20v123l20 21q78 0 111 36.5t33 127.5v163q0 147 88 227.5t219 80.5h82l20 -21v-143l-20 -21h-82q-47 0 -75 -31.5t-28 -91.5v-184q0 -77 -28 -133.5t-74 -71.5v-41q46 -15 74 -71.5t28 -132.5v-185q0 -60 28 -91.5t75 -31.5
h82l20 -20v-144l-20 -20h-82q-131 0 -219 80t-88 227z" />
    <glyph glyph-name="braceright.ss03" horiz-adv-x="901" 
d="M573 471v-164q0 -147 -88 -227t-219 -80h-82l-20 20v144l20 20h82q47 0 75 31.5t28 91.5v185q0 76 28 132.5t74 71.5v41q-46 15 -74 71.5t-28 133.5v184q0 60 -28 91.5t-75 31.5h-82l-20 21v143l20 21h82q131 0 219 -80.5t88 -227.5v-163q0 -91 33 -127.5t111 -36.5
l20 -21v-123l-20 -20q-78 0 -111 -36.5t-33 -127.5z" />
    <glyph glyph-name="parenleft.ss04" horiz-adv-x="778" 
d="M225 717q0 -65 0.5 -102.5t9.5 -85t14.5 -70t33 -68.5t45 -69t71 -81.5t91.5 -96.5l124 -124v-20h-41l-41 20l-95.5 95.5t-76 79t-62.5 68t-45 58t-36 56t-23 53.5t-17 58t-7.5 63.5t-5.5 76v89.5v89.5t5.5 76t7.5 63.5t17 58t22.5 53t36.5 56t45.5 58t62.5 68t75.5 78.5
l95.5 95.5l41 21h41v-21q-113 -113 -159 -159.5t-104 -115.5t-72 -97t-33 -88t-20 -105t-1 -131z" />
    <glyph glyph-name="parenright.ss04" horiz-adv-x="778" 
d="M553 717q0 86 -1 131t-20 105t-33 88t-72 97t-104 115.5t-159 159.5v21h41l41 -21l95.5 -95.5t75.5 -78.5t62.5 -68t45.5 -58t36.5 -56t22.5 -53t17 -58t7.5 -63.5t5.5 -76v-89.5v-89.5t-5.5 -76t-7.5 -63.5t-17 -58t-23 -53.5t-36 -56t-45 -58t-62.5 -68t-76 -79
l-95.5 -95.5l-41 -20h-41v20l124 124t91.5 96.5t71 81.5t45 69t33 68.5t14.5 70t9.5 85t0.5 102.5z" />
    <glyph glyph-name="bracketleft.ss04" horiz-adv-x="696" 
d="M532 20l-20 -20h-328l-20 20v1393l20 21h328l20 -21v-20l-20 -21h-266l-21 -20v-1270l21 -21h266l20 -20v-21z" />
    <glyph glyph-name="bracketright.ss04" horiz-adv-x="696" 
d="M184 0l-20 20v21l20 20h267l20 21v1270l-20 20h-267l-20 21v20l20 21h328l20 -21v-1393l-20 -20h-328z" />
    <glyph glyph-name="braceleft.ss04" horiz-adv-x="860" 
d="M307 737v-20q44 -15 63 -60t19 -125v-266q0 -104 54.5 -154.5t150.5 -50.5h82l20 -20v-21l-20 -20h-82q-115 0 -190.5 67.5t-75.5 198.5v266q0 91 -33 127.5t-111 36.5l-20 21v20l20 21q78 0 111 36.5t33 127.5v245q0 131 75.5 199t190.5 68h82l20 -21v-20l-20 -21h-82
q-96 0 -150.5 -50.5t-54.5 -154.5v-245q0 -80 -19 -125t-63 -60z" />
    <glyph glyph-name="bar.ss04" horiz-adv-x="552" 
d="M307 20l-20 -20h-21l-20 20v1393l20 21h21l20 -21v-1393z" />
    <glyph glyph-name="braceright.ss04" horiz-adv-x="860" 
d="M553 717v20q-44 15 -63 60t-19 125v245q0 104 -54.5 154.5t-150.5 50.5h-82l-20 21v20l20 21h82q115 0 190.5 -68t75.5 -199v-245q0 -91 33 -127.5t111 -36.5l20 -21v-20l-20 -21q-78 0 -111 -36.5t-33 -127.5v-266q0 -131 -75.5 -198.5t-190.5 -67.5h-82l-20 20v21
l20 20h82q96 0 150.5 50.5t54.5 154.5v266q0 80 19 125t63 60z" />
    <glyph glyph-name="slash.ss05" horiz-adv-x="1536" 
d="M1454 1270l-1249 -1250l-41 -20h-62l-20 20v144l1249 1249l41 21h62l20 -21v-143z" />
    <glyph glyph-name="backslash.ss05" horiz-adv-x="1536" 
d="M1331 20l-1249 1250v143l20 21h62l41 -21l1249 -1249v-144l-20 -20h-62z" />
    <glyph glyph-name="slash.ss06" horiz-adv-x="1597" 
d="M1516 1393l-1373 -1373l-41 -20h-20v41l1372 1372l41 21h21v-41z" />
    <glyph glyph-name="backslash.ss06" horiz-adv-x="1597" 
d="M1454 20l-1372 1373v41h20l41 -21l1373 -1372v-41h-21z" />
    <glyph glyph-name="emdash.ss07" horiz-adv-x="3317" 
d="M3195 451l-21 -21h-3031l-20 21v143l20 20h3031l21 -20v-143z" />
    <glyph glyph-name="emdash.ss08" horiz-adv-x="3317" 
d="M3195 512l-21 -20h-3031l-20 20v20l20 21h3031l21 -21v-20z" />
    <glyph glyph-name="ampersand.ss09" horiz-adv-x="1392" 
d="M655 164q80 0 139 23.5t89.5 64t44.5 84.5t14 94v430l21 21h286l21 -21v-143l-21 -21h-82l-20 -20v-246q0 -87 -29 -165.5t-86 -143.5t-154 -103t-223 -38q-101 0 -184 25.5t-139.5 68t-94.5 101t-55.5 122.5t-17.5 133q0 81 20.5 146t54 105.5t71.5 64.5t79 32v21
q-81 32 -132.5 107.5t-51.5 178.5q0 169 115.5 269t314.5 100t314.5 -100t115.5 -269l-21 -20h-163l-21 20q0 91 -58.5 138t-166.5 47t-166.5 -47t-58.5 -138q0 -93 59.5 -148.5t165.5 -55.5h82l20 -21v-143l-20 -21h-62q-286 0 -286 -266q0 -50 13.5 -94t44.5 -84.5
t89.5 -64t138.5 -23.5z" />
    <glyph glyph-name="one.ss10" horiz-adv-x="655" 
d="M492 20l-21 -20h-164l-20 20v1065l-21 21h-164l-20 20v103l184 184l41 21h164l21 -21v-1393z" />
    <glyph glyph-name="orn001" horiz-adv-x="1351" 
d="M1188 -389l-21 -21h-983l-20 21v1802l20 21h983l21 -21v-1802zM348 1229v-1434l21 -20h614l21 20v1434l-21 20h-614z" />
    <glyph glyph-name="orn002" horiz-adv-x="1351" 
d="M1188 -389l-21 -21h-983l-20 21v1802l20 21h983l21 -21v-1802z" />
    <glyph glyph-name="orn003" horiz-adv-x="1351" 
d="M1188 20l-21 -20h-983l-20 20v1393l20 21h983l21 -21v-1393zM348 1229v-1024l21 -21h614l21 21v1024l-21 20h-614z" />
    <glyph glyph-name="orn004" horiz-adv-x="1351" 
d="M1188 20l-21 -20h-983l-20 20v1393l20 21h983l21 -21v-1393z" />
    <glyph glyph-name="orn005" horiz-adv-x="1351" 
d="M1188 20l-21 -20h-983l-20 20v984l20 20h983l21 -20v-984zM348 819v-614l21 -21h614l21 21v614l-21 21h-614z" />
    <glyph glyph-name="orn006" horiz-adv-x="1351" 
d="M1188 20l-21 -20h-983l-20 20v984l20 20h983l21 -20v-984z" />
    <glyph glyph-name="orn007" horiz-adv-x="1351" 
d="M1188 -389l-21 -21h-983l-20 21v1802l20 21h983l21 -21v-1802zM225 1352v-1680l21 -20h860l20 20v1680l-20 20h-860z" />
    <glyph glyph-name="orn008" horiz-adv-x="1351" 
d="M1188 20l-21 -20h-983l-20 20v1393l20 21h983l21 -21v-1393zM225 1352v-1270l21 -21h860l20 21v1270l-20 20h-860z" />
    <glyph glyph-name="orn009" horiz-adv-x="1351" 
d="M1188 20l-21 -20h-983l-20 20v984l20 20h983l21 -20v-984zM225 942v-860l21 -21h860l20 21v860l-20 21h-860z" />
    <glyph glyph-name="orn010" horiz-adv-x="1351" 
d="M1188 -389l-21 -21h-983l-20 21v1802l20 21h983l21 -21v-1802zM1106 -287h20v1598h-20l-389 -779v-40zM246 1311h-21v-1598h21l389 779v40zM287 1372v-20l368 -738h41l369 738v20h-778zM1065 -328l-369 738h-41l-368 -738v-20h778v20z" />
    <glyph glyph-name="orn011" horiz-adv-x="1351" 
d="M1188 20l-21 -20h-983l-20 20v1393l20 21h983l21 -21v-1393zM737 676l369 -553h20v1188h-20l-369 -553v-82zM246 1311h-21v-1188h21l368 553v82zM696 799l369 553v20h-778v-20l368 -553h41zM287 82v-21h778v21l-369 553h-41z" />
    <glyph glyph-name="orn012" horiz-adv-x="1351" 
d="M1188 20l-21 -20h-983l-20 20v984l20 20h983l21 -20v-984zM737 492l369 -369h20v778h-20l-369 -369v-40zM246 901h-21v-778h21l368 369v40zM696 573l369 369v21h-778v-21l368 -369h41zM287 82v-21h778v21l-369 369h-41z" />
    <glyph glyph-name="orn013" horiz-adv-x="1351" 
d="M164 20l20 -20h-20v20zM205 0l-41 41v20l61 -61h-20zM246 0l-82 82v20l102 -102h-20zM287 0l-123 123v20l143 -143h-20zM328 0l-164 164v20l184 -184h-20zM369 0l-205 205v20l225 -225h-20zM410 0l-246 246v20l266 -266h-20zM451 0l-287 287v20l307 -307h-20zM492 0
l-328 328v20l348 -348h-20zM532 0l-368 369v20l389 -389h-21zM573 0l-409 410v20l430 -430h-21zM614 0l-450 451v20l471 -471h-21zM655 0l-491 492v20l512 -512h-21zM696 0l-532 532v21l553 -553h-21zM737 0l-573 573v21l594 -594h-21zM778 0l-614 614v21l635 -635h-21z
M819 0l-655 655v21l676 -676h-21zM860 0l-696 696v21l717 -717h-21zM901 0l-737 737v21l758 -758h-21zM942 0l-778 778v21l799 -799h-21zM983 0l-819 819v21l840 -840h-21zM1024 0l-860 860v21l880 -881h-20zM1065 0l-901 901v21l921 -922h-20zM1106 0l-942 942v21l962 -963
h-20zM1147 0l-983 983v21l1003 -1004h-20zM1188 0l-1024 1024v20l1024 -1024v-20zM1188 41l-1024 1024v20l1024 -1024v-20zM1188 82l-1024 1024v20l1024 -1024v-20zM1188 123l-1024 1024v20l1024 -1024v-20zM1188 164l-1024 1024v20l1024 -1024v-20zM1188 205l-1024 1024v20
l1024 -1024v-20zM1188 246l-1024 1024v20l1024 -1024v-20zM1188 287l-1024 1024v20l1024 -1024v-20zM1188 328l-1024 1024v20l1024 -1024v-20zM1188 369l-1024 1024v20l1024 -1024v-20zM1188 410l-1024 1024h20l1004 -1004v-20zM1167 1434l21 -21v-20l-41 41h20zM1126 1434
l62 -62v-20l-82 82h20zM1085 1434l103 -103v-20l-123 123h20zM1044 1434l144 -144v-20l-164 164h20zM1004 1434l184 -185v-20l-205 205h21zM963 1434l225 -226v-20l-246 246h21zM922 1434l266 -267v-20l-287 287h21zM881 1434l307 -308v-20l-328 328h21zM840 1434l348 -349
v-20l-369 369h21zM799 1434l389 -390v-20l-410 410h21zM758 1434l430 -430v-21l-451 451h21zM717 1434l471 -471v-21l-492 492h21zM676 1434l512 -512v-21l-533 533h21zM635 1434l553 -553v-21l-574 574h21zM594 1434l594 -594v-21l-615 615h21zM553 1434l635 -635v-21
l-656 656h21zM512 1434l676 -676v-21l-696 697h20zM471 1434l717 -717v-21l-737 738h20zM430 1434l758 -758v-21l-778 779h20zM389 1434l799 -799v-21l-819 820h20zM348 1434l840 -840v-21l-860 861h20zM307 1434l881 -881v-21l-901 902h20zM266 1434l922 -922v-20l-942 942
h20zM225 1434l963 -963v-20l-983 983h20z" />
    <glyph glyph-name="orn014" horiz-adv-x="1351" 
d="M1188 1413l-21 21h21v-21zM1147 1434l41 -41v-21l-62 62h21zM1106 1434l82 -82v-21l-103 103h21zM1065 1434l123 -123v-21l-144 144h21zM1024 1434l164 -164v-21l-184 185h20zM983 1434l205 -205v-21l-225 226h20zM942 1434l246 -246v-21l-266 267h20zM901 1434l287 -287
v-21l-307 308h20zM860 1434l328 -328v-21l-348 349h20zM819 1434l369 -369v-21l-389 390h20zM778 1434l410 -410v-20l-430 430h20zM737 1434l451 -451v-20l-471 471h20zM696 1434l492 -492v-20l-512 512h20zM655 1434l533 -533v-20l-553 553h20zM614 1434l574 -574v-20
l-594 594h20zM573 1434l615 -615v-20l-635 635h20zM532 1434l656 -656v-20l-676 676h20zM492 1434l696 -697v-20l-717 717h21zM451 1434l737 -738v-20l-758 758h21zM410 1434l778 -779v-20l-799 799h21zM369 1434l819 -820v-20l-840 840h21zM328 1434l860 -861v-20l-881 881
h21zM287 1434l901 -902v-20l-922 922h21zM246 1434l942 -942v-21l-963 963h21zM205 1434l983 -983v-21l-1004 1004h21zM164 1434l1024 -1024v-21l-1024 1024v21zM164 1393l1024 -1024v-21l-1024 1024v21zM164 1352l1024 -1024v-21l-1024 1024v21zM164 1311l1024 -1024v-21
l-1024 1024v21zM164 1270l1024 -1024v-21l-1024 1024v21zM164 1229l1024 -1024v-21l-1024 1024v21zM164 1188l1024 -1024v-21l-1024 1024v21zM164 1147l1024 -1024v-21l-1024 1024v21zM164 1106l1024 -1024v-21l-1024 1024v21zM164 1065l1024 -1024v-21l-1024 1024v21z
M164 1024l1024 -1024h-21l-1003 1004v20zM184 0l-20 20v21l41 -41h-21zM225 0l-61 61v21l82 -82h-21zM266 0l-102 102v21l123 -123h-21zM307 0l-143 143v21l164 -164h-21zM348 0l-184 184v21l205 -205h-21zM389 0l-225 225v21l246 -246h-21zM430 0l-266 266v21l287 -287h-21
zM471 0l-307 307v21l328 -328h-21zM512 0l-348 348v21l368 -369h-20zM553 0l-389 389v21l409 -410h-20zM594 0l-430 430v21l450 -451h-20zM635 0l-471 471v21l491 -492h-20zM676 0l-512 512v20l532 -532h-20zM717 0l-553 553v20l573 -573h-20zM758 0l-594 594v20l614 -614
h-20zM799 0l-635 635v20l655 -655h-20zM840 0l-676 676v20l696 -696h-20zM881 0l-717 717v20l737 -737h-20zM922 0l-758 758v20l778 -778h-20zM963 0l-799 799v20l819 -819h-20zM1004 0l-840 840v20l860 -860h-20zM1044 0l-880 881v20l901 -901h-21zM1085 0l-921 922v20
l942 -942h-21zM1126 0l-962 963v20l983 -983h-21z" />
    <glyph glyph-name="orn015" horiz-adv-x="1351" 
d="M1167 0l21 20v-20h-21zM1188 41l-41 -41h-21l62 61v-20zM1188 82l-82 -82h-21l103 102v-20zM1188 123l-123 -123h-21l144 143v-20zM1188 164l-164 -164h-20l184 184v-20zM1188 205l-205 -205h-20l225 225v-20zM1188 246l-246 -246h-20l266 266v-20zM1188 287l-287 -287
h-20l307 307v-20zM1188 328l-328 -328h-20l348 348v-20zM1188 369l-369 -369h-20l389 389v-20zM1188 410l-410 -410h-20l430 430v-20zM1188 451l-451 -451h-20l471 471v-20zM1188 492l-492 -492h-20l512 512v-20zM1188 532l-533 -532h-20l553 553v-21zM1188 573l-574 -573
h-20l594 594v-21zM1188 614l-615 -614h-20l635 635v-21zM1188 655l-656 -655h-20l676 676v-21zM1188 696l-696 -696h-21l717 717v-21zM1188 737l-737 -737h-21l758 758v-21zM1188 778l-778 -778h-21l799 799v-21zM1188 819l-819 -819h-21l840 840v-21zM1188 860l-860 -860
h-21l881 881v-21zM1188 901l-901 -901h-21l922 922v-21zM1188 942l-942 -942h-21l963 963v-21zM1188 983l-983 -983h-21l1004 1004v-21zM1188 1024l-1024 -1024v20l1024 1024v-20zM1188 1065l-1024 -1024v20l1024 1024v-20zM1188 1106l-1024 -1024v20l1024 1024v-20z
M1188 1147l-1024 -1024v20l1024 1024v-20zM1188 1188l-1024 -1024v20l1024 1024v-20zM1188 1229l-1024 -1024v20l1024 1024v-20zM1188 1270l-1024 -1024v20l1024 1024v-20zM1188 1311l-1024 -1024v20l1024 1024v-20zM1188 1352l-1024 -1024v20l1024 1024v-20zM1188 1393
l-1024 -1024v20l1024 1024v-20zM1188 1434l-1024 -1024v20l1003 1004h21zM164 1413l20 21h21l-41 -41v20zM164 1372l61 62h21l-82 -82v20zM164 1331l102 103h21l-123 -123v20zM164 1290l143 144h21l-164 -164v20zM164 1249l184 185h21l-205 -205v20zM164 1208l225 226h21
l-246 -246v20zM164 1167l266 267h21l-287 -287v20zM164 1126l307 308h21l-328 -328v20zM164 1085l348 349h20l-368 -369v20zM164 1044l389 390h20l-409 -410v20zM164 1004l430 430h20l-450 -451v21zM164 963l471 471h20l-491 -492v21zM164 922l512 512h20l-532 -533v21z
M164 881l553 553h20l-573 -574v21zM164 840l594 594h20l-614 -615v21zM164 799l635 635h20l-655 -656v21zM164 758l676 676h20l-696 -697v21zM164 717l717 717h20l-737 -738v21zM164 676l758 758h20l-778 -779v21zM164 635l799 799h20l-819 -820v21zM164 594l840 840h20
l-860 -861v21zM164 553l880 881h21l-901 -902v21zM164 512l921 922h21l-942 -942v20zM164 471l962 963h21l-983 -983v20z" />
    <glyph glyph-name="orn016" horiz-adv-x="1351" 
d="M184 1434l-20 -21v21h20zM164 1393l41 41h20l-61 -62v21zM164 1352l82 82h20l-102 -103v21zM164 1311l123 123h20l-143 -144v21zM164 1270l164 164h20l-184 -185v21zM164 1229l205 205h20l-225 -226v21zM164 1188l246 246h20l-266 -267v21zM164 1147l287 287h20
l-307 -308v21zM164 1106l328 328h20l-348 -349v21zM164 1065l368 369h21l-389 -390v21zM164 1024l409 410h21l-430 -430v20zM164 983l450 451h21l-471 -471v20zM164 942l491 492h21l-512 -512v20zM164 901l532 533h21l-553 -553v20zM164 860l573 574h21l-594 -594v20z
M164 819l614 615h21l-635 -635v20zM164 778l655 656h21l-676 -676v20zM164 737l696 697h21l-717 -717v20zM164 696l737 738h21l-758 -758v20zM164 655l778 779h21l-799 -799v20zM164 614l819 820h21l-840 -840v20zM164 573l860 861h20l-880 -881v20zM164 532l901 902h20
l-921 -922v20zM164 492l942 942h20l-962 -963v21zM164 451l983 983h20l-1003 -1004v21zM164 410l1024 1024v-21l-1024 -1024v21zM164 369l1024 1024v-21l-1024 -1024v21zM164 328l1024 1024v-21l-1024 -1024v21zM164 287l1024 1024v-21l-1024 -1024v21zM164 246l1024 1024
v-21l-1024 -1024v21zM164 205l1024 1024v-21l-1024 -1024v21zM164 164l1024 1024v-21l-1024 -1024v21zM164 123l1024 1024v-21l-1024 -1024v21zM164 82l1024 1024v-21l-1024 -1024v21zM164 41l1024 1024v-21l-1024 -1024v21zM164 0l1024 1024v-20l-1004 -1004h-20zM1188 20
l-21 -20h-20l41 41v-21zM1188 61l-62 -61h-20l82 82v-21zM1188 102l-103 -102h-20l123 123v-21zM1188 143l-144 -143h-20l164 164v-21zM1188 184l-184 -184h-21l205 205v-21zM1188 225l-225 -225h-21l246 246v-21zM1188 266l-266 -266h-21l287 287v-21zM1188 307l-307 -307
h-21l328 328v-21zM1188 348l-348 -348h-21l369 369v-21zM1188 389l-389 -389h-21l410 410v-21zM1188 430l-430 -430h-21l451 451v-21zM1188 471l-471 -471h-21l492 492v-21zM1188 512l-512 -512h-21l533 532v-20zM1188 553l-553 -553h-21l574 573v-20zM1188 594l-594 -594
h-21l615 614v-20zM1188 635l-635 -635h-21l656 655v-20zM1188 676l-676 -676h-20l696 696v-20zM1188 717l-717 -717h-20l737 737v-20zM1188 758l-758 -758h-20l778 778v-20zM1188 799l-799 -799h-20l819 819v-20zM1188 840l-840 -840h-20l860 860v-20zM1188 881l-881 -881
h-20l901 901v-20zM1188 922l-922 -922h-20l942 942v-20zM1188 963l-963 -963h-20l983 983v-20z" />
    </font>
</defs>
</svg>
